<?xml version="1.0" encoding="utf-8" standalone="no"?>
<!DOCTYPE svg PUBLIC "-//W3C//DTD SVG 1.1//EN"
  "http://www.w3.org/Graphics/SVG/1.1/DTD/svg11.dtd">
<!-- Created with matplotlib (https://matplotlib.org/) -->
<svg height="432pt" version="1.1" viewBox="0 0 576 432" width="576pt" xmlns="http://www.w3.org/2000/svg" xmlns:xlink="http://www.w3.org/1999/xlink">
 <defs>
  <style type="text/css">
*{stroke-linecap:butt;stroke-linejoin:round;}
  </style>
 </defs>
 <g id="figure_1">
  <g id="patch_1">
   <path d="M 0 432 
L 576 432 
L 576 0 
L 0 0 
z
" style="fill:none;"/>
  </g>
  <g id="axes_1">
   <g id="patch_2">
    <path d="M 72 384.48 
L 518.4 384.48 
L 518.4 51.84 
L 72 51.84 
z
" style="fill:none;"/>
   </g>
   <g id="matplotlib.axis_1">
    <g id="xtick_1">
     <g id="line2d_1">
      <path clip-path="url(#pe102cccd35)" d="M 72 384.48 
L 72 51.84 
" style="fill:none;stroke:#b0b0b0;stroke-linecap:square;stroke-width:0.8;"/>
     </g>
     <g id="line2d_2">
      <defs>
       <path d="M 0 0 
L 0 3.5 
" id="ma6b3050352" style="stroke:#000000;stroke-width:0.8;"/>
      </defs>
      <g>
       <use style="stroke:#000000;stroke-width:0.8;" x="72" xlink:href="#ma6b3050352" y="384.48"/>
      </g>
     </g>
     <g id="text_1">
      <!-- 0.0 -->
      <defs>
       <path d="M 31.78125 66.40625 
Q 24.171875 66.40625 20.328125 58.90625 
Q 16.5 51.421875 16.5 36.375 
Q 16.5 21.390625 20.328125 13.890625 
Q 24.171875 6.390625 31.78125 6.390625 
Q 39.453125 6.390625 43.28125 13.890625 
Q 47.125 21.390625 47.125 36.375 
Q 47.125 51.421875 43.28125 58.90625 
Q 39.453125 66.40625 31.78125 66.40625 
z
M 31.78125 74.21875 
Q 44.046875 74.21875 50.515625 64.515625 
Q 56.984375 54.828125 56.984375 36.375 
Q 56.984375 17.96875 50.515625 8.265625 
Q 44.046875 -1.421875 31.78125 -1.421875 
Q 19.53125 -1.421875 13.0625 8.265625 
Q 6.59375 17.96875 6.59375 36.375 
Q 6.59375 54.828125 13.0625 64.515625 
Q 19.53125 74.21875 31.78125 74.21875 
z
" id="DejaVuSans-48"/>
       <path d="M 10.6875 12.40625 
L 21 12.40625 
L 21 0 
L 10.6875 0 
z
" id="DejaVuSans-46"/>
      </defs>
      <g transform="translate(64.048438 399.078438)scale(0.1 -0.1)">
       <use xlink:href="#DejaVuSans-48"/>
       <use x="63.623047" xlink:href="#DejaVuSans-46"/>
       <use x="95.410156" xlink:href="#DejaVuSans-48"/>
      </g>
     </g>
    </g>
    <g id="xtick_2">
     <g id="line2d_3">
      <path clip-path="url(#pe102cccd35)" d="M 161.28 384.48 
L 161.28 51.84 
" style="fill:none;stroke:#b0b0b0;stroke-linecap:square;stroke-width:0.8;"/>
     </g>
     <g id="line2d_4">
      <g>
       <use style="stroke:#000000;stroke-width:0.8;" x="161.28" xlink:href="#ma6b3050352" y="384.48"/>
      </g>
     </g>
     <g id="text_2">
      <!-- 0.2 -->
      <defs>
       <path d="M 19.1875 8.296875 
L 53.609375 8.296875 
L 53.609375 0 
L 7.328125 0 
L 7.328125 8.296875 
Q 12.9375 14.109375 22.625 23.890625 
Q 32.328125 33.6875 34.8125 36.53125 
Q 39.546875 41.84375 41.421875 45.53125 
Q 43.3125 49.21875 43.3125 52.78125 
Q 43.3125 58.59375 39.234375 62.25 
Q 35.15625 65.921875 28.609375 65.921875 
Q 23.96875 65.921875 18.8125 64.3125 
Q 13.671875 62.703125 7.8125 59.421875 
L 7.8125 69.390625 
Q 13.765625 71.78125 18.9375 73 
Q 24.125 74.21875 28.421875 74.21875 
Q 39.75 74.21875 46.484375 68.546875 
Q 53.21875 62.890625 53.21875 53.421875 
Q 53.21875 48.921875 51.53125 44.890625 
Q 49.859375 40.875 45.40625 35.40625 
Q 44.1875 33.984375 37.640625 27.21875 
Q 31.109375 20.453125 19.1875 8.296875 
z
" id="DejaVuSans-50"/>
      </defs>
      <g transform="translate(153.328438 399.078438)scale(0.1 -0.1)">
       <use xlink:href="#DejaVuSans-48"/>
       <use x="63.623047" xlink:href="#DejaVuSans-46"/>
       <use x="95.410156" xlink:href="#DejaVuSans-50"/>
      </g>
     </g>
    </g>
    <g id="xtick_3">
     <g id="line2d_5">
      <path clip-path="url(#pe102cccd35)" d="M 250.56 384.48 
L 250.56 51.84 
" style="fill:none;stroke:#b0b0b0;stroke-linecap:square;stroke-width:0.8;"/>
     </g>
     <g id="line2d_6">
      <g>
       <use style="stroke:#000000;stroke-width:0.8;" x="250.56" xlink:href="#ma6b3050352" y="384.48"/>
      </g>
     </g>
     <g id="text_3">
      <!-- 0.4 -->
      <defs>
       <path d="M 37.796875 64.3125 
L 12.890625 25.390625 
L 37.796875 25.390625 
z
M 35.203125 72.90625 
L 47.609375 72.90625 
L 47.609375 25.390625 
L 58.015625 25.390625 
L 58.015625 17.1875 
L 47.609375 17.1875 
L 47.609375 0 
L 37.796875 0 
L 37.796875 17.1875 
L 4.890625 17.1875 
L 4.890625 26.703125 
z
" id="DejaVuSans-52"/>
      </defs>
      <g transform="translate(242.608438 399.078438)scale(0.1 -0.1)">
       <use xlink:href="#DejaVuSans-48"/>
       <use x="63.623047" xlink:href="#DejaVuSans-46"/>
       <use x="95.410156" xlink:href="#DejaVuSans-52"/>
      </g>
     </g>
    </g>
    <g id="xtick_4">
     <g id="line2d_7">
      <path clip-path="url(#pe102cccd35)" d="M 339.84 384.48 
L 339.84 51.84 
" style="fill:none;stroke:#b0b0b0;stroke-linecap:square;stroke-width:0.8;"/>
     </g>
     <g id="line2d_8">
      <g>
       <use style="stroke:#000000;stroke-width:0.8;" x="339.84" xlink:href="#ma6b3050352" y="384.48"/>
      </g>
     </g>
     <g id="text_4">
      <!-- 0.6 -->
      <defs>
       <path d="M 33.015625 40.375 
Q 26.375 40.375 22.484375 35.828125 
Q 18.609375 31.296875 18.609375 23.390625 
Q 18.609375 15.53125 22.484375 10.953125 
Q 26.375 6.390625 33.015625 6.390625 
Q 39.65625 6.390625 43.53125 10.953125 
Q 47.40625 15.53125 47.40625 23.390625 
Q 47.40625 31.296875 43.53125 35.828125 
Q 39.65625 40.375 33.015625 40.375 
z
M 52.59375 71.296875 
L 52.59375 62.3125 
Q 48.875 64.0625 45.09375 64.984375 
Q 41.3125 65.921875 37.59375 65.921875 
Q 27.828125 65.921875 22.671875 59.328125 
Q 17.53125 52.734375 16.796875 39.40625 
Q 19.671875 43.65625 24.015625 45.921875 
Q 28.375 48.1875 33.59375 48.1875 
Q 44.578125 48.1875 50.953125 41.515625 
Q 57.328125 34.859375 57.328125 23.390625 
Q 57.328125 12.15625 50.6875 5.359375 
Q 44.046875 -1.421875 33.015625 -1.421875 
Q 20.359375 -1.421875 13.671875 8.265625 
Q 6.984375 17.96875 6.984375 36.375 
Q 6.984375 53.65625 15.1875 63.9375 
Q 23.390625 74.21875 37.203125 74.21875 
Q 40.921875 74.21875 44.703125 73.484375 
Q 48.484375 72.75 52.59375 71.296875 
z
" id="DejaVuSans-54"/>
      </defs>
      <g transform="translate(331.888438 399.078438)scale(0.1 -0.1)">
       <use xlink:href="#DejaVuSans-48"/>
       <use x="63.623047" xlink:href="#DejaVuSans-46"/>
       <use x="95.410156" xlink:href="#DejaVuSans-54"/>
      </g>
     </g>
    </g>
    <g id="xtick_5">
     <g id="line2d_9">
      <path clip-path="url(#pe102cccd35)" d="M 429.12 384.48 
L 429.12 51.84 
" style="fill:none;stroke:#b0b0b0;stroke-linecap:square;stroke-width:0.8;"/>
     </g>
     <g id="line2d_10">
      <g>
       <use style="stroke:#000000;stroke-width:0.8;" x="429.12" xlink:href="#ma6b3050352" y="384.48"/>
      </g>
     </g>
     <g id="text_5">
      <!-- 0.8 -->
      <defs>
       <path d="M 31.78125 34.625 
Q 24.75 34.625 20.71875 30.859375 
Q 16.703125 27.09375 16.703125 20.515625 
Q 16.703125 13.921875 20.71875 10.15625 
Q 24.75 6.390625 31.78125 6.390625 
Q 38.8125 6.390625 42.859375 10.171875 
Q 46.921875 13.96875 46.921875 20.515625 
Q 46.921875 27.09375 42.890625 30.859375 
Q 38.875 34.625 31.78125 34.625 
z
M 21.921875 38.8125 
Q 15.578125 40.375 12.03125 44.71875 
Q 8.5 49.078125 8.5 55.328125 
Q 8.5 64.0625 14.71875 69.140625 
Q 20.953125 74.21875 31.78125 74.21875 
Q 42.671875 74.21875 48.875 69.140625 
Q 55.078125 64.0625 55.078125 55.328125 
Q 55.078125 49.078125 51.53125 44.71875 
Q 48 40.375 41.703125 38.8125 
Q 48.828125 37.15625 52.796875 32.3125 
Q 56.78125 27.484375 56.78125 20.515625 
Q 56.78125 9.90625 50.3125 4.234375 
Q 43.84375 -1.421875 31.78125 -1.421875 
Q 19.734375 -1.421875 13.25 4.234375 
Q 6.78125 9.90625 6.78125 20.515625 
Q 6.78125 27.484375 10.78125 32.3125 
Q 14.796875 37.15625 21.921875 38.8125 
z
M 18.3125 54.390625 
Q 18.3125 48.734375 21.84375 45.5625 
Q 25.390625 42.390625 31.78125 42.390625 
Q 38.140625 42.390625 41.71875 45.5625 
Q 45.3125 48.734375 45.3125 54.390625 
Q 45.3125 60.0625 41.71875 63.234375 
Q 38.140625 66.40625 31.78125 66.40625 
Q 25.390625 66.40625 21.84375 63.234375 
Q 18.3125 60.0625 18.3125 54.390625 
z
" id="DejaVuSans-56"/>
      </defs>
      <g transform="translate(421.168437 399.078438)scale(0.1 -0.1)">
       <use xlink:href="#DejaVuSans-48"/>
       <use x="63.623047" xlink:href="#DejaVuSans-46"/>
       <use x="95.410156" xlink:href="#DejaVuSans-56"/>
      </g>
     </g>
    </g>
    <g id="xtick_6">
     <g id="line2d_11">
      <path clip-path="url(#pe102cccd35)" d="M 518.4 384.48 
L 518.4 51.84 
" style="fill:none;stroke:#b0b0b0;stroke-linecap:square;stroke-width:0.8;"/>
     </g>
     <g id="line2d_12">
      <g>
       <use style="stroke:#000000;stroke-width:0.8;" x="518.4" xlink:href="#ma6b3050352" y="384.48"/>
      </g>
     </g>
     <g id="text_6">
      <!-- 1.0 -->
      <defs>
       <path d="M 12.40625 8.296875 
L 28.515625 8.296875 
L 28.515625 63.921875 
L 10.984375 60.40625 
L 10.984375 69.390625 
L 28.421875 72.90625 
L 38.28125 72.90625 
L 38.28125 8.296875 
L 54.390625 8.296875 
L 54.390625 0 
L 12.40625 0 
z
" id="DejaVuSans-49"/>
      </defs>
      <g transform="translate(510.448437 399.078438)scale(0.1 -0.1)">
       <use xlink:href="#DejaVuSans-49"/>
       <use x="63.623047" xlink:href="#DejaVuSans-46"/>
       <use x="95.410156" xlink:href="#DejaVuSans-48"/>
      </g>
     </g>
    </g>
    <g id="text_7">
     <!-- Recall -->
     <defs>
      <path d="M 44.390625 34.1875 
Q 47.5625 33.109375 50.5625 29.59375 
Q 53.5625 26.078125 56.59375 19.921875 
L 66.609375 0 
L 56 0 
L 46.6875 18.703125 
Q 43.0625 26.03125 39.671875 28.421875 
Q 36.28125 30.8125 30.421875 30.8125 
L 19.671875 30.8125 
L 19.671875 0 
L 9.8125 0 
L 9.8125 72.90625 
L 32.078125 72.90625 
Q 44.578125 72.90625 50.734375 67.671875 
Q 56.890625 62.453125 56.890625 51.90625 
Q 56.890625 45.015625 53.6875 40.46875 
Q 50.484375 35.9375 44.390625 34.1875 
z
M 19.671875 64.796875 
L 19.671875 38.921875 
L 32.078125 38.921875 
Q 39.203125 38.921875 42.84375 42.21875 
Q 46.484375 45.515625 46.484375 51.90625 
Q 46.484375 58.296875 42.84375 61.546875 
Q 39.203125 64.796875 32.078125 64.796875 
z
" id="DejaVuSans-82"/>
      <path d="M 56.203125 29.59375 
L 56.203125 25.203125 
L 14.890625 25.203125 
Q 15.484375 15.921875 20.484375 11.0625 
Q 25.484375 6.203125 34.421875 6.203125 
Q 39.59375 6.203125 44.453125 7.46875 
Q 49.3125 8.734375 54.109375 11.28125 
L 54.109375 2.78125 
Q 49.265625 0.734375 44.1875 -0.34375 
Q 39.109375 -1.421875 33.890625 -1.421875 
Q 20.796875 -1.421875 13.15625 6.1875 
Q 5.515625 13.8125 5.515625 26.8125 
Q 5.515625 40.234375 12.765625 48.109375 
Q 20.015625 56 32.328125 56 
Q 43.359375 56 49.78125 48.890625 
Q 56.203125 41.796875 56.203125 29.59375 
z
M 47.21875 32.234375 
Q 47.125 39.59375 43.09375 43.984375 
Q 39.0625 48.390625 32.421875 48.390625 
Q 24.90625 48.390625 20.390625 44.140625 
Q 15.875 39.890625 15.1875 32.171875 
z
" id="DejaVuSans-101"/>
      <path d="M 48.78125 52.59375 
L 48.78125 44.1875 
Q 44.96875 46.296875 41.140625 47.34375 
Q 37.3125 48.390625 33.40625 48.390625 
Q 24.65625 48.390625 19.8125 42.84375 
Q 14.984375 37.3125 14.984375 27.296875 
Q 14.984375 17.28125 19.8125 11.734375 
Q 24.65625 6.203125 33.40625 6.203125 
Q 37.3125 6.203125 41.140625 7.25 
Q 44.96875 8.296875 48.78125 10.40625 
L 48.78125 2.09375 
Q 45.015625 0.34375 40.984375 -0.53125 
Q 36.96875 -1.421875 32.421875 -1.421875 
Q 20.0625 -1.421875 12.78125 6.34375 
Q 5.515625 14.109375 5.515625 27.296875 
Q 5.515625 40.671875 12.859375 48.328125 
Q 20.21875 56 33.015625 56 
Q 37.15625 56 41.109375 55.140625 
Q 45.0625 54.296875 48.78125 52.59375 
z
" id="DejaVuSans-99"/>
      <path d="M 34.28125 27.484375 
Q 23.390625 27.484375 19.1875 25 
Q 14.984375 22.515625 14.984375 16.5 
Q 14.984375 11.71875 18.140625 8.90625 
Q 21.296875 6.109375 26.703125 6.109375 
Q 34.1875 6.109375 38.703125 11.40625 
Q 43.21875 16.703125 43.21875 25.484375 
L 43.21875 27.484375 
z
M 52.203125 31.203125 
L 52.203125 0 
L 43.21875 0 
L 43.21875 8.296875 
Q 40.140625 3.328125 35.546875 0.953125 
Q 30.953125 -1.421875 24.3125 -1.421875 
Q 15.921875 -1.421875 10.953125 3.296875 
Q 6 8.015625 6 15.921875 
Q 6 25.140625 12.171875 29.828125 
Q 18.359375 34.515625 30.609375 34.515625 
L 43.21875 34.515625 
L 43.21875 35.40625 
Q 43.21875 41.609375 39.140625 45 
Q 35.0625 48.390625 27.6875 48.390625 
Q 23 48.390625 18.546875 47.265625 
Q 14.109375 46.140625 10.015625 43.890625 
L 10.015625 52.203125 
Q 14.9375 54.109375 19.578125 55.046875 
Q 24.21875 56 28.609375 56 
Q 40.484375 56 46.34375 49.84375 
Q 52.203125 43.703125 52.203125 31.203125 
z
" id="DejaVuSans-97"/>
      <path d="M 9.421875 75.984375 
L 18.40625 75.984375 
L 18.40625 0 
L 9.421875 0 
z
" id="DejaVuSans-108"/>
     </defs>
     <g transform="translate(280.060937 412.756563)scale(0.1 -0.1)">
      <use xlink:href="#DejaVuSans-82"/>
      <use x="69.419922" xlink:href="#DejaVuSans-101"/>
      <use x="130.943359" xlink:href="#DejaVuSans-99"/>
      <use x="185.923828" xlink:href="#DejaVuSans-97"/>
      <use x="247.203125" xlink:href="#DejaVuSans-108"/>
      <use x="274.986328" xlink:href="#DejaVuSans-108"/>
     </g>
    </g>
   </g>
   <g id="matplotlib.axis_2">
    <g id="ytick_1">
     <g id="line2d_13">
      <path clip-path="url(#pe102cccd35)" d="M 72 384.48 
L 518.4 384.48 
" style="fill:none;stroke:#b0b0b0;stroke-linecap:square;stroke-width:0.8;"/>
     </g>
     <g id="line2d_14">
      <defs>
       <path d="M 0 0 
L -3.5 0 
" id="me141328cc4" style="stroke:#000000;stroke-width:0.8;"/>
      </defs>
      <g>
       <use style="stroke:#000000;stroke-width:0.8;" x="72" xlink:href="#me141328cc4" y="384.48"/>
      </g>
     </g>
     <g id="text_8">
      <!-- 0.0 -->
      <g transform="translate(49.096875 388.279219)scale(0.1 -0.1)">
       <use xlink:href="#DejaVuSans-48"/>
       <use x="63.623047" xlink:href="#DejaVuSans-46"/>
       <use x="95.410156" xlink:href="#DejaVuSans-48"/>
      </g>
     </g>
    </g>
    <g id="ytick_2">
     <g id="line2d_15">
      <path clip-path="url(#pe102cccd35)" d="M 72 317.952 
L 518.4 317.952 
" style="fill:none;stroke:#b0b0b0;stroke-linecap:square;stroke-width:0.8;"/>
     </g>
     <g id="line2d_16">
      <g>
       <use style="stroke:#000000;stroke-width:0.8;" x="72" xlink:href="#me141328cc4" y="317.952"/>
      </g>
     </g>
     <g id="text_9">
      <!-- 0.2 -->
      <g transform="translate(49.096875 321.751219)scale(0.1 -0.1)">
       <use xlink:href="#DejaVuSans-48"/>
       <use x="63.623047" xlink:href="#DejaVuSans-46"/>
       <use x="95.410156" xlink:href="#DejaVuSans-50"/>
      </g>
     </g>
    </g>
    <g id="ytick_3">
     <g id="line2d_17">
      <path clip-path="url(#pe102cccd35)" d="M 72 251.424 
L 518.4 251.424 
" style="fill:none;stroke:#b0b0b0;stroke-linecap:square;stroke-width:0.8;"/>
     </g>
     <g id="line2d_18">
      <g>
       <use style="stroke:#000000;stroke-width:0.8;" x="72" xlink:href="#me141328cc4" y="251.424"/>
      </g>
     </g>
     <g id="text_10">
      <!-- 0.4 -->
      <g transform="translate(49.096875 255.223219)scale(0.1 -0.1)">
       <use xlink:href="#DejaVuSans-48"/>
       <use x="63.623047" xlink:href="#DejaVuSans-46"/>
       <use x="95.410156" xlink:href="#DejaVuSans-52"/>
      </g>
     </g>
    </g>
    <g id="ytick_4">
     <g id="line2d_19">
      <path clip-path="url(#pe102cccd35)" d="M 72 184.896 
L 518.4 184.896 
" style="fill:none;stroke:#b0b0b0;stroke-linecap:square;stroke-width:0.8;"/>
     </g>
     <g id="line2d_20">
      <g>
       <use style="stroke:#000000;stroke-width:0.8;" x="72" xlink:href="#me141328cc4" y="184.896"/>
      </g>
     </g>
     <g id="text_11">
      <!-- 0.6 -->
      <g transform="translate(49.096875 188.695219)scale(0.1 -0.1)">
       <use xlink:href="#DejaVuSans-48"/>
       <use x="63.623047" xlink:href="#DejaVuSans-46"/>
       <use x="95.410156" xlink:href="#DejaVuSans-54"/>
      </g>
     </g>
    </g>
    <g id="ytick_5">
     <g id="line2d_21">
      <path clip-path="url(#pe102cccd35)" d="M 72 118.368 
L 518.4 118.368 
" style="fill:none;stroke:#b0b0b0;stroke-linecap:square;stroke-width:0.8;"/>
     </g>
     <g id="line2d_22">
      <g>
       <use style="stroke:#000000;stroke-width:0.8;" x="72" xlink:href="#me141328cc4" y="118.368"/>
      </g>
     </g>
     <g id="text_12">
      <!-- 0.8 -->
      <g transform="translate(49.096875 122.167219)scale(0.1 -0.1)">
       <use xlink:href="#DejaVuSans-48"/>
       <use x="63.623047" xlink:href="#DejaVuSans-46"/>
       <use x="95.410156" xlink:href="#DejaVuSans-56"/>
      </g>
     </g>
    </g>
    <g id="ytick_6">
     <g id="line2d_23">
      <path clip-path="url(#pe102cccd35)" d="M 72 51.84 
L 518.4 51.84 
" style="fill:none;stroke:#b0b0b0;stroke-linecap:square;stroke-width:0.8;"/>
     </g>
     <g id="line2d_24">
      <g>
       <use style="stroke:#000000;stroke-width:0.8;" x="72" xlink:href="#me141328cc4" y="51.84"/>
      </g>
     </g>
     <g id="text_13">
      <!-- 1.0 -->
      <g transform="translate(49.096875 55.639219)scale(0.1 -0.1)">
       <use xlink:href="#DejaVuSans-49"/>
       <use x="63.623047" xlink:href="#DejaVuSans-46"/>
       <use x="95.410156" xlink:href="#DejaVuSans-48"/>
      </g>
     </g>
    </g>
    <g id="text_14">
     <!-- Precision -->
     <defs>
      <path d="M 19.671875 64.796875 
L 19.671875 37.40625 
L 32.078125 37.40625 
Q 38.96875 37.40625 42.71875 40.96875 
Q 46.484375 44.53125 46.484375 51.125 
Q 46.484375 57.671875 42.71875 61.234375 
Q 38.96875 64.796875 32.078125 64.796875 
z
M 9.8125 72.90625 
L 32.078125 72.90625 
Q 44.34375 72.90625 50.609375 67.359375 
Q 56.890625 61.8125 56.890625 51.125 
Q 56.890625 40.328125 50.609375 34.8125 
Q 44.34375 29.296875 32.078125 29.296875 
L 19.671875 29.296875 
L 19.671875 0 
L 9.8125 0 
z
" id="DejaVuSans-80"/>
      <path d="M 41.109375 46.296875 
Q 39.59375 47.171875 37.8125 47.578125 
Q 36.03125 48 33.890625 48 
Q 26.265625 48 22.1875 43.046875 
Q 18.109375 38.09375 18.109375 28.8125 
L 18.109375 0 
L 9.078125 0 
L 9.078125 54.6875 
L 18.109375 54.6875 
L 18.109375 46.1875 
Q 20.953125 51.171875 25.484375 53.578125 
Q 30.03125 56 36.53125 56 
Q 37.453125 56 38.578125 55.875 
Q 39.703125 55.765625 41.0625 55.515625 
z
" id="DejaVuSans-114"/>
      <path d="M 9.421875 54.6875 
L 18.40625 54.6875 
L 18.40625 0 
L 9.421875 0 
z
M 9.421875 75.984375 
L 18.40625 75.984375 
L 18.40625 64.59375 
L 9.421875 64.59375 
z
" id="DejaVuSans-105"/>
      <path d="M 44.28125 53.078125 
L 44.28125 44.578125 
Q 40.484375 46.53125 36.375 47.5 
Q 32.28125 48.484375 27.875 48.484375 
Q 21.1875 48.484375 17.84375 46.4375 
Q 14.5 44.390625 14.5 40.28125 
Q 14.5 37.15625 16.890625 35.375 
Q 19.28125 33.59375 26.515625 31.984375 
L 29.59375 31.296875 
Q 39.15625 29.25 43.1875 25.515625 
Q 47.21875 21.78125 47.21875 15.09375 
Q 47.21875 7.46875 41.1875 3.015625 
Q 35.15625 -1.421875 24.609375 -1.421875 
Q 20.21875 -1.421875 15.453125 -0.5625 
Q 10.6875 0.296875 5.421875 2 
L 5.421875 11.28125 
Q 10.40625 8.6875 15.234375 7.390625 
Q 20.0625 6.109375 24.8125 6.109375 
Q 31.15625 6.109375 34.5625 8.28125 
Q 37.984375 10.453125 37.984375 14.40625 
Q 37.984375 18.0625 35.515625 20.015625 
Q 33.0625 21.96875 24.703125 23.78125 
L 21.578125 24.515625 
Q 13.234375 26.265625 9.515625 29.90625 
Q 5.8125 33.546875 5.8125 39.890625 
Q 5.8125 47.609375 11.28125 51.796875 
Q 16.75 56 26.8125 56 
Q 31.78125 56 36.171875 55.265625 
Q 40.578125 54.546875 44.28125 53.078125 
z
" id="DejaVuSans-115"/>
      <path d="M 30.609375 48.390625 
Q 23.390625 48.390625 19.1875 42.75 
Q 14.984375 37.109375 14.984375 27.296875 
Q 14.984375 17.484375 19.15625 11.84375 
Q 23.34375 6.203125 30.609375 6.203125 
Q 37.796875 6.203125 41.984375 11.859375 
Q 46.1875 17.53125 46.1875 27.296875 
Q 46.1875 37.015625 41.984375 42.703125 
Q 37.796875 48.390625 30.609375 48.390625 
z
M 30.609375 56 
Q 42.328125 56 49.015625 48.375 
Q 55.71875 40.765625 55.71875 27.296875 
Q 55.71875 13.875 49.015625 6.21875 
Q 42.328125 -1.421875 30.609375 -1.421875 
Q 18.84375 -1.421875 12.171875 6.21875 
Q 5.515625 13.875 5.515625 27.296875 
Q 5.515625 40.765625 12.171875 48.375 
Q 18.84375 56 30.609375 56 
z
" id="DejaVuSans-111"/>
      <path d="M 54.890625 33.015625 
L 54.890625 0 
L 45.90625 0 
L 45.90625 32.71875 
Q 45.90625 40.484375 42.875 44.328125 
Q 39.84375 48.1875 33.796875 48.1875 
Q 26.515625 48.1875 22.3125 43.546875 
Q 18.109375 38.921875 18.109375 30.90625 
L 18.109375 0 
L 9.078125 0 
L 9.078125 54.6875 
L 18.109375 54.6875 
L 18.109375 46.1875 
Q 21.34375 51.125 25.703125 53.5625 
Q 30.078125 56 35.796875 56 
Q 45.21875 56 50.046875 50.171875 
Q 54.890625 44.34375 54.890625 33.015625 
z
" id="DejaVuSans-110"/>
     </defs>
     <g transform="translate(43.017187 240.664687)rotate(-90)scale(0.1 -0.1)">
      <use xlink:href="#DejaVuSans-80"/>
      <use x="60.287109" xlink:href="#DejaVuSans-114"/>
      <use x="101.369141" xlink:href="#DejaVuSans-101"/>
      <use x="162.892578" xlink:href="#DejaVuSans-99"/>
      <use x="217.873047" xlink:href="#DejaVuSans-105"/>
      <use x="245.65625" xlink:href="#DejaVuSans-115"/>
      <use x="297.755859" xlink:href="#DejaVuSans-105"/>
      <use x="325.539062" xlink:href="#DejaVuSans-111"/>
      <use x="386.720703" xlink:href="#DejaVuSans-110"/>
     </g>
    </g>
   </g>
   <g id="line2d_25">
    <path clip-path="url(#pe102cccd35)" d="M 72.238589 51.84 
L 91.802886 51.84 
L 91.802886 55.8 
L 92.041475 55.753412 
L 92.041475 59.575814 
L 94.665954 58.698557 
L 98.0062 57.833514 
L 99.437734 57.526154 
L 99.437734 60.296949 
L 103.016569 59.343158 
L 103.732336 59.177647 
L 103.732336 61.552117 
L 107.549759 60.536471 
L 111.128594 59.76 
L 111.128594 61.68142 
L 112.08295 61.453873 
L 112.08295 63.310345 
L 112.560128 63.18 
L 112.560128 64.995254 
L 113.514484 64.70453 
L 113.514484 66.461538 
L 117.570497 65.212462 
L 122.103688 64.046972 
L 125.205345 63.36 
L 125.205345 64.744138 
L 127.114057 64.314 
L 127.114057 65.64249 
L 132.601603 64.44 
L 135.941849 63.805468 
L 135.941849 64.954839 
L 136.896205 64.76947 
L 136.896205 65.895211 
L 137.611972 65.748293 
L 137.611972 66.855 
L 143.815286 65.61172 
L 150.972956 64.410698 
L 152.165901 64.230602 
L 152.165901 65.1456 
L 152.643079 65.07 
L 152.643079 65.974844 
L 153.597435 65.816471 
L 153.597435 66.706592 
L 154.313201 66.583047 
L 154.313201 67.461215 
L 155.267557 67.290492 
L 155.267557 68.154768 
L 156.699091 67.892332 
L 156.699091 68.738824 
L 157.414858 68.60435 
L 157.414858 69.44 
L 159.800748 68.986392 
L 159.800748 70.604308 
L 160.039337 70.556317 
L 160.039337 71.357143 
L 163.379583 70.684138 
L 163.379583 71.455135 
L 164.572528 71.217087 
L 164.572528 71.975593 
L 165.765473 71.734737 
L 165.765473 72.481146 
L 168.86713 71.86 
L 168.86713 72.581986 
L 170.060075 72.345205 
L 170.060075 73.056219 
L 171.014431 72.86465 
L 171.014431 74.265169 
L 171.491609 74.164832 
L 171.491609 74.8575 
L 171.730198 74.806236 
L 171.730198 75.4944 
L 171.968787 75.441951 
L 171.968787 76.125664 
L 178.887867 74.661455 
L 178.887867 75.304232 
L 179.365045 75.207273 
L 179.365045 75.844948 
L 183.898236 74.94 
L 183.898236 75.55295 
L 185.32977 75.274521 
L 185.32977 75.878437 
L 185.806948 75.784903 
L 185.806948 76.981395 
L 187.477071 76.644895 
L 187.477071 77.232366 
L 188.192838 77.087818 
L 188.192838 77.67 
L 189.862961 77.332037 
L 189.862961 77.905075 
L 190.340139 77.808178 
L 190.340139 78.377143 
L 191.771673 78.084991 
L 191.771673 78.646154 
L 192.010262 78.597148 
L 192.010262 79.155328 
L 192.726029 79.006606 
L 192.726029 79.56 
L 193.441796 79.410162 
L 193.441796 80.505566 
L 193.918974 80.403005 
L 193.918974 80.946 
L 194.157563 80.894118 
L 194.157563 81.972575 
L 196.066275 81.550403 
L 196.066275 82.08 
L 197.020631 81.87 
L 197.020631 82.394454 
L 199.406521 81.873935 
L 199.406521 82.388571 
L 200.122288 82.233503 
L 200.122288 82.744054 
L 200.360877 82.691939 
L 200.360877 83.2 
L 201.076644 83.042412 
L 201.076644 84.048881 
L 202.030999 83.835224 
L 202.030999 84.829091 
L 202.269588 84.774653 
L 202.269588 85.268402 
L 203.462533 84.995294 
L 203.462533 85.48385 
L 204.1783 85.32 
L 204.1783 85.804862 
L 204.894067 85.640516 
L 204.894067 86.601415 
L 205.371245 86.49 
L 205.371245 86.966784 
L 206.087012 86.798981 
L 206.087012 87.272242 
L 206.325601 87.216 
L 206.325601 87.6871 
L 206.802779 87.573839 
L 206.802779 88.042145 
L 207.041368 87.985134 
L 207.041368 88.916044 
L 207.279957 88.857931 
L 207.279957 89.320563 
L 207.518546 89.262 
L 207.518546 89.722559 
L 207.995724 89.604728 
L 207.995724 90.062609 
L 209.665847 89.651613 
L 209.665847 90.103804 
L 210.143025 89.986789 
L 210.143025 90.436397 
L 211.097381 90.202124 
L 211.097381 90.648 
L 211.813148 90.472398 
L 211.813148 90.915181 
L 212.290326 90.797838 
L 212.290326 91.238141 
L 212.528915 91.179162 
L 212.528915 91.617578 
L 213.006093 91.499016 
L 213.006093 91.935 
L 213.72186 91.7568 
L 213.72186 92.621566 
L 214.437627 92.441647 
L 214.437627 93.724392 
L 215.153394 93.541224 
L 215.153394 94.386977 
L 216.10775 94.14104 
L 216.10775 95.809655 
L 216.584928 95.683668 
L 216.584928 96.096824 
L 217.062106 95.970556 
L 217.062106 96.381538 
L 217.300695 96.318179 
L 217.300695 96.7275 
L 217.539284 96.66383 
L 217.539284 97.071501 
L 217.777873 97.007525 
L 217.777873 98.222197 
L 218.49364 98.027041 
L 218.49364 98.828308 
L 219.209407 98.631978 
L 219.209407 99.426 
L 220.87953 98.967813 
L 220.87953 99.36 
L 221.356708 99.229808 
L 221.356708 99.620027 
L 221.833886 99.489659 
L 221.833886 99.877929 
L 222.072475 99.812571 
L 222.072475 100.199348 
L 222.549653 100.068293 
L 222.549653 100.453153 
L 223.026831 100.321943 
L 223.026831 101.086837 
L 223.26542 101.020645 
L 223.26542 101.78059 
L 223.742598 101.647059 
L 223.742598 102.024673 
L 224.219776 101.891025 
L 224.219776 102.266809 
L 224.458365 102.199841 
L 224.458365 102.947603 
L 225.174131 102.74533 
L 225.174131 103.855979 
L 225.41272 103.787717 
L 225.41272 104.155596 
L 225.651309 104.08712 
L 225.651309 104.819217 
L 225.889898 104.750143 
L 225.889898 105.114375 
L 226.367076 104.976 
L 226.367076 105.700104 
L 227.082843 105.491613 
L 227.082843 105.851134 
L 228.275788 105.505352 
L 228.275788 105.862097 
L 229.230144 105.587176 
L 229.230144 105.94155 
L 229.468733 105.872893 
L 229.468733 106.226008 
L 229.707322 106.157165 
L 229.707322 106.86 
L 229.945911 106.790618 
L 229.945911 107.140353 
L 230.1845 107.070792 
L 230.1845 108.8046 
L 231.138856 108.521194 
L 231.138856 109.205955 
L 231.616034 109.06396 
L 231.616034 109.4044 
L 231.854623 109.333333 
L 231.854623 110.011034 
L 232.331801 109.868108 
L 232.331801 110.205055 
L 232.808979 110.062179 
L 232.808979 110.397653 
L 234.240513 109.971262 
L 234.240513 110.304 
L 234.479102 110.23322 
L 234.479102 110.564837 
L 234.717691 110.493913 
L 234.717691 111.15412 
L 235.194869 111.011538 
L 235.194869 111.667338 
L 235.433458 111.595689 
L 235.433458 112.572601 
L 235.672047 112.500215 
L 235.672047 112.824 
L 235.910636 112.751486 
L 235.910636 113.074204 
L 236.626403 112.856805 
L 236.626403 113.177872 
L 236.864992 113.105455 
L 236.864992 113.425472 
L 237.34217 113.280565 
L 237.34217 113.599248 
L 238.057937 113.382295 
L 238.057937 114.960279 
L 238.296526 114.886884 
L 238.296526 116.135 
L 238.535115 116.060671 
L 238.535115 116.988387 
L 238.773704 116.913418 
L 238.773704 120.258 
L 239.012293 120.180341 
L 239.012293 120.48 
L 239.250882 120.402265 
L 239.250882 120.700995 
L 239.72806 120.545553 
L 239.72806 121.14 
L 240.921005 120.751982 
L 240.921005 121.04698 
L 241.159594 120.969654 
L 241.159594 121.557191 
L 241.398183 121.479555 
L 241.398183 122.064 
L 241.636772 121.98606 
L 241.636772 122.277073 
L 241.875361 122.19907 
L 241.875361 122.778696 
L 243.068306 122.388923 
L 243.068306 122.676619 
L 244.261251 122.289956 
L 244.261251 123.429913 
L 244.49984 123.352182 
L 244.49984 123.635401 
L 245.215607 123.402551 
L 245.215607 123.965825 
L 245.454196 123.888103 
L 245.454196 124.168611 
L 248.794441 123.094804 
L 248.794441 123.371695 
L 249.03303 123.296 
L 249.03303 124.122532 
L 249.510208 123.970358 
L 249.510208 124.79043 
L 249.748797 124.713962 
L 249.748797 125.528276 
L 249.987386 125.451357 
L 249.987386 126.259979 
L 250.464564 126.105421 
L 250.464564 127.174188 
L 250.941742 127.0187 
L 250.941742 127.549001 
L 251.180331 127.471111 
L 251.180331 127.99885 
L 251.41892 127.920738 
L 251.41892 128.183607 
L 251.657509 128.105466 
L 251.657509 128.367607 
L 251.896098 128.289438 
L 251.896098 129.331923 
L 252.373276 129.174579 
L 252.373276 129.433509 
L 252.611865 129.354894 
L 252.611865 129.870819 
L 252.850454 129.792 
L 252.850454 130.56145 
L 253.566221 130.324337 
L 253.566221 130.833667 
L 254.281988 130.596923 
L 254.281988 130.850299 
L 254.520577 130.771525 
L 254.520577 131.024223 
L 255.236344 130.788322 
L 255.236344 131.291179 
L 255.713522 131.134006 
L 255.713522 132.876071 
L 256.1907 132.717176 
L 256.1907 133.209863 
L 256.429289 133.130323 
L 256.429289 133.865263 
L 256.667878 133.785394 
L 256.667878 134.029261 
L 257.145056 133.86967 
L 257.145056 134.112745 
L 257.622234 133.953456 
L 257.622234 134.195745 
L 258.815179 133.799423 
L 258.815179 134.281037 
L 259.053768 134.201919 
L 259.053768 134.920421 
L 260.008124 134.603622 
L 260.008124 135.552821 
L 260.723891 135.315 
L 260.723891 136.489199 
L 260.96248 136.409492 
L 260.96248 138.033901 
L 262.394014 137.552819 
L 262.394014 138.24 
L 262.632603 138.159926 
L 262.632603 138.615652 
L 262.871192 138.535453 
L 262.871192 139.215484 
L 263.109781 139.135028 
L 263.109781 139.586029 
L 263.586959 139.425028 
L 263.586959 139.873846 
L 265.495671 139.2336 
L 265.495671 139.456349 
L 265.73426 139.376842 
L 265.73426 140.042281 
L 266.211438 139.882927 
L 266.211438 140.544 
L 266.927205 140.304906 
L 266.927205 140.96129 
L 267.404383 140.80186 
L 267.404383 141.237 
L 267.881561 141.077647 
L 267.881561 141.29439 
L 268.835917 140.976894 
L 268.835917 142.266408 
L 269.074506 142.186667 
L 269.074506 143.883993 
L 269.551684 143.723077 
L 269.551684 144.143246 
L 269.790273 144.062772 
L 269.790273 144.89828 
L 270.028862 144.8175 
L 270.028862 145.646782 
L 270.267451 145.565704 
L 270.267451 146.183586 
L 271.460396 145.778678 
L 271.460396 145.983396 
L 271.937573 145.822192 
L 271.937573 146.230154 
L 272.176162 146.149547 
L 272.176162 146.555908 
L 272.414751 146.47523 
L 272.414751 146.677787 
L 272.65334 146.597143 
L 272.65334 146.799252 
L 273.130518 146.638168 
L 273.130518 147.040948 
L 273.607696 146.88 
L 273.607696 147.281013 
L 273.846285 147.20054 
L 273.846285 147.400438 
L 274.084874 147.32 
L 274.084874 148.115839 
L 274.562052 147.954573 
L 274.562052 148.744307 
L 274.800641 148.663486 
L 274.800641 148.86 
L 275.03923 148.779217 
L 275.03923 151.303196 
L 275.277819 151.221333 
L 275.277819 151.795862 
L 275.754997 151.632 
L 275.754997 152.203173 
L 275.993586 152.121176 
L 275.993586 152.310857 
L 276.232175 152.228907 
L 276.232175 152.607166 
L 276.470764 152.525175 
L 276.470764 153.652081 
L 276.947942 153.48747 
L 276.947942 153.674055 
L 277.186531 153.591864 
L 277.186531 153.778065 
L 277.42512 153.695923 
L 277.42512 154.990385 
L 278.140887 154.743022 
L 278.140887 155.475251 
L 278.379476 155.392739 
L 278.379476 155.938618 
L 278.618065 155.856 
L 278.618065 156.037304 
L 279.095243 155.872304 
L 279.095243 156.053165 
L 279.333832 155.970783 
L 279.333832 156.15128 
L 279.572421 156.06895 
L 279.572421 156.428936 
L 279.81101 156.346583 
L 279.81101 156.705283 
L 280.526777 156.458541 
L 280.526777 157.526557 
L 280.765366 157.444119 
L 280.765366 158.501739 
L 281.242544 158.336372 
L 281.242544 158.861067 
L 281.719722 158.695784 
L 281.719722 158.87 
L 281.958311 158.787479 
L 281.958311 159.134965 
L 282.1969 159.052431 
L 282.1969 159.39871 
L 282.435489 159.316163 
L 282.435489 159.833384 
L 282.674078 159.750757 
L 282.674078 160.947945 
L 282.912667 160.864973 
L 282.912667 161.543108 
L 283.151256 161.46 
L 283.151256 161.628827 
L 283.389845 161.545779 
L 283.389845 161.714286 
L 283.867023 161.548438 
L 283.867023 161.716561 
L 284.344201 161.551084 
L 284.344201 161.718826 
L 284.58279 161.636211 
L 284.58279 162.137734 
L 284.821379 162.055052 
L 284.821379 163.216107 
L 285.059968 163.133115 
L 285.059968 163.790906 
L 285.298557 163.707795 
L 285.298557 163.871573 
L 285.537146 163.788525 
L 285.537146 164.278225 
L 286.014324 164.112142 
L 286.014324 166.526691 
L 287.445858 166.02624 
L 287.445858 166.817739 
L 287.684447 166.734482 
L 287.684447 167.206474 
L 287.923036 167.123177 
L 287.923036 167.592968 
L 288.161625 167.509633 
L 288.161625 168.287862 
L 288.400214 168.204387 
L 288.400214 169.130621 
L 288.877392 168.963421 
L 288.877392 169.116923 
L 289.115981 169.033452 
L 289.115981 169.339701 
L 289.35457 169.25625 
L 289.35457 169.561532 
L 289.593159 169.478101 
L 289.593159 169.630368 
L 289.831748 169.547006 
L 289.831748 169.69901 
L 290.070337 169.615717 
L 290.070337 169.767458 
L 290.308926 169.684234 
L 290.308926 170.890105 
L 290.547515 170.80662 
L 290.547515 171.404308 
L 291.024693 171.237318 
L 291.024693 171.683122 
L 291.263282 171.599666 
L 291.263282 171.747808 
L 291.501871 171.664423 
L 291.501871 172.695363 
L 291.979049 172.528321 
L 291.979049 172.82087 
L 292.456227 172.654114 
L 292.456227 172.8 
L 292.694816 172.716752 
L 292.694816 172.862393 
L 292.933405 172.779216 
L 292.933405 174.51092 
L 293.171994 174.427357 
L 293.171994 174.570347 
L 293.410583 174.486857 
L 293.410583 174.772174 
L 293.649172 174.688717 
L 293.649172 174.97318 
L 293.887761 174.889756 
L 293.887761 175.173369 
L 294.364939 175.006703 
L 294.364939 175.430452 
L 294.603528 175.34717 
L 294.603528 175.769092 
L 295.080706 175.602633 
L 295.080706 176.022627 
L 295.319294 175.939451 
L 295.319294 176.496673 
L 295.557883 176.413458 
L 295.557883 177.105629 
L 296.035061 176.939163 
L 296.035061 177.763283 
L 296.27365 177.68 
L 296.27365 177.816682 
L 296.512239 177.733474 
L 296.512239 178.278261 
L 296.750828 178.195023 
L 296.750828 179.006636 
L 297.228006 178.840079 
L 297.228006 178.97466 
L 297.466595 178.891511 
L 297.466595 179.294099 
L 297.705184 179.210959 
L 297.705184 179.611875 
L 298.182362 179.445722 
L 298.182362 180.901743 
L 298.420951 180.818477 
L 298.420951 181.2119 
L 298.65954 181.128649 
L 298.65954 182.428849 
L 299.136718 182.262069 
L 299.136718 182.52 
L 299.375307 182.436711 
L 299.375307 182.693927 
L 299.613896 182.610687 
L 299.613896 183.123046 
L 300.091074 182.956654 
L 300.091074 183.084281 
L 300.568252 182.918254 
L 300.568252 183.426927 
L 300.806841 183.34396 
L 300.806841 183.470699 
L 301.04543 183.387809 
L 301.04543 184.521077 
L 301.284019 184.438048 
L 301.284019 185.68209 
L 301.522608 185.598906 
L 301.522608 186.337783 
L 301.761197 186.254554 
L 301.761197 186.865984 
L 301.999786 186.782737 
L 301.999786 190.490309 
L 302.476964 190.44 
L 302.476964 191.256765 
L 303.192731 191.121776 
L 303.192731 191.469126 
L 303.43132 191.385566 
L 303.43132 191.501053 
L 303.43132 191.961623 
L 304.385676 191.742725 
L 304.385676 192.428216 
L 304.862854 192.375479 
L 304.862854 192.489083 
L 305.101443 192.405957 
L 305.101443 192.519409 
L 305.101443 193.084664 
L 305.340032 193.00153 
L 305.340032 193.114165 
L 305.340032 193.339036 
L 305.578621 193.255948 
L 305.578621 193.368169 
L 305.578621 194.593959 
L 306.055799 194.5383 
L 306.055799 194.979512 
L 307.010155 194.647787 
L 307.010155 194.757707 
L 307.010155 195.523599 
L 307.248744 195.440784 
L 307.248744 195.549677 
L 307.248744 195.767089 
L 307.487333 195.684324 
L 307.487333 195.792828 
L 307.487333 196.763774 
L 307.964511 196.705479 
L 307.964511 197.346348 
L 308.680278 197.098467 
L 308.680278 197.204813 
L 308.680278 197.945868 
L 308.918867 197.863322 
L 308.918867 197.968696 
L 308.918867 198.284104 
L 309.157456 198.2016 
L 309.157456 198.306486 
L 309.157456 198.515906 
L 309.396045 198.433457 
L 309.396045 198.537978 
L 309.396045 200.399466 
L 309.634634 200.316887 
L 309.634634 200.4192 
L 309.634634 201.233628 
L 310.111812 201.068552 
L 310.111812 201.169829 
L 310.111812 201.976031 
L 310.350401 201.893538 
L 310.350401 201.993806 
L 310.350401 202.393775 
L 310.827579 202.228966 
L 310.827579 202.328665 
L 310.827579 203.122353 
L 311.304757 203.056444 
L 311.304757 203.450201 
L 311.543346 203.367983 
L 311.543346 203.466146 
L 311.543346 204.052901 
L 311.781935 203.970713 
L 311.781935 204.068127 
L 311.781935 205.899231 
L 312.259113 205.830144 
L 312.259113 206.115527 
L 312.497702 206.033422 
L 312.497702 206.12834 
L 312.497702 207.540095 
L 312.736291 207.457975 
L 312.736291 207.551292 
L 312.736291 207.73763 
L 313.213469 207.666625 
L 313.213469 208.314971 
L 313.690647 208.243431 
L 313.690647 208.51952 
L 314.167825 208.447883 
L 314.167825 209.451695 
L 314.406414 209.370031 
L 314.406414 209.460715 
L 314.406414 210.00285 
L 314.645003 209.921238 
L 314.645003 210.011264 
L 314.645003 210.370437 
L 314.883592 210.288889 
L 314.883592 210.378447 
L 314.883592 210.646571 
L 315.122181 210.56509 
L 315.122181 210.654277 
L 315.122181 211.187485 
L 316.315126 210.781193 
L 316.315126 210.869725 
L 316.315126 212.012476 
L 316.553715 211.931417 
L 316.553715 212.018695 
L 316.553715 212.105885 
L 316.792304 212.024901 
L 316.792304 212.112 
L 316.792304 212.459516 
L 317.269482 212.384419 
L 317.269482 213.074526 
L 317.74666 212.998919 
L 317.74666 213.084702 
L 317.985249 213.00408 
L 317.985249 213.089775 
L 317.985249 213.175385 
L 318.701015 213.019501 
L 318.701015 213.700576 
L 318.939604 213.620248 
L 318.939604 213.705 
L 318.939604 214.464 
L 319.655371 214.307344 
L 319.655371 214.558583 
L 320.132549 214.482162 
L 320.132549 214.565658 
L 320.371138 214.485773 
L 320.371138 214.569185 
L 320.371138 216.13861 
L 320.848316 215.979019 
L 320.848316 216.060816 
L 320.848316 216.387209 
L 321.564083 216.229787 
L 321.564083 216.87815 
L 321.802672 216.79869 
L 321.802672 216.879384 
L 321.802672 217.602147 
L 322.041261 217.522759 
L 322.041261 217.602681 
L 322.041261 218.001146 
L 322.27985 217.921833 
L 322.27985 218.001298 
L 322.27985 219.340691 
L 322.757028 219.260416 
L 322.757028 219.33846 
L 322.995617 219.259377 
L 322.995617 219.337348 
L 322.995617 219.726102 
L 323.711384 219.489309 
L 323.711384 219.566842 
L 323.711384 219.953418 
L 323.949973 219.874639 
L 323.949973 219.951738 
L 323.949973 220.028764 
L 324.188562 219.950061 
L 324.188562 220.027016 
L 324.188562 220.25745 
L 324.427151 220.178824 
L 324.427151 220.255492 
L 324.427151 220.48507 
L 325.381507 220.247699 
L 325.381507 220.324015 
L 325.620096 220.245759 
L 325.620096 220.322006 
L 325.620096 220.398181 
L 325.858685 220.32 
L 325.858685 220.396106 
L 325.858685 220.472141 
L 326.335863 220.316 
L 326.335863 220.391967 
L 326.335863 220.543689 
L 326.574452 220.46573 
L 326.574452 220.541487 
L 326.574452 220.919226 
L 327.290219 220.761141 
L 327.290219 221.585355 
L 327.528808 221.507704 
L 327.528808 221.582222 
L 327.528808 221.879617 
L 328.244575 221.721294 
L 328.244575 222.899104 
L 328.483164 222.821772 
L 328.483164 222.894822 
L 328.483164 223.476848 
L 328.721753 223.399604 
L 328.721753 223.472065 
L 328.721753 223.689057 
L 328.960342 223.61189 
L 328.960342 223.684093 
L 328.960342 223.972258 
L 329.198931 223.895172 
L 329.198931 223.967055 
L 329.198931 224.325502 
L 329.43752 224.2485 
L 329.43752 224.32 
L 329.43752 224.889711 
L 330.391876 224.653416 
L 330.391876 225.429616 
L 330.630465 225.35301 
L 330.630465 225.423202 
L 330.630465 225.563402 
L 330.869054 225.486872 
L 330.869054 225.556882 
L 330.869054 225.836308 
L 331.346232 225.683478 
L 331.346232 225.753187 
L 331.346232 225.822835 
L 331.584821 225.746526 
L 331.584821 225.816116 
L 331.584821 226.232374 
L 332.300588 226.073086 
L 332.300588 226.142199 
L 332.539177 226.066184 
L 332.539177 226.13524 
L 332.539177 226.342046 
L 332.777766 226.26611 
L 332.777766 226.334928 
L 332.777766 226.403687 
L 333.016355 226.327823 
L 333.016355 226.396525 
L 333.016355 226.739142 
L 333.493533 226.656 
L 333.493533 227.876289 
L 333.732122 227.800704 
L 333.732122 227.867948 
L 333.732122 228.47056 
L 334.2093 228.319658 
L 334.2093 228.386336 
L 334.2093 228.718875 
L 334.447889 228.643543 
L 334.447889 228.709885 
L 334.447889 229.106752 
L 334.686478 229.031511 
L 334.686478 229.097463 
L 334.686478 229.753916 
L 334.925067 229.678784 
L 334.925067 229.744128 
L 334.925067 229.874652 
L 335.163656 229.799595 
L 335.163656 229.864779 
L 335.163656 230.189874 
L 335.402245 230.114905 
L 335.402245 230.179765 
L 335.402245 230.696683 
L 335.879423 230.547013 
L 335.879423 230.611393 
L 335.879423 230.996546 
L 336.118012 230.921835 
L 336.118012 230.985844 
L 336.118012 231.305092 
L 336.356601 231.23047 
L 336.356601 231.294165 
L 336.356601 231.928212 
L 336.59519 231.853703 
L 336.59519 231.916824 
L 336.59519 231.979893 
L 336.833779 231.905455 
L 336.833779 231.968476 
L 336.833779 232.533333 
L 337.072368 232.459005 
L 337.072368 232.521513 
L 337.072368 232.833287 
L 337.310957 232.759048 
L 337.310957 232.821255 
L 337.310957 233.193423 
L 337.549546 233.11928 
L 337.549546 233.181136 
L 337.549546 233.674167 
L 337.788135 233.60013 
L 337.788135 233.661538 
L 337.788135 234.211971 
L 338.026724 234.138046 
L 338.026724 234.198963 
L 338.026724 234.744998 
L 338.503902 234.657871 
L 338.503902 234.89913 
L 338.98108 234.812063 
L 338.98108 234.872219 
L 339.219669 234.798682 
L 339.219669 234.858795 
L 339.219669 235.218462 
L 339.696847 235.071641 
L 339.696847 235.131429 
L 339.696847 236.317205 
L 340.174025 236.229659 
L 340.174025 236.464418 
L 340.889792 236.304 
L 340.889792 236.537901 
L 341.128381 236.465041 
L 341.128381 236.523407 
L 341.128381 237.623671 
L 341.36697 237.550986 
L 341.36697 237.665864 
L 341.36697 237.780563 
L 341.605559 237.707958 
L 341.605559 237.822489 
L 341.605559 237.879688 
L 341.844148 237.807158 
L 341.844148 237.921434 
L 341.844148 238.603366 
L 342.321325 238.571707 
L 342.321325 238.79731 
L 342.559914 238.72507 
L 342.559914 238.837622 
L 342.559914 239.397785 
L 342.798503 239.325675 
L 342.798503 239.437203 
L 342.798503 239.715276 
L 343.037092 239.643266 
L 343.037092 239.754209 
L 343.037092 241.289761 
L 343.51427 241.146293 
L 343.51427 241.254756 
L 343.51427 241.633087 
L 343.752859 241.561494 
L 343.752859 241.669235 
L 343.752859 242.472144 
L 343.991448 242.400719 
L 343.991448 242.507106 
L 343.991448 242.825312 
L 344.468626 242.788512 
L 344.468626 243.733472 
L 344.707215 243.6624 
L 344.707215 243.766632 
L 344.707215 244.130233 
L 345.184393 243.988373 
L 345.184393 244.091942 
L 345.184393 244.658855 
L 345.661571 244.568713 
L 345.661571 244.62 
L 345.661571 244.773636 
L 345.90016 244.703016 
L 345.90016 244.805267 
L 345.90016 245.314286 
L 346.138749 245.243803 
L 346.138749 245.345177 
L 346.138749 246.500448 
L 346.377338 246.430198 
L 346.377338 246.529766 
L 346.377338 246.72847 
L 346.615927 246.658315 
L 346.615927 246.757468 
L 346.615927 246.856477 
L 346.854516 246.786403 
L 346.854516 246.885285 
L 346.854516 247.328504 
L 347.570283 247.216977 
L 347.570283 248.528408 
L 347.808872 248.458833 
L 347.808872 248.554995 
L 347.808872 248.651021 
L 348.047461 248.581525 
L 348.047461 248.677431 
L 348.047461 248.916604 
L 348.28605 248.847211 
L 348.28605 248.94266 
L 348.28605 249.228202 
L 348.763228 249.137173 
L 348.763228 249.184628 
L 348.763228 249.421407 
L 349.240406 249.330462 
L 349.240406 249.3777 
L 349.240406 249.613398 
L 349.717584 249.522537 
L 349.717584 249.569561 
L 349.717584 249.66351 
L 350.194762 249.525846 
L 350.194762 249.619694 
L 350.194762 249.666569 
L 350.433351 249.597832 
L 350.433351 249.6915 
L 350.433351 250.528696 
L 350.67194 250.460159 
L 350.67194 250.552554 
L 350.67194 250.966763 
L 350.910529 250.898358 
L 350.910529 250.990072 
L 350.910529 251.173123 
L 351.149118 251.104812 
L 351.149118 251.196164 
L 351.149118 251.469474 
L 351.387707 251.401271 
L 351.387707 251.492141 
L 351.387707 251.628213 
L 351.864885 251.582616 
L 351.864885 251.94375 
L 352.342063 251.89791 
L 352.342063 252.48 
L 352.819241 252.34457 
L 352.819241 252.4337 
L 352.819241 252.47822 
L 353.05783 252.410597 
L 353.05783 252.499562 
L 353.05783 252.632786 
L 353.296419 252.565247 
L 353.296419 252.653929 
L 353.296419 252.96338 
L 353.535008 252.895957 
L 353.535008 252.984121 
L 353.535008 253.160094 
L 353.773597 253.092763 
L 353.773597 253.180588 
L 353.773597 253.487056 
L 354.012186 253.41984 
L 354.012186 253.507155 
L 354.012186 253.594354 
L 354.250775 253.527215 
L 354.250775 253.614313 
L 354.250775 254.436008 
L 354.727953 254.302193 
L 354.727953 254.388119 
L 354.727953 254.559631 
L 354.966542 254.492837 
L 354.966542 254.578439 
L 354.966542 254.834571 
L 355.205131 254.767884 
L 355.205131 254.853053 
L 355.205131 255.530398 
L 355.44372 255.463898 
L 355.44372 255.548085 
L 355.44372 256.092632 
L 355.682309 256.026294 
L 355.682309 256.109679 
L 355.682309 256.483573 
L 355.920898 256.417367 
L 355.920898 256.500175 
L 355.920898 257.035827 
L 356.398076 256.985826 
L 356.398076 257.067763 
L 356.636665 257.001837 
L 356.636665 257.083685 
L 356.636665 257.410029 
L 356.875254 257.344225 
L 356.875254 257.425566 
L 356.875254 258.032321 
L 357.113843 257.966696 
L 357.113843 258.047176 
L 357.113843 258.207827 
L 357.352432 258.142293 
L 357.352432 258.222482 
L 357.352432 258.302569 
L 357.591021 258.237108 
L 357.591021 258.31711 
L 357.591021 258.755314 
L 358.306788 258.599205 
L 358.306788 258.63889 
L 358.306788 259.661989 
L 358.545377 259.597024 
L 358.545377 259.675052 
L 358.545377 259.986189 
L 358.783966 259.921346 
L 358.783966 259.998904 
L 358.783966 260.231001 
L 359.261144 260.178771 
L 359.261144 260.716539 
L 359.738322 260.587523 
L 359.738322 260.702203 
L 359.738322 261.272432 
L 359.976911 261.20813 
L 359.976911 261.321571 
L 359.976911 262.221632 
L 360.454089 262.205217 
L 360.454089 262.538896 
L 361.169856 262.458305 
L 361.169856 262.789786 
L 361.647034 262.735966 
L 361.647034 262.772658 
L 361.647034 263.174815 
L 361.885623 263.111351 
L 361.885623 263.220594 
L 361.885623 263.256965 
L 362.60139 263.175952 
L 362.60139 264.005566 
L 362.839979 263.942497 
L 362.839979 264.049896 
L 362.839979 264.192797 
L 363.078568 264.129822 
L 363.078568 264.2368 
L 363.078568 264.379142 
L 363.317157 264.31626 
L 363.317157 264.42282 
L 363.317157 264.564606 
L 363.555746 264.501818 
L 363.555746 264.607962 
L 363.555746 264.890097 
L 364.032924 264.870317 
L 364.032924 264.975638 
L 364.271513 264.913099 
L 364.271513 265.018259 
L 364.271513 265.158184 
L 364.510102 265.095738 
L 364.510102 265.200491 
L 364.510102 266.066341 
L 364.748691 266.004157 
L 364.748691 266.107239 
L 364.748691 266.347068 
L 364.98728 266.285 
L 364.98728 266.387511 
L 364.98728 266.727933 
L 365.464458 266.671995 
L 365.464458 266.705907 
L 365.464458 266.875171 
L 365.703046 266.813379 
L 365.703046 266.914729 
L 365.703046 266.948473 
L 365.941635 266.886749 
L 365.941635 266.98789 
L 365.941635 267.490996 
L 366.180224 267.429452 
L 366.180224 267.529581 
L 366.180224 267.596238 
L 366.418813 267.534769 
L 366.418813 267.634637 
L 366.418813 267.800705 
L 366.657402 267.739335 
L 366.657402 267.838773 
L 366.657402 268.628223 
L 366.895991 268.567105 
L 366.895991 268.665059 
L 366.895991 270.082938 
L 367.13458 270.022231 
L 367.13458 270.117665 
L 367.13458 270.212941 
L 367.373169 270.152315 
L 367.373169 270.247456 
L 367.373169 270.594956 
L 367.611758 270.534476 
L 367.611758 270.628906 
L 367.611758 270.75457 
L 367.850347 270.694179 
L 367.850347 270.788269 
L 367.850347 270.819598 
L 368.088936 270.759273 
L 368.088936 270.853179 
L 368.088936 271.10284 
L 368.327525 271.042636 
L 368.327525 271.136 
L 368.327525 271.322268 
L 368.566114 271.262169 
L 368.566114 271.355097 
L 368.566114 271.571338 
L 368.804703 271.511351 
L 368.804703 271.603797 
L 368.804703 272.610803 
L 369.043292 272.551135 
L 369.043292 272.641815 
L 369.043292 272.792621 
L 369.281881 272.733049 
L 369.281881 272.823362 
L 369.281881 272.853434 
L 369.52047 272.793926 
L 369.52047 272.884068 
L 369.52047 273.153623 
L 369.997648 273.124503 
L 369.997648 273.333034 
L 370.236237 273.273795 
L 370.236237 273.36295 
L 370.236237 273.718146 
L 370.713415 273.6 
L 370.713415 273.688492 
L 370.713415 273.835664 
L 370.952004 273.776701 
L 370.952004 273.864841 
L 370.952004 274.069955 
L 371.190593 274.011102 
L 371.190593 274.098799 
L 371.190593 274.824227 
L 371.429182 274.765624 
L 371.429182 274.852059 
L 371.429182 275.139193 
L 371.667771 275.080723 
L 371.667771 275.166593 
L 371.667771 275.9616 
L 371.90636 275.903402 
L 371.90636 276.016062 
L 371.90636 276.63154 
L 372.144949 276.573574 
L 372.144949 276.68476 
L 372.144949 277.811348 
L 372.383538 277.753761 
L 372.383538 277.862444 
L 372.383538 277.943811 
L 372.622127 277.886307 
L 372.622127 277.994634 
L 372.622127 278.291401 
L 372.860716 278.234043 
L 372.860716 278.341579 
L 372.860716 278.448898 
L 373.099305 278.39163 
L 373.099305 278.498763 
L 373.099305 278.60568 
L 373.337894 278.548502 
L 373.337894 278.655234 
L 373.337894 278.894597 
L 373.576483 278.837548 
L 373.576483 278.943614 
L 373.576483 279.418291 
L 374.053661 279.357124 
L 374.053661 279.409581 
L 374.053661 280.37067 
L 374.29225 280.314187 
L 374.29225 280.417067 
L 374.29225 280.673379 
L 374.530839 280.61703 
L 374.530839 280.719232 
L 374.530839 281.554788 
L 375.008017 281.467857 
L 375.008017 281.543158 
L 375.008017 281.668416 
L 375.246606 281.612496 
L 375.246606 281.712513 
L 375.246606 281.98656 
L 375.485195 281.93078 
L 375.485195 282.030102 
L 375.485195 283.037161 
L 375.723784 282.981745 
L 375.723784 283.078966 
L 375.723784 283.44189 
L 376.200962 283.403737 
L 376.200962 283.42782 
L 376.200962 283.763781 
L 376.439551 283.708718 
L 376.439551 283.804326 
L 376.439551 283.971205 
L 376.916729 283.908928 
L 376.916729 283.956491 
L 376.916729 283.980255 
L 377.393907 283.870548 
L 377.393907 283.965552 
L 377.393907 284.084056 
L 377.632496 284.029307 
L 377.632496 284.123938 
L 377.632496 284.218391 
L 377.871085 284.163726 
L 377.871085 284.258031 
L 377.871085 284.982921 
L 378.109674 284.928537 
L 378.109674 285.021338 
L 378.109674 286.392866 
L 378.348263 286.338971 
L 378.348263 286.451595 
L 378.348263 286.474089 
L 378.586852 286.420262 
L 378.586852 286.532612 
L 378.586852 286.689472 
L 378.825441 286.635755 
L 378.825441 286.747526 
L 378.825441 287.103483 
L 379.06403 287.049941 
L 379.06403 287.160682 
L 379.06403 287.337345 
L 379.302619 287.28392 
L 379.302619 287.394045 
L 379.302619 288.201276 
L 379.541208 288.148173 
L 379.541208 288.256266 
L 379.541208 288.450222 
L 379.779797 288.397241 
L 379.779797 288.504692 
L 379.779797 288.782944 
L 380.018386 288.730114 
L 380.018386 288.836739 
L 380.018386 288.985617 
L 380.256975 288.932895 
L 380.256975 289.038987 
L 380.256975 289.208247 
L 380.495564 289.155638 
L 380.495564 289.261156 
L 380.495564 289.387468 
L 380.972742 289.345548 
L 380.972742 289.38755 
L 380.972742 289.408537 
L 381.44992 289.303719 
L 381.44992 289.408585 
L 381.44992 290.444673 
L 382.642865 290.246475 
L 382.642865 290.287464 
L 382.642865 290.817093 
L 382.881454 290.765423 
L 382.881454 290.866626 
L 382.881454 290.907047 
L 383.120043 290.855446 
L 383.120043 290.956378 
L 383.120043 291.036967 
L 383.358632 290.985449 
L 383.358632 291.086024 
L 383.358632 291.823607 
L 383.597221 291.772394 
L 383.597221 291.871209 
L 383.597221 292.048545 
L 383.83581 291.997447 
L 383.83581 292.095708 
L 383.83581 292.272051 
L 384.074399 292.221069 
L 384.074399 292.31878 
L 384.074399 292.513583 
L 384.312988 292.462722 
L 384.312988 292.559848 
L 384.312988 292.579249 
L 385.028755 292.523894 
L 385.028755 293.368585 
L 385.267344 293.318172 
L 385.267344 293.413211 
L 385.267344 293.4891 
L 385.744522 293.46427 
L 385.744522 293.483204 
L 385.744522 293.558861 
L 385.983111 293.508628 
L 385.983111 293.621918 
L 385.983111 293.791324 
L 386.460289 293.803781 
L 386.460289 293.860008 
L 386.698878 293.809994 
L 386.698878 293.922279 
L 386.698878 294.015637 
L 387.176056 293.971773 
L 387.176056 294.027666 
L 387.176056 294.416987 
L 387.414645 294.367279 
L 387.414645 294.477937 
L 387.414645 294.69844 
L 387.653234 294.648867 
L 387.653234 294.758752 
L 387.653234 294.83186 
L 387.891823 294.782371 
L 387.891823 294.891847 
L 387.891823 295.989873 
L 388.130412 295.940828 
L 388.130412 296.047416 
L 388.130412 296.082888 
L 388.369001 296.033912 
L 388.369001 296.140196 
L 388.369001 296.404792 
L 388.60759 296.355967 
L 388.60759 296.4614 
L 388.60759 297.244174 
L 388.846179 297.195685 
L 388.846179 297.299041 
L 388.846179 299.789448 
L 389.084768 299.741921 
L 389.084768 299.839265 
L 389.084768 300.146051 
L 389.561945 300.131774 
L 389.561945 300.1639 
L 389.561945 300.435991 
L 389.800534 300.38881 
L 389.800534 300.500379 
L 389.800534 300.864888 
L 390.277712 300.881326 
L 390.277712 301.022832 
L 390.516301 300.975976 
L 390.516301 301.085746 
L 390.516301 301.490951 
L 390.75489 301.444305 
L 390.75489 301.552767 
L 390.75489 301.861104 
L 390.993479 301.814632 
L 390.993479 301.922049 
L 390.993479 302.181762 
L 391.232068 302.135445 
L 391.232068 302.241951 
L 391.232068 302.620092 
L 391.470657 302.573976 
L 391.470657 302.679273 
L 391.470657 303.02335 
L 391.947835 303.020862 
L 391.947835 303.035735 
L 391.947835 303.065465 
L 392.186424 303.01962 
L 392.186424 303.123543 
L 392.186424 303.565938 
L 392.425013 303.520319 
L 392.425013 303.622892 
L 392.425013 304.505865 
L 392.663602 304.460641 
L 392.663602 304.560772 
L 392.663602 304.774498 
L 393.14078 304.726983 
L 393.14078 304.783766 
L 393.14078 304.854633 
L 393.379369 304.809644 
L 393.379369 304.908684 
L 393.379369 305.525625 
L 393.856547 305.450173 
L 393.856547 305.547483 
L 393.856547 305.658402 
L 394.095136 305.613825 
L 394.095136 305.724476 
L 394.095136 305.876114 
L 394.333725 305.831656 
L 394.333725 305.941615 
L 394.333725 306.119644 
L 394.333725 306.119644 
" style="fill:none;stroke:#1919ff;stroke-linecap:square;stroke-width:2;"/>
   </g>
   <g id="patch_3">
    <path d="M 72 384.48 
L 72 51.84 
" style="fill:none;stroke:#000000;stroke-linecap:square;stroke-linejoin:miter;stroke-width:0.8;"/>
   </g>
   <g id="patch_4">
    <path d="M 518.4 384.48 
L 518.4 51.84 
" style="fill:none;stroke:#000000;stroke-linecap:square;stroke-linejoin:miter;stroke-width:0.8;"/>
   </g>
   <g id="patch_5">
    <path d="M 72 384.48 
L 518.4 384.48 
" style="fill:none;stroke:#000000;stroke-linecap:square;stroke-linejoin:miter;stroke-width:0.8;"/>
   </g>
   <g id="patch_6">
    <path d="M 72 51.84 
L 518.4 51.84 
" style="fill:none;stroke:#000000;stroke-linecap:square;stroke-linejoin:miter;stroke-width:0.8;"/>
   </g>
   <g id="legend_1">
    <g id="patch_7">
     <path d="M 79 379.48 
L 185.5875 379.48 
Q 187.5875 379.48 187.5875 377.48 
L 187.5875 363.801875 
Q 187.5875 361.801875 185.5875 361.801875 
L 79 361.801875 
Q 77 361.801875 77 363.801875 
L 77 377.48 
Q 77 379.48 79 379.48 
z
" style="fill:#ffffff;opacity:0.8;stroke:#cccccc;stroke-linejoin:miter;"/>
    </g>
    <g id="line2d_26">
     <path d="M 81 369.900312 
L 101 369.900312 
" style="fill:none;stroke:#1919ff;stroke-linecap:square;stroke-width:2;"/>
    </g>
    <g id="line2d_27"/>
    <g id="text_15">
     <!-- 54.1%  current -->
     <defs>
      <path d="M 10.796875 72.90625 
L 49.515625 72.90625 
L 49.515625 64.59375 
L 19.828125 64.59375 
L 19.828125 46.734375 
Q 21.96875 47.46875 24.109375 47.828125 
Q 26.265625 48.1875 28.421875 48.1875 
Q 40.625 48.1875 47.75 41.5 
Q 54.890625 34.8125 54.890625 23.390625 
Q 54.890625 11.625 47.5625 5.09375 
Q 40.234375 -1.421875 26.90625 -1.421875 
Q 22.3125 -1.421875 17.546875 -0.640625 
Q 12.796875 0.140625 7.71875 1.703125 
L 7.71875 11.625 
Q 12.109375 9.234375 16.796875 8.0625 
Q 21.484375 6.890625 26.703125 6.890625 
Q 35.15625 6.890625 40.078125 11.328125 
Q 45.015625 15.765625 45.015625 23.390625 
Q 45.015625 31 40.078125 35.4375 
Q 35.15625 39.890625 26.703125 39.890625 
Q 22.75 39.890625 18.8125 39.015625 
Q 14.890625 38.140625 10.796875 36.28125 
z
" id="DejaVuSans-53"/>
      <path d="M 72.703125 32.078125 
Q 68.453125 32.078125 66.03125 28.46875 
Q 63.625 24.859375 63.625 18.40625 
Q 63.625 12.0625 66.03125 8.421875 
Q 68.453125 4.78125 72.703125 4.78125 
Q 76.859375 4.78125 79.265625 8.421875 
Q 81.6875 12.0625 81.6875 18.40625 
Q 81.6875 24.8125 79.265625 28.4375 
Q 76.859375 32.078125 72.703125 32.078125 
z
M 72.703125 38.28125 
Q 80.421875 38.28125 84.953125 32.90625 
Q 89.5 27.546875 89.5 18.40625 
Q 89.5 9.28125 84.9375 3.921875 
Q 80.375 -1.421875 72.703125 -1.421875 
Q 64.890625 -1.421875 60.34375 3.921875 
Q 55.8125 9.28125 55.8125 18.40625 
Q 55.8125 27.59375 60.375 32.9375 
Q 64.9375 38.28125 72.703125 38.28125 
z
M 22.3125 68.015625 
Q 18.109375 68.015625 15.6875 64.375 
Q 13.28125 60.75 13.28125 54.390625 
Q 13.28125 47.953125 15.671875 44.328125 
Q 18.0625 40.71875 22.3125 40.71875 
Q 26.5625 40.71875 28.96875 44.328125 
Q 31.390625 47.953125 31.390625 54.390625 
Q 31.390625 60.6875 28.953125 64.34375 
Q 26.515625 68.015625 22.3125 68.015625 
z
M 66.40625 74.21875 
L 74.21875 74.21875 
L 28.609375 -1.421875 
L 20.796875 -1.421875 
z
M 22.3125 74.21875 
Q 30.03125 74.21875 34.609375 68.875 
Q 39.203125 63.53125 39.203125 54.390625 
Q 39.203125 45.171875 34.640625 39.84375 
Q 30.078125 34.515625 22.3125 34.515625 
Q 14.546875 34.515625 10.03125 39.859375 
Q 5.515625 45.21875 5.515625 54.390625 
Q 5.515625 63.484375 10.046875 68.84375 
Q 14.59375 74.21875 22.3125 74.21875 
z
" id="DejaVuSans-37"/>
      <path id="DejaVuSans-32"/>
      <path d="M 8.5 21.578125 
L 8.5 54.6875 
L 17.484375 54.6875 
L 17.484375 21.921875 
Q 17.484375 14.15625 20.5 10.265625 
Q 23.53125 6.390625 29.59375 6.390625 
Q 36.859375 6.390625 41.078125 11.03125 
Q 45.3125 15.671875 45.3125 23.6875 
L 45.3125 54.6875 
L 54.296875 54.6875 
L 54.296875 0 
L 45.3125 0 
L 45.3125 8.40625 
Q 42.046875 3.421875 37.71875 1 
Q 33.40625 -1.421875 27.6875 -1.421875 
Q 18.265625 -1.421875 13.375 4.4375 
Q 8.5 10.296875 8.5 21.578125 
z
M 31.109375 56 
z
" id="DejaVuSans-117"/>
      <path d="M 18.3125 70.21875 
L 18.3125 54.6875 
L 36.8125 54.6875 
L 36.8125 47.703125 
L 18.3125 47.703125 
L 18.3125 18.015625 
Q 18.3125 11.328125 20.140625 9.421875 
Q 21.96875 7.515625 27.59375 7.515625 
L 36.8125 7.515625 
L 36.8125 0 
L 27.59375 0 
Q 17.1875 0 13.234375 3.875 
Q 9.28125 7.765625 9.28125 18.015625 
L 9.28125 47.703125 
L 2.6875 47.703125 
L 2.6875 54.6875 
L 9.28125 54.6875 
L 9.28125 70.21875 
z
" id="DejaVuSans-116"/>
     </defs>
     <g transform="translate(109 373.400312)scale(0.1 -0.1)">
      <use xlink:href="#DejaVuSans-53"/>
      <use x="63.623047" xlink:href="#DejaVuSans-52"/>
      <use x="127.246094" xlink:href="#DejaVuSans-46"/>
      <use x="159.033203" xlink:href="#DejaVuSans-49"/>
      <use x="222.65625" xlink:href="#DejaVuSans-37"/>
      <use x="317.675781" xlink:href="#DejaVuSans-32"/>
      <use x="349.462891" xlink:href="#DejaVuSans-32"/>
      <use x="381.25" xlink:href="#DejaVuSans-99"/>
      <use x="436.230469" xlink:href="#DejaVuSans-117"/>
      <use x="499.609375" xlink:href="#DejaVuSans-114"/>
      <use x="540.707031" xlink:href="#DejaVuSans-114"/>
      <use x="581.789062" xlink:href="#DejaVuSans-101"/>
      <use x="643.3125" xlink:href="#DejaVuSans-110"/>
      <use x="706.691406" xlink:href="#DejaVuSans-116"/>
     </g>
    </g>
   </g>
  </g>
  <g id="text_16">
   <!-- Day and night time -->
   <defs>
    <path d="M 27.984375 58.6875 
L 27.984375 14.203125 
L 34.71875 14.203125 
Q 46.234375 14.203125 52.3125 19.921875 
Q 58.40625 25.640625 58.40625 36.53125 
Q 58.40625 47.359375 52.34375 53.015625 
Q 46.296875 58.6875 34.71875 58.6875 
z
M 9.1875 72.90625 
L 29 72.90625 
Q 45.609375 72.90625 53.734375 70.53125 
Q 61.859375 68.171875 67.671875 62.5 
Q 72.796875 57.5625 75.28125 51.109375 
Q 77.78125 44.671875 77.78125 36.53125 
Q 77.78125 28.265625 75.28125 21.796875 
Q 72.796875 15.328125 67.671875 10.40625 
Q 61.8125 4.734375 53.609375 2.359375 
Q 45.40625 0 29 0 
L 9.1875 0 
z
" id="DejaVuSans-Bold-68"/>
    <path d="M 32.90625 24.609375 
Q 27.4375 24.609375 24.671875 22.75 
Q 21.921875 20.90625 21.921875 17.28125 
Q 21.921875 13.96875 24.140625 12.078125 
Q 26.375 10.203125 30.328125 10.203125 
Q 35.25 10.203125 38.625 13.734375 
Q 42 17.28125 42 22.609375 
L 42 24.609375 
z
M 59.625 31.203125 
L 59.625 0 
L 42 0 
L 42 8.109375 
Q 38.484375 3.125 34.078125 0.84375 
Q 29.6875 -1.421875 23.390625 -1.421875 
Q 14.890625 -1.421875 9.59375 3.53125 
Q 4.296875 8.5 4.296875 16.40625 
Q 4.296875 26.03125 10.90625 30.515625 
Q 17.53125 35.015625 31.6875 35.015625 
L 42 35.015625 
L 42 36.375 
Q 42 40.53125 38.71875 42.453125 
Q 35.453125 44.390625 28.515625 44.390625 
Q 22.90625 44.390625 18.0625 43.265625 
Q 13.234375 42.140625 9.078125 39.890625 
L 9.078125 53.21875 
Q 14.703125 54.59375 20.359375 55.296875 
Q 26.03125 56 31.6875 56 
Q 46.484375 56 53.046875 50.171875 
Q 59.625 44.34375 59.625 31.203125 
z
" id="DejaVuSans-Bold-97"/>
    <path d="M 1.21875 54.6875 
L 18.703125 54.6875 
L 33.40625 17.578125 
L 45.90625 54.6875 
L 63.375 54.6875 
L 40.375 -5.171875 
Q 36.921875 -14.3125 32.296875 -17.9375 
Q 27.6875 -21.578125 20.125 -21.578125 
L 10.015625 -21.578125 
L 10.015625 -10.109375 
L 15.484375 -10.109375 
Q 19.921875 -10.109375 21.9375 -8.6875 
Q 23.96875 -7.28125 25.09375 -3.609375 
L 25.59375 -2.09375 
z
" id="DejaVuSans-Bold-121"/>
    <path id="DejaVuSans-Bold-32"/>
    <path d="M 63.375 33.296875 
L 63.375 0 
L 45.796875 0 
L 45.796875 5.421875 
L 45.796875 25.484375 
Q 45.796875 32.5625 45.484375 35.25 
Q 45.171875 37.9375 44.390625 39.203125 
Q 43.359375 40.921875 41.59375 41.875 
Q 39.84375 42.828125 37.59375 42.828125 
Q 32.125 42.828125 29 38.59375 
Q 25.875 34.375 25.875 26.90625 
L 25.875 0 
L 8.40625 0 
L 8.40625 54.6875 
L 25.875 54.6875 
L 25.875 46.6875 
Q 29.828125 51.46875 34.265625 53.734375 
Q 38.71875 56 44.09375 56 
Q 53.5625 56 58.46875 50.1875 
Q 63.375 44.390625 63.375 33.296875 
z
" id="DejaVuSans-Bold-110"/>
    <path d="M 45.609375 46.6875 
L 45.609375 75.984375 
L 63.1875 75.984375 
L 63.1875 0 
L 45.609375 0 
L 45.609375 7.90625 
Q 42 3.078125 37.640625 0.828125 
Q 33.296875 -1.421875 27.59375 -1.421875 
Q 17.484375 -1.421875 10.984375 6.609375 
Q 4.5 14.65625 4.5 27.296875 
Q 4.5 39.9375 10.984375 47.96875 
Q 17.484375 56 27.59375 56 
Q 33.25 56 37.625 53.734375 
Q 42 51.46875 45.609375 46.6875 
z
M 34.078125 11.28125 
Q 39.703125 11.28125 42.65625 15.375 
Q 45.609375 19.484375 45.609375 27.296875 
Q 45.609375 35.109375 42.65625 39.203125 
Q 39.703125 43.3125 34.078125 43.3125 
Q 28.515625 43.3125 25.5625 39.203125 
Q 22.609375 35.109375 22.609375 27.296875 
Q 22.609375 19.484375 25.5625 15.375 
Q 28.515625 11.28125 34.078125 11.28125 
z
" id="DejaVuSans-Bold-100"/>
    <path d="M 8.40625 54.6875 
L 25.875 54.6875 
L 25.875 0 
L 8.40625 0 
z
M 8.40625 75.984375 
L 25.875 75.984375 
L 25.875 61.71875 
L 8.40625 61.71875 
z
" id="DejaVuSans-Bold-105"/>
    <path d="M 45.609375 9.28125 
Q 42 4.5 37.640625 2.25 
Q 33.296875 0 27.59375 0 
Q 17.578125 0 11.03125 7.875 
Q 4.5 15.765625 4.5 27.984375 
Q 4.5 40.234375 11.03125 48.0625 
Q 17.578125 55.90625 27.59375 55.90625 
Q 33.296875 55.90625 37.640625 53.65625 
Q 42 51.421875 45.609375 46.578125 
L 45.609375 54.6875 
L 63.1875 54.6875 
L 63.1875 5.515625 
Q 63.1875 -7.671875 54.859375 -14.625 
Q 46.53125 -21.578125 30.71875 -21.578125 
Q 25.59375 -21.578125 20.796875 -20.796875 
Q 16.015625 -20.015625 11.1875 -18.40625 
L 11.1875 -4.78125 
Q 15.765625 -7.421875 20.15625 -8.71875 
Q 24.5625 -10.015625 29 -10.015625 
Q 37.59375 -10.015625 41.59375 -6.25 
Q 45.609375 -2.484375 45.609375 5.515625 
z
M 34.078125 43.3125 
Q 28.65625 43.3125 25.625 39.296875 
Q 22.609375 35.296875 22.609375 27.984375 
Q 22.609375 20.453125 25.53125 16.578125 
Q 28.46875 12.703125 34.078125 12.703125 
Q 39.546875 12.703125 42.578125 16.703125 
Q 45.609375 20.703125 45.609375 27.984375 
Q 45.609375 35.296875 42.578125 39.296875 
Q 39.546875 43.3125 34.078125 43.3125 
z
" id="DejaVuSans-Bold-103"/>
    <path d="M 63.375 33.296875 
L 63.375 0 
L 45.796875 0 
L 45.796875 5.421875 
L 45.796875 25.390625 
Q 45.796875 32.5625 45.484375 35.25 
Q 45.171875 37.9375 44.390625 39.203125 
Q 43.359375 40.921875 41.59375 41.875 
Q 39.84375 42.828125 37.59375 42.828125 
Q 32.125 42.828125 29 38.59375 
Q 25.875 34.375 25.875 26.90625 
L 25.875 0 
L 8.40625 0 
L 8.40625 75.984375 
L 25.875 75.984375 
L 25.875 46.6875 
Q 29.828125 51.46875 34.265625 53.734375 
Q 38.71875 56 44.09375 56 
Q 53.5625 56 58.46875 50.1875 
Q 63.375 44.390625 63.375 33.296875 
z
" id="DejaVuSans-Bold-104"/>
    <path d="M 27.484375 70.21875 
L 27.484375 54.6875 
L 45.515625 54.6875 
L 45.515625 42.1875 
L 27.484375 42.1875 
L 27.484375 19 
Q 27.484375 15.1875 29 13.84375 
Q 30.515625 12.5 35.015625 12.5 
L 44 12.5 
L 44 0 
L 29 0 
Q 18.65625 0 14.328125 4.3125 
Q 10.015625 8.640625 10.015625 19 
L 10.015625 42.1875 
L 1.3125 42.1875 
L 1.3125 54.6875 
L 10.015625 54.6875 
L 10.015625 70.21875 
z
" id="DejaVuSans-Bold-116"/>
    <path d="M 59.078125 45.609375 
Q 62.40625 50.6875 66.96875 53.34375 
Q 71.53125 56 77 56 
Q 86.421875 56 91.359375 50.1875 
Q 96.296875 44.390625 96.296875 33.296875 
L 96.296875 0 
L 78.71875 0 
L 78.71875 28.515625 
Q 78.765625 29.15625 78.78125 29.828125 
Q 78.8125 30.515625 78.8125 31.78125 
Q 78.8125 37.59375 77.09375 40.203125 
Q 75.390625 42.828125 71.578125 42.828125 
Q 66.609375 42.828125 63.890625 38.71875 
Q 61.1875 34.625 61.078125 26.859375 
L 61.078125 0 
L 43.5 0 
L 43.5 28.515625 
Q 43.5 37.59375 41.9375 40.203125 
Q 40.375 42.828125 36.375 42.828125 
Q 31.34375 42.828125 28.609375 38.703125 
Q 25.875 34.578125 25.875 26.90625 
L 25.875 0 
L 8.296875 0 
L 8.296875 54.6875 
L 25.875 54.6875 
L 25.875 46.6875 
Q 29.109375 51.3125 33.28125 53.65625 
Q 37.453125 56 42.484375 56 
Q 48.140625 56 52.484375 53.265625 
Q 56.84375 50.53125 59.078125 45.609375 
z
" id="DejaVuSans-Bold-109"/>
    <path d="M 62.984375 27.484375 
L 62.984375 22.515625 
L 22.125 22.515625 
Q 22.75 16.359375 26.5625 13.28125 
Q 30.375 10.203125 37.203125 10.203125 
Q 42.71875 10.203125 48.5 11.84375 
Q 54.296875 13.484375 60.40625 16.796875 
L 60.40625 3.328125 
Q 54.203125 0.984375 48 -0.21875 
Q 41.796875 -1.421875 35.59375 -1.421875 
Q 20.75 -1.421875 12.515625 6.125 
Q 4.296875 13.671875 4.296875 27.296875 
Q 4.296875 40.671875 12.375 48.328125 
Q 20.453125 56 34.625 56 
Q 47.515625 56 55.25 48.234375 
Q 62.984375 40.484375 62.984375 27.484375 
z
M 45.015625 33.296875 
Q 45.015625 38.28125 42.109375 41.328125 
Q 39.203125 44.390625 34.515625 44.390625 
Q 29.4375 44.390625 26.265625 41.53125 
Q 23.09375 38.671875 22.3125 33.296875 
z
" id="DejaVuSans-Bold-101"/>
   </defs>
   <g transform="translate(223.171875 17.758125)scale(0.12 -0.12)">
    <use xlink:href="#DejaVuSans-Bold-68"/>
    <use x="83.007812" xlink:href="#DejaVuSans-Bold-97"/>
    <use x="150.441406" xlink:href="#DejaVuSans-Bold-121"/>
    <use x="215.626953" xlink:href="#DejaVuSans-Bold-32"/>
    <use x="250.441406" xlink:href="#DejaVuSans-Bold-97"/>
    <use x="317.921875" xlink:href="#DejaVuSans-Bold-110"/>
    <use x="389.113281" xlink:href="#DejaVuSans-Bold-100"/>
    <use x="460.695312" xlink:href="#DejaVuSans-Bold-32"/>
    <use x="495.509766" xlink:href="#DejaVuSans-Bold-110"/>
    <use x="566.701172" xlink:href="#DejaVuSans-Bold-105"/>
    <use x="600.978516" xlink:href="#DejaVuSans-Bold-103"/>
    <use x="672.560547" xlink:href="#DejaVuSans-Bold-104"/>
    <use x="743.751953" xlink:href="#DejaVuSans-Bold-116"/>
    <use x="791.554688" xlink:href="#DejaVuSans-Bold-32"/>
    <use x="826.369141" xlink:href="#DejaVuSans-Bold-116"/>
    <use x="874.171875" xlink:href="#DejaVuSans-Bold-105"/>
    <use x="908.449219" xlink:href="#DejaVuSans-Bold-109"/>
    <use x="1012.648438" xlink:href="#DejaVuSans-Bold-101"/>
   </g>
  </g>
 </g>
 <defs>
  <clipPath id="pe102cccd35">
   <rect height="332.64" width="446.4" x="72" y="51.84"/>
  </clipPath>
 </defs>
</svg>
