<?xml version="1.0" encoding="utf-8" standalone="no"?>
<!DOCTYPE svg PUBLIC "-//W3C//DTD SVG 1.1//EN"
  "http://www.w3.org/Graphics/SVG/1.1/DTD/svg11.dtd">
<!-- Created with matplotlib (https://matplotlib.org/) -->
<svg height="432pt" version="1.1" viewBox="0 0 576 432" width="576pt" xmlns="http://www.w3.org/2000/svg" xmlns:xlink="http://www.w3.org/1999/xlink">
 <defs>
  <style type="text/css">
*{stroke-linecap:butt;stroke-linejoin:round;}
  </style>
 </defs>
 <g id="figure_1">
  <g id="patch_1">
   <path d="M 0 432 
L 576 432 
L 576 0 
L 0 0 
z
" style="fill:none;"/>
  </g>
  <g id="axes_1">
   <g id="patch_2">
    <path d="M 72 384.48 
L 518.4 384.48 
L 518.4 51.84 
L 72 51.84 
z
" style="fill:none;"/>
   </g>
   <g id="matplotlib.axis_1">
    <g id="xtick_1">
     <g id="line2d_1">
      <path clip-path="url(#p058b553280)" d="M 124.633048 384.48 
L 124.633048 51.84 
" style="fill:none;stroke:#b0b0b0;stroke-linecap:square;stroke-width:0.8;"/>
     </g>
     <g id="line2d_2">
      <defs>
       <path d="M 0 0 
L 0 3.5 
" id="m78e9b62fb0" style="stroke:#000000;stroke-width:0.8;"/>
      </defs>
      <g>
       <use style="stroke:#000000;stroke-width:0.8;" x="124.633048" xlink:href="#m78e9b62fb0" y="384.48"/>
      </g>
     </g>
     <g id="text_1">
      <!-- $\mathdefault{10^{-3}}$ -->
      <defs>
       <path d="M 12.40625 8.296875 
L 28.515625 8.296875 
L 28.515625 63.921875 
L 10.984375 60.40625 
L 10.984375 69.390625 
L 28.421875 72.90625 
L 38.28125 72.90625 
L 38.28125 8.296875 
L 54.390625 8.296875 
L 54.390625 0 
L 12.40625 0 
z
" id="DejaVuSans-49"/>
       <path d="M 31.78125 66.40625 
Q 24.171875 66.40625 20.328125 58.90625 
Q 16.5 51.421875 16.5 36.375 
Q 16.5 21.390625 20.328125 13.890625 
Q 24.171875 6.390625 31.78125 6.390625 
Q 39.453125 6.390625 43.28125 13.890625 
Q 47.125 21.390625 47.125 36.375 
Q 47.125 51.421875 43.28125 58.90625 
Q 39.453125 66.40625 31.78125 66.40625 
z
M 31.78125 74.21875 
Q 44.046875 74.21875 50.515625 64.515625 
Q 56.984375 54.828125 56.984375 36.375 
Q 56.984375 17.96875 50.515625 8.265625 
Q 44.046875 -1.421875 31.78125 -1.421875 
Q 19.53125 -1.421875 13.0625 8.265625 
Q 6.59375 17.96875 6.59375 36.375 
Q 6.59375 54.828125 13.0625 64.515625 
Q 19.53125 74.21875 31.78125 74.21875 
z
" id="DejaVuSans-48"/>
       <path d="M 10.59375 35.5 
L 73.1875 35.5 
L 73.1875 27.203125 
L 10.59375 27.203125 
z
" id="DejaVuSans-8722"/>
       <path d="M 40.578125 39.3125 
Q 47.65625 37.796875 51.625 33 
Q 55.609375 28.21875 55.609375 21.1875 
Q 55.609375 10.40625 48.1875 4.484375 
Q 40.765625 -1.421875 27.09375 -1.421875 
Q 22.515625 -1.421875 17.65625 -0.515625 
Q 12.796875 0.390625 7.625 2.203125 
L 7.625 11.71875 
Q 11.71875 9.328125 16.59375 8.109375 
Q 21.484375 6.890625 26.8125 6.890625 
Q 36.078125 6.890625 40.9375 10.546875 
Q 45.796875 14.203125 45.796875 21.1875 
Q 45.796875 27.640625 41.28125 31.265625 
Q 36.765625 34.90625 28.71875 34.90625 
L 20.21875 34.90625 
L 20.21875 43.015625 
L 29.109375 43.015625 
Q 36.375 43.015625 40.234375 45.921875 
Q 44.09375 48.828125 44.09375 54.296875 
Q 44.09375 59.90625 40.109375 62.90625 
Q 36.140625 65.921875 28.71875 65.921875 
Q 24.65625 65.921875 20.015625 65.03125 
Q 15.375 64.15625 9.8125 62.3125 
L 9.8125 71.09375 
Q 15.4375 72.65625 20.34375 73.4375 
Q 25.25 74.21875 29.59375 74.21875 
Q 40.828125 74.21875 47.359375 69.109375 
Q 53.90625 64.015625 53.90625 55.328125 
Q 53.90625 49.265625 50.4375 45.09375 
Q 46.96875 40.921875 40.578125 39.3125 
z
" id="DejaVuSans-51"/>
      </defs>
      <g transform="translate(112.883048 399.078438)scale(0.1 -0.1)">
       <use transform="translate(0 0.765625)" xlink:href="#DejaVuSans-49"/>
       <use transform="translate(63.623047 0.765625)" xlink:href="#DejaVuSans-48"/>
       <use transform="translate(128.203125 39.046875)scale(0.7)" xlink:href="#DejaVuSans-8722"/>
       <use transform="translate(186.855469 39.046875)scale(0.7)" xlink:href="#DejaVuSans-51"/>
      </g>
     </g>
    </g>
    <g id="xtick_2">
     <g id="line2d_3">
      <path clip-path="url(#p058b553280)" d="M 223.074786 384.48 
L 223.074786 51.84 
" style="fill:none;stroke:#b0b0b0;stroke-linecap:square;stroke-width:0.8;"/>
     </g>
     <g id="line2d_4">
      <g>
       <use style="stroke:#000000;stroke-width:0.8;" x="223.074786" xlink:href="#m78e9b62fb0" y="384.48"/>
      </g>
     </g>
     <g id="text_2">
      <!-- $\mathdefault{10^{-2}}$ -->
      <defs>
       <path d="M 19.1875 8.296875 
L 53.609375 8.296875 
L 53.609375 0 
L 7.328125 0 
L 7.328125 8.296875 
Q 12.9375 14.109375 22.625 23.890625 
Q 32.328125 33.6875 34.8125 36.53125 
Q 39.546875 41.84375 41.421875 45.53125 
Q 43.3125 49.21875 43.3125 52.78125 
Q 43.3125 58.59375 39.234375 62.25 
Q 35.15625 65.921875 28.609375 65.921875 
Q 23.96875 65.921875 18.8125 64.3125 
Q 13.671875 62.703125 7.8125 59.421875 
L 7.8125 69.390625 
Q 13.765625 71.78125 18.9375 73 
Q 24.125 74.21875 28.421875 74.21875 
Q 39.75 74.21875 46.484375 68.546875 
Q 53.21875 62.890625 53.21875 53.421875 
Q 53.21875 48.921875 51.53125 44.890625 
Q 49.859375 40.875 45.40625 35.40625 
Q 44.1875 33.984375 37.640625 27.21875 
Q 31.109375 20.453125 19.1875 8.296875 
z
" id="DejaVuSans-50"/>
      </defs>
      <g transform="translate(211.324786 399.078438)scale(0.1 -0.1)">
       <use transform="translate(0 0.765625)" xlink:href="#DejaVuSans-49"/>
       <use transform="translate(63.623047 0.765625)" xlink:href="#DejaVuSans-48"/>
       <use transform="translate(128.203125 39.046875)scale(0.7)" xlink:href="#DejaVuSans-8722"/>
       <use transform="translate(186.855469 39.046875)scale(0.7)" xlink:href="#DejaVuSans-50"/>
      </g>
     </g>
    </g>
    <g id="xtick_3">
     <g id="line2d_5">
      <path clip-path="url(#p058b553280)" d="M 321.516524 384.48 
L 321.516524 51.84 
" style="fill:none;stroke:#b0b0b0;stroke-linecap:square;stroke-width:0.8;"/>
     </g>
     <g id="line2d_6">
      <g>
       <use style="stroke:#000000;stroke-width:0.8;" x="321.516524" xlink:href="#m78e9b62fb0" y="384.48"/>
      </g>
     </g>
     <g id="text_3">
      <!-- $\mathdefault{10^{-1}}$ -->
      <g transform="translate(309.766524 399.078438)scale(0.1 -0.1)">
       <use transform="translate(0 0.684375)" xlink:href="#DejaVuSans-49"/>
       <use transform="translate(63.623047 0.684375)" xlink:href="#DejaVuSans-48"/>
       <use transform="translate(128.203125 38.965625)scale(0.7)" xlink:href="#DejaVuSans-8722"/>
       <use transform="translate(186.855469 38.965625)scale(0.7)" xlink:href="#DejaVuSans-49"/>
      </g>
     </g>
    </g>
    <g id="xtick_4">
     <g id="line2d_7">
      <path clip-path="url(#p058b553280)" d="M 419.958262 384.48 
L 419.958262 51.84 
" style="fill:none;stroke:#b0b0b0;stroke-linecap:square;stroke-width:0.8;"/>
     </g>
     <g id="line2d_8">
      <g>
       <use style="stroke:#000000;stroke-width:0.8;" x="419.958262" xlink:href="#m78e9b62fb0" y="384.48"/>
      </g>
     </g>
     <g id="text_4">
      <!-- $\mathdefault{10^{0}}$ -->
      <g transform="translate(411.158262 399.078438)scale(0.1 -0.1)">
       <use transform="translate(0 0.765625)" xlink:href="#DejaVuSans-49"/>
       <use transform="translate(63.623047 0.765625)" xlink:href="#DejaVuSans-48"/>
       <use transform="translate(128.203125 39.046875)scale(0.7)" xlink:href="#DejaVuSans-48"/>
      </g>
     </g>
    </g>
    <g id="xtick_5">
     <g id="line2d_9">
      <path clip-path="url(#p058b553280)" d="M 518.4 384.48 
L 518.4 51.84 
" style="fill:none;stroke:#b0b0b0;stroke-linecap:square;stroke-width:0.8;"/>
     </g>
     <g id="line2d_10">
      <g>
       <use style="stroke:#000000;stroke-width:0.8;" x="518.4" xlink:href="#m78e9b62fb0" y="384.48"/>
      </g>
     </g>
     <g id="text_5">
      <!-- $\mathdefault{10^{1}}$ -->
      <g transform="translate(509.6 399.078438)scale(0.1 -0.1)">
       <use transform="translate(0 0.684375)" xlink:href="#DejaVuSans-49"/>
       <use transform="translate(63.623047 0.684375)" xlink:href="#DejaVuSans-48"/>
       <use transform="translate(128.203125 38.965625)scale(0.7)" xlink:href="#DejaVuSans-49"/>
      </g>
     </g>
    </g>
    <g id="xtick_6">
     <g id="line2d_11">
      <defs>
       <path d="M 0 0 
L 0 2 
" id="mcb5f1c4980" style="stroke:#000000;stroke-width:0.6;"/>
      </defs>
      <g>
       <use style="stroke:#000000;stroke-width:0.6;" x="73.159956" xlink:href="#mcb5f1c4980" y="384.48"/>
      </g>
     </g>
    </g>
    <g id="xtick_7">
     <g id="line2d_12">
      <g>
       <use style="stroke:#000000;stroke-width:0.6;" x="85.459142" xlink:href="#mcb5f1c4980" y="384.48"/>
      </g>
     </g>
    </g>
    <g id="xtick_8">
     <g id="line2d_13">
      <g>
       <use style="stroke:#000000;stroke-width:0.6;" x="94.999132" xlink:href="#mcb5f1c4980" y="384.48"/>
      </g>
     </g>
    </g>
    <g id="xtick_9">
     <g id="line2d_14">
      <g>
       <use style="stroke:#000000;stroke-width:0.6;" x="102.793872" xlink:href="#mcb5f1c4980" y="384.48"/>
      </g>
     </g>
    </g>
    <g id="xtick_10">
     <g id="line2d_15">
      <g>
       <use style="stroke:#000000;stroke-width:0.6;" x="109.38423" xlink:href="#mcb5f1c4980" y="384.48"/>
      </g>
     </g>
    </g>
    <g id="xtick_11">
     <g id="line2d_16">
      <g>
       <use style="stroke:#000000;stroke-width:0.6;" x="115.093058" xlink:href="#mcb5f1c4980" y="384.48"/>
      </g>
     </g>
    </g>
    <g id="xtick_12">
     <g id="line2d_17">
      <g>
       <use style="stroke:#000000;stroke-width:0.6;" x="120.128601" xlink:href="#mcb5f1c4980" y="384.48"/>
      </g>
     </g>
    </g>
    <g id="xtick_13">
     <g id="line2d_18">
      <g>
       <use style="stroke:#000000;stroke-width:0.6;" x="154.266964" xlink:href="#mcb5f1c4980" y="384.48"/>
      </g>
     </g>
    </g>
    <g id="xtick_14">
     <g id="line2d_19">
      <g>
       <use style="stroke:#000000;stroke-width:0.6;" x="171.601694" xlink:href="#mcb5f1c4980" y="384.48"/>
      </g>
     </g>
    </g>
    <g id="xtick_15">
     <g id="line2d_20">
      <g>
       <use style="stroke:#000000;stroke-width:0.6;" x="183.90088" xlink:href="#mcb5f1c4980" y="384.48"/>
      </g>
     </g>
    </g>
    <g id="xtick_16">
     <g id="line2d_21">
      <g>
       <use style="stroke:#000000;stroke-width:0.6;" x="193.44087" xlink:href="#mcb5f1c4980" y="384.48"/>
      </g>
     </g>
    </g>
    <g id="xtick_17">
     <g id="line2d_22">
      <g>
       <use style="stroke:#000000;stroke-width:0.6;" x="201.23561" xlink:href="#mcb5f1c4980" y="384.48"/>
      </g>
     </g>
    </g>
    <g id="xtick_18">
     <g id="line2d_23">
      <g>
       <use style="stroke:#000000;stroke-width:0.6;" x="207.825968" xlink:href="#mcb5f1c4980" y="384.48"/>
      </g>
     </g>
    </g>
    <g id="xtick_19">
     <g id="line2d_24">
      <g>
       <use style="stroke:#000000;stroke-width:0.6;" x="213.534796" xlink:href="#mcb5f1c4980" y="384.48"/>
      </g>
     </g>
    </g>
    <g id="xtick_20">
     <g id="line2d_25">
      <g>
       <use style="stroke:#000000;stroke-width:0.6;" x="218.570339" xlink:href="#mcb5f1c4980" y="384.48"/>
      </g>
     </g>
    </g>
    <g id="xtick_21">
     <g id="line2d_26">
      <g>
       <use style="stroke:#000000;stroke-width:0.6;" x="252.708702" xlink:href="#mcb5f1c4980" y="384.48"/>
      </g>
     </g>
    </g>
    <g id="xtick_22">
     <g id="line2d_27">
      <g>
       <use style="stroke:#000000;stroke-width:0.6;" x="270.043432" xlink:href="#mcb5f1c4980" y="384.48"/>
      </g>
     </g>
    </g>
    <g id="xtick_23">
     <g id="line2d_28">
      <g>
       <use style="stroke:#000000;stroke-width:0.6;" x="282.342618" xlink:href="#mcb5f1c4980" y="384.48"/>
      </g>
     </g>
    </g>
    <g id="xtick_24">
     <g id="line2d_29">
      <g>
       <use style="stroke:#000000;stroke-width:0.6;" x="291.882608" xlink:href="#mcb5f1c4980" y="384.48"/>
      </g>
     </g>
    </g>
    <g id="xtick_25">
     <g id="line2d_30">
      <g>
       <use style="stroke:#000000;stroke-width:0.6;" x="299.677348" xlink:href="#mcb5f1c4980" y="384.48"/>
      </g>
     </g>
    </g>
    <g id="xtick_26">
     <g id="line2d_31">
      <g>
       <use style="stroke:#000000;stroke-width:0.6;" x="306.267706" xlink:href="#mcb5f1c4980" y="384.48"/>
      </g>
     </g>
    </g>
    <g id="xtick_27">
     <g id="line2d_32">
      <g>
       <use style="stroke:#000000;stroke-width:0.6;" x="311.976534" xlink:href="#mcb5f1c4980" y="384.48"/>
      </g>
     </g>
    </g>
    <g id="xtick_28">
     <g id="line2d_33">
      <g>
       <use style="stroke:#000000;stroke-width:0.6;" x="317.012077" xlink:href="#mcb5f1c4980" y="384.48"/>
      </g>
     </g>
    </g>
    <g id="xtick_29">
     <g id="line2d_34">
      <g>
       <use style="stroke:#000000;stroke-width:0.6;" x="351.15044" xlink:href="#mcb5f1c4980" y="384.48"/>
      </g>
     </g>
    </g>
    <g id="xtick_30">
     <g id="line2d_35">
      <g>
       <use style="stroke:#000000;stroke-width:0.6;" x="368.48517" xlink:href="#mcb5f1c4980" y="384.48"/>
      </g>
     </g>
    </g>
    <g id="xtick_31">
     <g id="line2d_36">
      <g>
       <use style="stroke:#000000;stroke-width:0.6;" x="380.784356" xlink:href="#mcb5f1c4980" y="384.48"/>
      </g>
     </g>
    </g>
    <g id="xtick_32">
     <g id="line2d_37">
      <g>
       <use style="stroke:#000000;stroke-width:0.6;" x="390.324346" xlink:href="#mcb5f1c4980" y="384.48"/>
      </g>
     </g>
    </g>
    <g id="xtick_33">
     <g id="line2d_38">
      <g>
       <use style="stroke:#000000;stroke-width:0.6;" x="398.119086" xlink:href="#mcb5f1c4980" y="384.48"/>
      </g>
     </g>
    </g>
    <g id="xtick_34">
     <g id="line2d_39">
      <g>
       <use style="stroke:#000000;stroke-width:0.6;" x="404.709444" xlink:href="#mcb5f1c4980" y="384.48"/>
      </g>
     </g>
    </g>
    <g id="xtick_35">
     <g id="line2d_40">
      <g>
       <use style="stroke:#000000;stroke-width:0.6;" x="410.418272" xlink:href="#mcb5f1c4980" y="384.48"/>
      </g>
     </g>
    </g>
    <g id="xtick_36">
     <g id="line2d_41">
      <g>
       <use style="stroke:#000000;stroke-width:0.6;" x="415.453815" xlink:href="#mcb5f1c4980" y="384.48"/>
      </g>
     </g>
    </g>
    <g id="xtick_37">
     <g id="line2d_42">
      <g>
       <use style="stroke:#000000;stroke-width:0.6;" x="449.592178" xlink:href="#mcb5f1c4980" y="384.48"/>
      </g>
     </g>
    </g>
    <g id="xtick_38">
     <g id="line2d_43">
      <g>
       <use style="stroke:#000000;stroke-width:0.6;" x="466.926908" xlink:href="#mcb5f1c4980" y="384.48"/>
      </g>
     </g>
    </g>
    <g id="xtick_39">
     <g id="line2d_44">
      <g>
       <use style="stroke:#000000;stroke-width:0.6;" x="479.226094" xlink:href="#mcb5f1c4980" y="384.48"/>
      </g>
     </g>
    </g>
    <g id="xtick_40">
     <g id="line2d_45">
      <g>
       <use style="stroke:#000000;stroke-width:0.6;" x="488.766084" xlink:href="#mcb5f1c4980" y="384.48"/>
      </g>
     </g>
    </g>
    <g id="xtick_41">
     <g id="line2d_46">
      <g>
       <use style="stroke:#000000;stroke-width:0.6;" x="496.560824" xlink:href="#mcb5f1c4980" y="384.48"/>
      </g>
     </g>
    </g>
    <g id="xtick_42">
     <g id="line2d_47">
      <g>
       <use style="stroke:#000000;stroke-width:0.6;" x="503.151182" xlink:href="#mcb5f1c4980" y="384.48"/>
      </g>
     </g>
    </g>
    <g id="xtick_43">
     <g id="line2d_48">
      <g>
       <use style="stroke:#000000;stroke-width:0.6;" x="508.86001" xlink:href="#mcb5f1c4980" y="384.48"/>
      </g>
     </g>
    </g>
    <g id="xtick_44">
     <g id="line2d_49">
      <g>
       <use style="stroke:#000000;stroke-width:0.6;" x="513.895553" xlink:href="#mcb5f1c4980" y="384.48"/>
      </g>
     </g>
    </g>
    <g id="text_6">
     <!-- FPPI -->
     <defs>
      <path d="M 9.8125 72.90625 
L 51.703125 72.90625 
L 51.703125 64.59375 
L 19.671875 64.59375 
L 19.671875 43.109375 
L 48.578125 43.109375 
L 48.578125 34.8125 
L 19.671875 34.8125 
L 19.671875 0 
L 9.8125 0 
z
" id="DejaVuSans-70"/>
      <path d="M 19.671875 64.796875 
L 19.671875 37.40625 
L 32.078125 37.40625 
Q 38.96875 37.40625 42.71875 40.96875 
Q 46.484375 44.53125 46.484375 51.125 
Q 46.484375 57.671875 42.71875 61.234375 
Q 38.96875 64.796875 32.078125 64.796875 
z
M 9.8125 72.90625 
L 32.078125 72.90625 
Q 44.34375 72.90625 50.609375 67.359375 
Q 56.890625 61.8125 56.890625 51.125 
Q 56.890625 40.328125 50.609375 34.8125 
Q 44.34375 29.296875 32.078125 29.296875 
L 19.671875 29.296875 
L 19.671875 0 
L 9.8125 0 
z
" id="DejaVuSans-80"/>
      <path d="M 9.8125 72.90625 
L 19.671875 72.90625 
L 19.671875 0 
L 9.8125 0 
z
" id="DejaVuSans-73"/>
     </defs>
     <g transform="translate(284.819531 412.756563)scale(0.1 -0.1)">
      <use xlink:href="#DejaVuSans-70"/>
      <use x="57.519531" xlink:href="#DejaVuSans-80"/>
      <use x="117.822266" xlink:href="#DejaVuSans-80"/>
      <use x="178.125" xlink:href="#DejaVuSans-73"/>
     </g>
    </g>
   </g>
   <g id="matplotlib.axis_2">
    <g id="ytick_1">
     <g id="line2d_50">
      <defs>
       <path d="M 0 0 
L -3.5 0 
" id="m0de0a37d82" style="stroke:#000000;stroke-width:0.8;"/>
      </defs>
      <g>
       <use style="stroke:#000000;stroke-width:0.8;" x="72" xlink:href="#m0de0a37d82" y="384.48"/>
      </g>
     </g>
    </g>
    <g id="ytick_2">
     <g id="line2d_51">
      <g>
       <use style="stroke:#000000;stroke-width:0.8;" x="72" xlink:href="#m0de0a37d82" y="51.84"/>
      </g>
     </g>
    </g>
    <g id="ytick_3">
     <g id="line2d_52">
      <path clip-path="url(#p058b553280)" d="M 72 284.345382 
L 518.4 284.345382 
" style="fill:none;stroke:#b0b0b0;stroke-linecap:square;stroke-width:0.8;"/>
     </g>
     <g id="line2d_53">
      <defs>
       <path d="M 0 0 
L -2 0 
" id="mfd7c637bd8" style="stroke:#000000;stroke-width:0.6;"/>
      </defs>
      <g>
       <use style="stroke:#000000;stroke-width:0.6;" x="72" xlink:href="#mfd7c637bd8" y="284.345382"/>
      </g>
     </g>
     <g id="text_7">
      <!-- 0.20 -->
      <defs>
       <path d="M 10.6875 12.40625 
L 21 12.40625 
L 21 0 
L 10.6875 0 
z
" id="DejaVuSans-46"/>
      </defs>
      <g transform="translate(44.334375 288.144601)scale(0.1 -0.1)">
       <use xlink:href="#DejaVuSans-48"/>
       <use x="63.623047" xlink:href="#DejaVuSans-46"/>
       <use x="95.410156" xlink:href="#DejaVuSans-50"/>
       <use x="159.033203" xlink:href="#DejaVuSans-48"/>
      </g>
     </g>
    </g>
    <g id="ytick_4">
     <g id="line2d_54">
      <path clip-path="url(#p058b553280)" d="M 72 225.770386 
L 518.4 225.770386 
" style="fill:none;stroke:#b0b0b0;stroke-linecap:square;stroke-width:0.8;"/>
     </g>
     <g id="line2d_55">
      <g>
       <use style="stroke:#000000;stroke-width:0.6;" x="72" xlink:href="#mfd7c637bd8" y="225.770386"/>
      </g>
     </g>
     <g id="text_8">
      <!-- 0.30 -->
      <g transform="translate(44.334375 229.569605)scale(0.1 -0.1)">
       <use xlink:href="#DejaVuSans-48"/>
       <use x="63.623047" xlink:href="#DejaVuSans-46"/>
       <use x="95.410156" xlink:href="#DejaVuSans-51"/>
       <use x="159.033203" xlink:href="#DejaVuSans-48"/>
      </g>
     </g>
    </g>
    <g id="ytick_5">
     <g id="line2d_56">
      <path clip-path="url(#p058b553280)" d="M 72 184.210764 
L 518.4 184.210764 
" style="fill:none;stroke:#b0b0b0;stroke-linecap:square;stroke-width:0.8;"/>
     </g>
     <g id="line2d_57">
      <g>
       <use style="stroke:#000000;stroke-width:0.6;" x="72" xlink:href="#mfd7c637bd8" y="184.210764"/>
      </g>
     </g>
     <g id="text_9">
      <!-- 0.40 -->
      <defs>
       <path d="M 37.796875 64.3125 
L 12.890625 25.390625 
L 37.796875 25.390625 
z
M 35.203125 72.90625 
L 47.609375 72.90625 
L 47.609375 25.390625 
L 58.015625 25.390625 
L 58.015625 17.1875 
L 47.609375 17.1875 
L 47.609375 0 
L 37.796875 0 
L 37.796875 17.1875 
L 4.890625 17.1875 
L 4.890625 26.703125 
z
" id="DejaVuSans-52"/>
      </defs>
      <g transform="translate(44.334375 188.009983)scale(0.1 -0.1)">
       <use xlink:href="#DejaVuSans-48"/>
       <use x="63.623047" xlink:href="#DejaVuSans-46"/>
       <use x="95.410156" xlink:href="#DejaVuSans-52"/>
       <use x="159.033203" xlink:href="#DejaVuSans-48"/>
      </g>
     </g>
    </g>
    <g id="ytick_6">
     <g id="line2d_58">
      <path clip-path="url(#p058b553280)" d="M 72 151.974618 
L 518.4 151.974618 
" style="fill:none;stroke:#b0b0b0;stroke-linecap:square;stroke-width:0.8;"/>
     </g>
     <g id="line2d_59">
      <g>
       <use style="stroke:#000000;stroke-width:0.6;" x="72" xlink:href="#mfd7c637bd8" y="151.974618"/>
      </g>
     </g>
     <g id="text_10">
      <!-- 0.50 -->
      <defs>
       <path d="M 10.796875 72.90625 
L 49.515625 72.90625 
L 49.515625 64.59375 
L 19.828125 64.59375 
L 19.828125 46.734375 
Q 21.96875 47.46875 24.109375 47.828125 
Q 26.265625 48.1875 28.421875 48.1875 
Q 40.625 48.1875 47.75 41.5 
Q 54.890625 34.8125 54.890625 23.390625 
Q 54.890625 11.625 47.5625 5.09375 
Q 40.234375 -1.421875 26.90625 -1.421875 
Q 22.3125 -1.421875 17.546875 -0.640625 
Q 12.796875 0.140625 7.71875 1.703125 
L 7.71875 11.625 
Q 12.109375 9.234375 16.796875 8.0625 
Q 21.484375 6.890625 26.703125 6.890625 
Q 35.15625 6.890625 40.078125 11.328125 
Q 45.015625 15.765625 45.015625 23.390625 
Q 45.015625 31 40.078125 35.4375 
Q 35.15625 39.890625 26.703125 39.890625 
Q 22.75 39.890625 18.8125 39.015625 
Q 14.890625 38.140625 10.796875 36.28125 
z
" id="DejaVuSans-53"/>
      </defs>
      <g transform="translate(44.334375 155.773837)scale(0.1 -0.1)">
       <use xlink:href="#DejaVuSans-48"/>
       <use x="63.623047" xlink:href="#DejaVuSans-46"/>
       <use x="95.410156" xlink:href="#DejaVuSans-53"/>
       <use x="159.033203" xlink:href="#DejaVuSans-48"/>
      </g>
     </g>
    </g>
    <g id="ytick_7">
     <g id="line2d_60">
      <path clip-path="url(#p058b553280)" d="M 72 116.312293 
L 518.4 116.312293 
" style="fill:none;stroke:#b0b0b0;stroke-linecap:square;stroke-width:0.8;"/>
     </g>
     <g id="line2d_61">
      <g>
       <use style="stroke:#000000;stroke-width:0.6;" x="72" xlink:href="#mfd7c637bd8" y="116.312293"/>
      </g>
     </g>
     <g id="text_11">
      <!-- 0.64 -->
      <defs>
       <path d="M 33.015625 40.375 
Q 26.375 40.375 22.484375 35.828125 
Q 18.609375 31.296875 18.609375 23.390625 
Q 18.609375 15.53125 22.484375 10.953125 
Q 26.375 6.390625 33.015625 6.390625 
Q 39.65625 6.390625 43.53125 10.953125 
Q 47.40625 15.53125 47.40625 23.390625 
Q 47.40625 31.296875 43.53125 35.828125 
Q 39.65625 40.375 33.015625 40.375 
z
M 52.59375 71.296875 
L 52.59375 62.3125 
Q 48.875 64.0625 45.09375 64.984375 
Q 41.3125 65.921875 37.59375 65.921875 
Q 27.828125 65.921875 22.671875 59.328125 
Q 17.53125 52.734375 16.796875 39.40625 
Q 19.671875 43.65625 24.015625 45.921875 
Q 28.375 48.1875 33.59375 48.1875 
Q 44.578125 48.1875 50.953125 41.515625 
Q 57.328125 34.859375 57.328125 23.390625 
Q 57.328125 12.15625 50.6875 5.359375 
Q 44.046875 -1.421875 33.015625 -1.421875 
Q 20.359375 -1.421875 13.671875 8.265625 
Q 6.984375 17.96875 6.984375 36.375 
Q 6.984375 53.65625 15.1875 63.9375 
Q 23.390625 74.21875 37.203125 74.21875 
Q 40.921875 74.21875 44.703125 73.484375 
Q 48.484375 72.75 52.59375 71.296875 
z
" id="DejaVuSans-54"/>
      </defs>
      <g transform="translate(44.334375 120.111512)scale(0.1 -0.1)">
       <use xlink:href="#DejaVuSans-48"/>
       <use x="63.623047" xlink:href="#DejaVuSans-46"/>
       <use x="95.410156" xlink:href="#DejaVuSans-54"/>
       <use x="159.033203" xlink:href="#DejaVuSans-52"/>
      </g>
     </g>
    </g>
    <g id="ytick_8">
     <g id="line2d_62">
      <path clip-path="url(#p058b553280)" d="M 72 84.076147 
L 518.4 84.076147 
" style="fill:none;stroke:#b0b0b0;stroke-linecap:square;stroke-width:0.8;"/>
     </g>
     <g id="line2d_63">
      <g>
       <use style="stroke:#000000;stroke-width:0.6;" x="72" xlink:href="#mfd7c637bd8" y="84.076147"/>
      </g>
     </g>
     <g id="text_12">
      <!-- 0.80 -->
      <defs>
       <path d="M 31.78125 34.625 
Q 24.75 34.625 20.71875 30.859375 
Q 16.703125 27.09375 16.703125 20.515625 
Q 16.703125 13.921875 20.71875 10.15625 
Q 24.75 6.390625 31.78125 6.390625 
Q 38.8125 6.390625 42.859375 10.171875 
Q 46.921875 13.96875 46.921875 20.515625 
Q 46.921875 27.09375 42.890625 30.859375 
Q 38.875 34.625 31.78125 34.625 
z
M 21.921875 38.8125 
Q 15.578125 40.375 12.03125 44.71875 
Q 8.5 49.078125 8.5 55.328125 
Q 8.5 64.0625 14.71875 69.140625 
Q 20.953125 74.21875 31.78125 74.21875 
Q 42.671875 74.21875 48.875 69.140625 
Q 55.078125 64.0625 55.078125 55.328125 
Q 55.078125 49.078125 51.53125 44.71875 
Q 48 40.375 41.703125 38.8125 
Q 48.828125 37.15625 52.796875 32.3125 
Q 56.78125 27.484375 56.78125 20.515625 
Q 56.78125 9.90625 50.3125 4.234375 
Q 43.84375 -1.421875 31.78125 -1.421875 
Q 19.734375 -1.421875 13.25 4.234375 
Q 6.78125 9.90625 6.78125 20.515625 
Q 6.78125 27.484375 10.78125 32.3125 
Q 14.796875 37.15625 21.921875 38.8125 
z
M 18.3125 54.390625 
Q 18.3125 48.734375 21.84375 45.5625 
Q 25.390625 42.390625 31.78125 42.390625 
Q 38.140625 42.390625 41.71875 45.5625 
Q 45.3125 48.734375 45.3125 54.390625 
Q 45.3125 60.0625 41.71875 63.234375 
Q 38.140625 66.40625 31.78125 66.40625 
Q 25.390625 66.40625 21.84375 63.234375 
Q 18.3125 60.0625 18.3125 54.390625 
z
" id="DejaVuSans-56"/>
      </defs>
      <g transform="translate(44.334375 87.875365)scale(0.1 -0.1)">
       <use xlink:href="#DejaVuSans-48"/>
       <use x="63.623047" xlink:href="#DejaVuSans-46"/>
       <use x="95.410156" xlink:href="#DejaVuSans-56"/>
       <use x="159.033203" xlink:href="#DejaVuSans-48"/>
      </g>
     </g>
    </g>
    <g id="text_13">
     <!-- Miss rate -->
     <defs>
      <path d="M 9.8125 72.90625 
L 24.515625 72.90625 
L 43.109375 23.296875 
L 61.8125 72.90625 
L 76.515625 72.90625 
L 76.515625 0 
L 66.890625 0 
L 66.890625 64.015625 
L 48.09375 14.015625 
L 38.1875 14.015625 
L 19.390625 64.015625 
L 19.390625 0 
L 9.8125 0 
z
" id="DejaVuSans-77"/>
      <path d="M 9.421875 54.6875 
L 18.40625 54.6875 
L 18.40625 0 
L 9.421875 0 
z
M 9.421875 75.984375 
L 18.40625 75.984375 
L 18.40625 64.59375 
L 9.421875 64.59375 
z
" id="DejaVuSans-105"/>
      <path d="M 44.28125 53.078125 
L 44.28125 44.578125 
Q 40.484375 46.53125 36.375 47.5 
Q 32.28125 48.484375 27.875 48.484375 
Q 21.1875 48.484375 17.84375 46.4375 
Q 14.5 44.390625 14.5 40.28125 
Q 14.5 37.15625 16.890625 35.375 
Q 19.28125 33.59375 26.515625 31.984375 
L 29.59375 31.296875 
Q 39.15625 29.25 43.1875 25.515625 
Q 47.21875 21.78125 47.21875 15.09375 
Q 47.21875 7.46875 41.1875 3.015625 
Q 35.15625 -1.421875 24.609375 -1.421875 
Q 20.21875 -1.421875 15.453125 -0.5625 
Q 10.6875 0.296875 5.421875 2 
L 5.421875 11.28125 
Q 10.40625 8.6875 15.234375 7.390625 
Q 20.0625 6.109375 24.8125 6.109375 
Q 31.15625 6.109375 34.5625 8.28125 
Q 37.984375 10.453125 37.984375 14.40625 
Q 37.984375 18.0625 35.515625 20.015625 
Q 33.0625 21.96875 24.703125 23.78125 
L 21.578125 24.515625 
Q 13.234375 26.265625 9.515625 29.90625 
Q 5.8125 33.546875 5.8125 39.890625 
Q 5.8125 47.609375 11.28125 51.796875 
Q 16.75 56 26.8125 56 
Q 31.78125 56 36.171875 55.265625 
Q 40.578125 54.546875 44.28125 53.078125 
z
" id="DejaVuSans-115"/>
      <path id="DejaVuSans-32"/>
      <path d="M 41.109375 46.296875 
Q 39.59375 47.171875 37.8125 47.578125 
Q 36.03125 48 33.890625 48 
Q 26.265625 48 22.1875 43.046875 
Q 18.109375 38.09375 18.109375 28.8125 
L 18.109375 0 
L 9.078125 0 
L 9.078125 54.6875 
L 18.109375 54.6875 
L 18.109375 46.1875 
Q 20.953125 51.171875 25.484375 53.578125 
Q 30.03125 56 36.53125 56 
Q 37.453125 56 38.578125 55.875 
Q 39.703125 55.765625 41.0625 55.515625 
z
" id="DejaVuSans-114"/>
      <path d="M 34.28125 27.484375 
Q 23.390625 27.484375 19.1875 25 
Q 14.984375 22.515625 14.984375 16.5 
Q 14.984375 11.71875 18.140625 8.90625 
Q 21.296875 6.109375 26.703125 6.109375 
Q 34.1875 6.109375 38.703125 11.40625 
Q 43.21875 16.703125 43.21875 25.484375 
L 43.21875 27.484375 
z
M 52.203125 31.203125 
L 52.203125 0 
L 43.21875 0 
L 43.21875 8.296875 
Q 40.140625 3.328125 35.546875 0.953125 
Q 30.953125 -1.421875 24.3125 -1.421875 
Q 15.921875 -1.421875 10.953125 3.296875 
Q 6 8.015625 6 15.921875 
Q 6 25.140625 12.171875 29.828125 
Q 18.359375 34.515625 30.609375 34.515625 
L 43.21875 34.515625 
L 43.21875 35.40625 
Q 43.21875 41.609375 39.140625 45 
Q 35.0625 48.390625 27.6875 48.390625 
Q 23 48.390625 18.546875 47.265625 
Q 14.109375 46.140625 10.015625 43.890625 
L 10.015625 52.203125 
Q 14.9375 54.109375 19.578125 55.046875 
Q 24.21875 56 28.609375 56 
Q 40.484375 56 46.34375 49.84375 
Q 52.203125 43.703125 52.203125 31.203125 
z
" id="DejaVuSans-97"/>
      <path d="M 18.3125 70.21875 
L 18.3125 54.6875 
L 36.8125 54.6875 
L 36.8125 47.703125 
L 18.3125 47.703125 
L 18.3125 18.015625 
Q 18.3125 11.328125 20.140625 9.421875 
Q 21.96875 7.515625 27.59375 7.515625 
L 36.8125 7.515625 
L 36.8125 0 
L 27.59375 0 
Q 17.1875 0 13.234375 3.875 
Q 9.28125 7.765625 9.28125 18.015625 
L 9.28125 47.703125 
L 2.6875 47.703125 
L 2.6875 54.6875 
L 9.28125 54.6875 
L 9.28125 70.21875 
z
" id="DejaVuSans-116"/>
      <path d="M 56.203125 29.59375 
L 56.203125 25.203125 
L 14.890625 25.203125 
Q 15.484375 15.921875 20.484375 11.0625 
Q 25.484375 6.203125 34.421875 6.203125 
Q 39.59375 6.203125 44.453125 7.46875 
Q 49.3125 8.734375 54.109375 11.28125 
L 54.109375 2.78125 
Q 49.265625 0.734375 44.1875 -0.34375 
Q 39.109375 -1.421875 33.890625 -1.421875 
Q 20.796875 -1.421875 13.15625 6.1875 
Q 5.515625 13.8125 5.515625 26.8125 
Q 5.515625 40.234375 12.765625 48.109375 
Q 20.015625 56 32.328125 56 
Q 43.359375 56 49.78125 48.890625 
Q 56.203125 41.796875 56.203125 29.59375 
z
M 47.21875 32.234375 
Q 47.125 39.59375 43.09375 43.984375 
Q 39.0625 48.390625 32.421875 48.390625 
Q 24.90625 48.390625 20.390625 44.140625 
Q 15.875 39.890625 15.1875 32.171875 
z
" id="DejaVuSans-101"/>
     </defs>
     <g transform="translate(38.254687 240.817812)rotate(-90)scale(0.1 -0.1)">
      <use xlink:href="#DejaVuSans-77"/>
      <use x="86.279297" xlink:href="#DejaVuSans-105"/>
      <use x="114.0625" xlink:href="#DejaVuSans-115"/>
      <use x="166.162109" xlink:href="#DejaVuSans-115"/>
      <use x="218.261719" xlink:href="#DejaVuSans-32"/>
      <use x="250.048828" xlink:href="#DejaVuSans-114"/>
      <use x="291.162109" xlink:href="#DejaVuSans-97"/>
      <use x="352.441406" xlink:href="#DejaVuSans-116"/>
      <use x="391.650391" xlink:href="#DejaVuSans-101"/>
     </g>
    </g>
   </g>
   <g id="line2d_64">
    <path clip-path="url(#p058b553280)" d="M -1 58.395095 
L 119.559519 58.475914 
L 119.559519 61.003991 
L 136.894249 61.003991 
L 136.894249 61.086283 
L 136.894249 62.492468 
L 149.193435 62.492468 
L 149.193435 62.575613 
L 149.193435 65.092466 
L 158.733425 65.092466 
L 158.733425 65.177121 
L 158.733425 65.431384 
L 166.528165 65.431384 
L 166.528165 65.516238 
L 166.528165 65.601142 
L 173.118523 65.601142 
L 173.118523 65.686095 
L 173.118523 65.941257 
L 178.827351 65.941257 
L 178.827351 66.026411 
L 178.827351 70.173979 
L 183.862894 70.173979 
L 183.862894 70.261666 
L 183.862894 70.876967 
L 188.367341 70.876967 
L 188.367341 70.965082 
L 188.367341 74.173538 
L 192.442109 74.173538 
L 192.442109 74.263687 
L 192.442109 74.534472 
L 196.162081 74.534472 
L 196.162081 74.624846 
L 196.162081 74.805765 
L 199.584123 74.805765 
L 199.584123 74.89631 
L 199.584123 80.435533 
L 202.752439 80.435533 
L 202.752439 80.529677 
L 202.752439 80.623882 
L 205.702071 80.623882 
L 205.702071 80.718149 
L 205.702071 81.001319 
L 208.461267 81.001319 
L 208.461267 81.095832 
L 208.461267 81.285045 
L 211.053134 81.285045 
L 211.053134 81.379744 
L 211.053134 81.664215 
L 213.49681 81.664215 
L 213.49681 81.759163 
L 213.49681 82.234842 
L 215.80833 82.234842 
L 215.80833 82.330166 
L 215.80833 82.521004 
L 218.001257 82.521004 
L 218.001257 82.616517 
L 218.001257 83.478989 
L 223.976458 83.575138 
L 223.976458 84.927986 
L 225.795997 84.927986 
L 225.795997 85.025104 
L 225.795997 85.414232 
L 227.541247 85.414232 
L 227.541247 85.511678 
L 227.541247 85.902121 
L 229.218039 85.902121 
L 229.218039 85.999897 
L 229.218039 87.178397 
L 230.83154 87.277041 
L 230.83154 87.672291 
L 232.386355 87.672291 
L 232.386355 87.771272 
L 232.386355 88.068625 
L 235.335987 88.068625 
L 235.335987 88.167879 
L 235.335987 88.2672 
L 238.095183 88.366591 
L 238.095183 88.466049 
L 239.410755 88.466049 
L 239.410755 88.565577 
L 239.410755 91.380547 
L 240.68705 91.380547 
L 240.68705 91.482103 
L 240.68705 91.583731 
L 241.926345 91.583731 
L 241.926345 91.68543 
L 241.926345 93.528365 
L 243.130726 93.528365 
L 243.130726 93.631443 
L 243.130726 94.147939 
L 244.302107 94.147939 
L 244.302107 94.25146 
L 244.302107 94.355056 
L 246.552768 94.355056 
L 246.552768 94.458725 
L 246.552768 95.082311 
L 247.635173 95.082311 
L 247.635173 95.186504 
L 247.635173 95.395116 
L 248.690849 95.395116 
L 248.690849 95.499535 
L 248.690849 96.127639 
L 249.721085 96.127639 
L 249.721085 96.232589 
L 249.721085 96.337615 
L 250.727077 96.337615 
L 250.727077 96.442718 
L 250.727077 96.969382 
L 252.670716 97.074945 
L 252.670716 97.3921 
L 253.610374 97.3921 
L 253.610374 97.497973 
L 253.610374 97.709952 
L 255.429913 97.709952 
L 255.429913 97.816058 
L 255.429913 97.922242 
L 258.021779 98.028505 
L 258.021779 98.881429 
L 258.851955 98.881429 
L 258.851955 98.9884 
L 258.851955 99.309788 
L 259.666317 99.309788 
L 259.666317 99.417076 
L 259.666317 100.386273 
L 260.465456 100.386273 
L 260.465456 100.494364 
L 260.465456 100.71079 
L 262.020271 100.819124 
L 262.020271 101.144615 
L 263.52052 101.144615 
L 263.52052 101.253275 
L 263.52052 101.579747 
L 265.676575 101.688735 
L 265.676575 102.234912 
L 266.371756 102.234912 
L 266.371756 102.344396 
L 266.371756 102.563612 
L 267.055814 102.563612 
L 267.055814 102.673346 
L 267.055814 102.893062 
L 268.391945 102.893062 
L 268.391945 103.003046 
L 268.391945 103.113114 
L 269.044671 103.113114 
L 269.044671 103.223265 
L 269.044671 103.443821 
L 270.320966 103.554225 
L 270.320966 103.775286 
L 272.166693 103.885944 
L 272.166693 103.996687 
L 273.354344 104.107514 
L 273.354344 104.329425 
L 273.936023 104.329425 
L 273.936023 104.440508 
L 273.936023 105.108807 
L 274.509893 105.108807 
L 274.509893 105.332262 
L 275.076162 105.332262 
L 275.076162 105.780212 
L 275.635029 105.780212 
L 275.635029 106.117088 
L 276.186684 106.117088 
L 276.186684 106.34211 
L 276.731312 106.34211 
L 276.731312 106.454752 
L 277.269089 106.454752 
L 277.269089 106.6803 
L 277.800186 106.6803 
L 277.800186 107.019285 
L 278.842986 107.019285 
L 278.842986 107.359066 
L 280.360993 107.359066 
L 280.360993 107.699649 
L 281.343857 107.699649 
L 281.343857 108.155011 
L 283.24429 108.155011 
L 283.24429 108.383232 
L 283.706486 108.383232 
L 283.706486 108.611814 
L 284.163739 108.611814 
L 284.163739 108.726241 
L 284.616152 108.726241 
L 284.616152 108.840758 
L 285.063829 108.840758 
L 285.063829 108.955367 
L 286.3794 108.955367 
L 286.3794 109.299738 
L 287.234483 109.299738 
L 287.234483 109.644932 
L 288.072798 109.644932 
L 288.072798 110.453608 
L 288.485871 110.453608 
L 288.485871 110.685492 
L 288.894991 110.685492 
L 288.894991 110.917748 
L 289.300233 110.917748 
L 289.300233 111.034017 
L 289.701669 111.034017 
L 289.701669 111.266835 
L 290.099372 111.266835 
L 290.099372 111.500029 
L 290.883847 111.500029 
L 290.883847 111.616768 
L 291.654187 111.616768 
L 291.654187 111.850528 
L 292.034214 111.850528 
L 292.034214 112.084667 
L 292.410892 112.084667 
L 292.410892 112.201879 
L 293.154436 112.201879 
L 293.154436 112.554086 
L 294.246053 112.554086 
L 294.246053 112.67168 
L 294.603819 112.67168 
L 294.603819 112.789369 
L 295.310491 112.789369 
L 295.310491 112.907155 
L 295.659495 112.907155 
L 295.659495 113.143014 
L 296.349069 113.143014 
L 296.349069 113.497526 
L 296.68973 113.497526 
L 296.68973 114.09032 
L 297.027698 114.09032 
L 297.027698 114.566313 
L 297.363015 114.566313 
L 297.363015 114.685557 
L 297.695723 114.685557 
L 297.695723 114.804899 
L 298.353469 114.804899 
L 298.353469 114.92434 
L 298.678587 114.92434 
L 298.678587 115.04388 
L 300.26809 115.04388 
L 300.26809 115.52303 
L 300.887705 115.52303 
L 300.887705 115.763203 
L 301.194177 115.763203 
L 301.194177 115.883439 
L 301.800609 115.883439 
L 301.800609 116.124212 
L 302.100629 116.124212 
L 302.100629 116.365386 
L 302.398558 116.365386 
L 302.398558 117.091336 
L 302.694426 117.091336 
L 302.694426 117.212683 
L 302.98826 117.212683 
L 302.98826 117.334133 
L 303.569938 117.334133 
L 303.569938 117.577338 
L 304.143809 117.577338 
L 304.143809 117.699094 
L 304.990425 117.699094 
L 304.990425 117.820953 
L 305.268945 117.820953 
L 305.268945 117.942914 
L 305.545662 117.942914 
L 305.545662 118.309419 
L 305.8206 118.309419 
L 305.8206 118.431794 
L 306.093782 118.431794 
L 306.093782 118.676855 
L 306.365228 118.676855 
L 306.365228 119.045229 
L 307.697196 119.045229 
L 307.697196 119.168229 
L 308.733676 119.168229 
L 308.733676 119.291334 
L 309.494872 119.291334 
L 309.494872 119.414544 
L 312.175406 119.414544 
L 312.175406 119.537859 
L 312.410959 119.537859 
L 312.410959 119.66128 
L 312.645221 119.66128 
L 312.645221 119.908437 
L 313.109929 119.908437 
L 313.109929 120.528188 
L 313.340402 120.528188 
L 313.340402 120.652458 
L 313.797654 120.652458 
L 313.797654 120.776835 
L 314.250068 120.776835 
L 314.250068 120.901319 
L 314.474492 120.901319 
L 314.474492 121.025911 
L 314.919837 121.025911 
L 314.919837 121.650484 
L 315.140782 121.650484 
L 315.140782 122.27777 
L 316.013316 122.27777 
L 316.013316 122.403555 
L 316.228696 122.403555 
L 316.228696 122.781568 
L 316.656226 122.781568 
L 316.656226 122.907792 
L 316.868399 122.907792 
L 316.868399 124.686611 
L 317.079524 124.686611 
L 317.079524 124.814512 
L 317.706714 124.814512 
L 317.706714 125.070653 
L 318.324836 125.070653 
L 318.324836 125.198894 
L 318.934149 125.198894 
L 318.934149 125.32725 
L 319.534899 125.32725 
L 319.534899 125.584303 
L 320.32299 125.584303 
L 320.32299 125.841814 
L 320.711653 125.841814 
L 320.711653 125.970742 
L 321.096815 125.970742 
L 321.096815 126.099785 
L 321.288103 126.099785 
L 321.288103 126.228943 
L 321.478538 126.228943 
L 321.478538 126.358217 
L 322.23191 126.358217 
L 322.23191 126.617113 
L 322.418196 126.617113 
L 322.418196 126.746735 
L 322.788352 126.746735 
L 322.788352 126.876473 
L 323.337645 126.876473 
L 323.337645 127.266389 
L 323.699958 127.266389 
L 323.699958 127.65736 
L 323.879969 127.65736 
L 323.879969 127.787919 
L 324.059226 127.787919 
L 324.059226 128.180306 
L 324.415501 128.180306 
L 324.415501 128.442491 
L 325.639588 128.442491 
L 325.639588 128.705152 
L 325.982985 128.705152 
L 325.982985 128.836662 
L 326.492964 128.836662 
L 326.492964 128.968292 
L 326.661614 128.968292 
L 326.661614 129.231912 
L 326.829601 129.231912 
L 326.829601 129.496014 
L 326.996931 129.496014 
L 326.996931 130.158389 
L 327.329639 130.158389 
L 327.329639 130.291229 
L 327.823895 130.291229 
L 327.823895 130.823815 
L 328.474139 130.823815 
L 328.474139 131.224547 
L 329.273278 131.224547 
L 329.273278 131.358371 
L 330.367557 131.358371 
L 330.367557 132.163933 
L 330.828093 132.163933 
L 330.828093 132.298631 
L 331.132384 132.298631 
L 331.132384 132.433455 
L 331.584798 132.433455 
L 331.584798 132.568405 
L 331.883769 132.568405 
L 331.883769 132.838683 
L 332.180664 132.838683 
L 332.180664 133.924882 
L 332.328342 133.924882 
L 332.328342 134.061233 
L 332.768339 134.061233 
L 332.768339 134.334321 
L 333.203854 134.334321 
L 333.203854 134.744924 
L 333.634978 134.744924 
L 333.634978 135.019309 
L 333.919997 135.019309 
L 333.919997 135.294216 
L 334.061797 135.294216 
L 334.061797 135.845605 
L 334.902861 135.845605 
L 334.902861 135.983782 
L 335.999144 135.983782 
L 335.999144 136.260532 
L 336.268878 136.260532 
L 336.268878 136.399107 
L 336.803294 136.399107 
L 336.803294 136.537814 
L 337.331112 136.537814 
L 337.331112 136.676655 
L 337.722742 136.676655 
L 337.722742 137.372867 
L 337.852493 137.372867 
L 337.852493 137.652294 
L 338.110818 137.652294 
L 338.110818 137.79221 
L 338.367592 137.79221 
L 338.367592 137.932262 
L 338.495403 137.932262 
L 338.495403 138.07245 
L 338.622833 138.07245 
L 338.622833 138.353235 
L 338.876559 138.353235 
L 338.876559 138.634567 
L 339.128788 138.634567 
L 339.128788 138.775438 
L 339.254346 138.775438 
L 339.254346 138.916447 
L 339.752926 138.916447 
L 339.752926 139.198879 
L 340.245758 139.198879 
L 340.245758 139.340302 
L 340.368083 139.340302 
L 340.368083 139.481864 
L 341.927261 139.481864 
L 341.927261 139.623564 
L 342.279137 139.623564 
L 342.279137 139.907383 
L 342.62814 139.907383 
L 342.62814 140.049502 
L 342.743845 140.049502 
L 342.743845 140.19176 
L 342.974318 140.19176 
L 342.974318 140.334159 
L 343.658376 140.334159 
L 343.658376 140.619379 
L 343.771329 140.619379 
L 343.771329 140.7622 
L 343.883984 140.7622 
L 343.883984 140.905163 
L 344.664368 140.905163 
L 344.664368 141.334902 
L 344.774698 141.334902 
L 345.103989 141.334902 
L 345.103989 141.478432 
L 345.213191 141.478432 
L 345.430762 141.478432 
L 345.539134 141.909882 
L 345.647232 141.909882 
L 345.755057 142.198233 
L 345.969896 142.198233 
L 345.969896 142.342625 
L 346.076911 142.342625 
L 346.18366 142.342625 
L 346.18366 142.776667 
L 346.290142 142.776667 
L 346.818612 142.776667 
L 346.818612 142.921638 
L 346.923527 142.921638 
L 347.444273 142.921638 
L 347.444273 143.212018 
L 347.547665 143.212018 
L 347.753703 143.212018 
L 347.85635 143.648684 
L 348.060909 143.648684 
L 348.060909 143.794534 
L 348.162823 143.794534 
L 348.264494 143.794534 
L 348.264494 143.94053 
L 348.365924 143.94053 
L 348.568065 143.94053 
L 348.568065 144.086675 
L 348.668778 144.086675 
L 349.268124 144.086675 
L 349.268124 144.232967 
L 349.367204 144.232967 
L 349.663071 144.232967 
L 349.761241 144.525997 
L 349.859185 144.525997 
L 349.956906 145.113846 
L 350.054403 145.113846 
L 350.054403 145.261183 
L 350.151679 145.261183 
L 350.345569 145.261183 
L 350.345569 145.40867 
L 350.442186 145.40867 
L 351.017343 145.40867 
L 351.017343 145.556308 
L 351.112454 145.556308 
L 351.396527 145.556308 
L 351.490799 145.852037 
L 351.772377 145.852037 
L 351.772377 146.148373 
L 351.865826 146.148373 
L 353.153101 146.148373 
L 353.153101 147.041046 
L 353.243583 147.041046 
L 353.603608 147.041046 
L 353.603608 147.190362 
L 353.693142 147.190362 
L 353.871651 147.190362 
L 353.871651 147.339833 
L 353.960626 147.339833 
L 354.138024 147.339833 
L 354.138024 147.489459 
L 354.226447 147.489459 
L 354.578323 147.489459 
L 354.578323 147.63924 
L 354.665841 147.63924 
L 355.100766 147.63924 
L 355.187222 148.089517 
L 355.359612 148.089517 
L 355.359612 148.239922 
L 355.445548 148.239922 
L 355.53131 148.239922 
L 355.616901 148.541202 
L 355.702321 148.541202 
L 355.787571 148.843111 
L 356.463517 148.843111 
L 356.463517 148.994303 
L 356.547264 148.994303 
L 356.797524 148.994303 
L 356.797524 149.297162 
L 356.88062 149.297162 
L 357.046328 149.297162 
L 357.128942 149.600658 
L 357.702813 149.600658 
L 357.702813 149.904792 
L 357.784169 149.904792 
L 357.865371 149.904792 
L 357.946419 150.362197 
L 358.027313 150.362197 
L 358.027313 150.514988 
L 358.108055 150.514988 
L 358.986292 150.514988 
L 359.065245 150.821055 
L 359.222713 150.821055 
L 359.222713 150.974332 
L 359.301231 150.974332 
L 359.379604 150.974332 
L 359.379604 151.127772 
L 359.457834 151.127772 
L 359.535921 151.127772 
L 359.535921 151.435142 
L 359.613866 151.435142 
L 359.769331 151.435142 
L 359.769331 151.589073 
L 359.846852 151.589073 
L 360.001473 151.589073 
L 360.001473 151.897426 
L 360.078574 151.897426 
L 360.232361 151.897426 
L 360.232361 152.05185 
L 360.309047 152.05185 
L 360.538285 152.05185 
L 360.538285 152.20644 
L 360.614425 152.20644 
L 360.917637 152.20644 
L 360.917637 152.516116 
L 360.993105 152.516116 
L 361.368461 152.516116 
L 361.443138 152.826457 
L 361.740549 152.826457 
L 361.740549 152.981878 
L 361.81458 152.981878 
L 362.182823 152.981878 
L 362.256092 153.449146 
L 362.47515 153.449146 
L 362.47515 153.605239 
L 362.54792 153.605239 
L 362.693091 153.605239 
L 362.693091 153.917931 
L 362.765492 153.917931 
L 363.482836 153.917931 
L 363.482836 154.074531 
L 363.553913 154.074531 
L 363.695713 154.074531 
L 363.695713 154.231301 
L 363.766437 154.231301 
L 364.397744 154.231301 
L 364.397744 154.545353 
L 364.467317 154.545353 
L 364.536777 154.545353 
L 364.536777 154.702635 
L 364.606124 154.702635 
L 364.67536 154.702635 
L 364.67536 154.860089 
L 364.744483 154.860089 
L 364.951184 154.860089 
L 365.019863 155.491625 
L 365.293482 155.491625 
L 365.361613 155.808432 
L 365.969963 155.808432 
L 365.969963 155.967096 
L 366.037026 155.967096 
L 366.635906 155.967096 
L 366.635906 156.125935 
L 366.701933 156.125935 
L 367.030549 156.125935 
L 367.030549 156.284948 
L 367.09597 156.284948 
L 367.356658 156.284948 
L 367.356658 156.444137 
L 367.421583 156.444137 
L 369.324836 156.444137 
L 369.386842 156.763041 
L 369.81838 156.763041 
L 369.879674 157.242722 
L 370.063031 157.242722 
L 370.063031 157.40297 
L 370.123976 157.40297 
L 370.366889 157.40297 
L 370.427403 158.045746 
L 370.788695 158.045746 
L 370.848615 158.36821 
L 370.908451 158.36821 
L 370.908451 158.529712 
L 370.968203 158.529712 
L 371.265718 158.529712 
L 371.265718 158.691395 
L 371.324973 158.691395 
L 371.443238 158.691395 
L 371.443238 158.85326 
L 371.502248 158.85326 
L 372.146038 158.85326 
L 372.204086 159.177533 
L 372.435495 159.177533 
L 372.435495 159.828271 
L 372.493152 159.828271 
L 372.894589 159.828271 
L 372.894589 159.991415 
L 372.951631 159.991415 
L 373.065486 159.991415 
L 373.065486 160.154743 
L 373.122301 160.154743 
L 373.63026 160.154743 
L 373.686329 160.481955 
L 374.021208 160.481955 
L 374.021208 160.974165 
L 374.132254 160.974165 
L 374.463672 160.974165 
L 374.463672 161.138609 
L 374.573576 161.138609 
L 374.683199 161.138609 
L 374.683199 161.30324 
L 374.792541 161.30324 
L 374.847107 161.30324 
L 374.847107 161.468059 
L 374.956031 161.468059 
L 375.87085 161.468059 
L 375.87085 161.633066 
L 375.9772 161.633066 
L 376.347356 161.633066 
L 376.347356 161.963647 
L 376.452528 161.963647 
L 376.818609 161.963647 
L 376.818609 162.129221 
L 376.92263 162.129221 
L 377.078189 162.129221 
L 377.078189 162.46094 
L 377.181581 162.46094 
L 377.541498 162.46094 
L 377.592668 162.793423 
L 377.643777 162.793423 
L 377.796739 162.793423 
L 377.796739 162.959952 
L 377.89841 162.959952 
L 378.151535 162.959952 
L 378.151535 163.126673 
L 378.252367 163.126673 
L 379.14931 163.126673 
L 379.198592 163.460693 
L 379.247818 163.460693 
L 379.3461 163.460693 
L 379.3461 163.627994 
L 379.444157 163.627994 
L 380.124328 163.627994 
L 380.124328 163.795488 
L 380.220618 163.795488 
L 380.268682 163.795488 
L 380.316691 164.13106 
L 380.364647 164.13106 
L 380.651259 164.13106 
L 380.698841 164.467413 
L 380.74637 164.467413 
L 380.841271 164.467413 
L 380.888642 164.804552 
L 380.935961 164.804552 
L 381.406293 164.804552 
L 381.406293 164.973416 
L 381.499742 164.973416 
L 381.732473 164.973416 
L 381.732473 165.142479 
L 381.825212 165.142479 
L 381.963945 165.142479 
L 381.963945 165.311739 
L 382.056184 165.311739 
L 382.148224 165.311739 
L 382.148224 165.481198 
L 382.240067 165.481198 
L 382.468814 165.481198 
L 382.468814 166.331487 
L 382.559971 166.331487 
L 383.102869 166.331487 
L 383.192686 166.673009 
L 383.416406 166.673009 
L 383.461009 167.01534 
L 383.505567 167.01534 
L 383.816174 167.01534 
L 383.904506 167.530363 
L 383.992656 167.530363 
L 384.036663 168.047228 
L 384.080625 168.047228 
L 384.387097 168.047228 
L 384.387097 168.219929 
L 384.474258 168.219929 
L 384.821138 168.219929 
L 384.864301 168.739271 
L 384.90742 168.739271 
L 384.993528 168.739271 
L 385.079464 169.260488 
L 385.929446 169.260488 
L 385.929446 169.609013 
L 386.013522 169.609013 
L 386.139327 169.609013 
L 386.18118 170.133383 
L 386.222992 170.133383 
L 386.514536 170.133383 
L 386.514536 170.308597 
L 386.59747 170.308597 
L 386.927609 170.308597 
L 386.927609 170.484023 
L 387.009747 170.484023 
L 387.17355 170.484023 
L 387.17355 170.659663 
L 387.255217 170.659663 
L 387.902998 170.659663 
L 387.983285 171.187868 
L 388.223244 171.187868 
L 388.223244 171.71801 
L 388.302933 171.71801 
L 388.461865 171.71801 
L 388.54111 172.072523 
L 388.699161 172.072523 
L 388.699161 172.250106 
L 388.777968 172.250106 
L 388.856629 172.250106 
L 388.935147 173.14131 
L 389.01352 173.14131 
L 389.09175 173.678683 
L 389.208828 173.678683 
L 389.208828 173.858253 
L 389.286701 173.858253 
L 389.442025 173.858253 
L 389.480768 174.398305 
L 389.519475 174.398305 
L 389.904637 174.398305 
L 389.904637 174.578771 
L 389.981255 174.578771 
L 390.095925 174.578771 
L 390.13408 175.121529 
L 390.172201 175.121529 
L 390.739974 175.121529 
L 390.739974 175.302902 
L 390.815111 175.302902 
L 391.077054 175.302902 
L 391.077054 175.484503 
L 391.151601 175.484503 
L 391.226018 175.484503 
L 391.226018 175.666333 
L 391.300306 175.666333 
L 391.411497 175.666333 
L 391.411497 175.848392 
L 391.522399 175.848392 
L 391.633014 175.848392 
L 391.633014 176.03068 
L 391.743343 176.03068 
L 391.963152 176.03068 
L 391.999677 176.762144 
L 392.072634 176.762144 
L 392.399408 176.762144 
L 392.50778 177.129269 
L 392.687791 177.129269 
L 392.759584 177.681712 
L 392.795436 177.681712 
L 393.009915 177.681712 
L 393.081169 178.421605 
L 393.116752 178.421605 
L 393.223323 178.421605 
L 393.294223 178.792977 
L 393.329629 178.792977 
L 393.50622 178.792977 
L 393.541451 179.165306 
L 393.611826 179.165306 
L 394.170693 179.165306 
L 394.170693 179.351832 
L 394.274672 179.351832 
L 394.516311 179.351832 
L 394.516311 179.725606 
L 394.619454 179.725606 
L 394.722348 179.725606 
L 394.722348 179.912856 
L 394.824996 179.912856 
L 394.961477 179.912856 
L 394.961477 180.10035 
L 395.063553 180.10035 
L 395.334569 180.10035 
L 395.435759 180.476068 
L 395.637423 180.476068 
L 395.637423 180.664295 
L 395.7379 180.664295 
L 395.938147 180.664295 
L 395.938147 181.041485 
L 396.03792 181.041485 
L 396.170589 181.041485 
L 396.170589 181.23045 
L 396.269822 181.23045 
L 396.368825 181.23045 
L 396.368825 181.419662 
L 396.467599 181.419662 
L 396.729886 181.419662 
L 396.795207 181.798832 
L 396.827831 181.798832 
L 397.120325 181.798832 
L 397.120325 181.988791 
L 397.21738 181.988791 
L 397.314215 181.988791 
L 397.314215 182.179 
L 397.410831 182.179 
L 397.539314 182.179 
L 397.539314 182.36946 
L 397.635424 182.36946 
L 397.826997 182.36946 
L 397.826997 182.560171 
L 397.922463 182.560171 
L 398.14439 182.560171 
L 398.14439 182.751135 
L 398.239151 182.751135 
L 398.459445 182.751135 
L 398.490823 183.13382 
L 398.55351 183.13382 
L 398.616106 183.13382 
L 398.67861 183.709756 
L 398.709828 183.709756 
L 398.896657 183.709756 
L 398.896657 184.094993 
L 398.989766 184.094993 
L 399.544204 184.094993 
L 399.574796 184.48126 
L 399.635915 184.48126 
L 399.696947 184.48126 
L 399.72743 185.062603 
L 399.788331 185.062603 
L 399.849146 185.062603 
L 399.849146 185.256906 
L 399.940206 185.256906 
L 400.452582 185.256906 
L 400.452582 185.45147 
L 400.542367 185.45147 
L 400.572253 185.45147 
L 400.661788 185.841385 
L 401.077154 185.841385 
L 401.136164 186.232356 
L 401.165638 186.232356 
L 401.25394 186.232356 
L 401.25394 186.42824 
L 401.34206 186.42824 
L 401.605334 186.42824 
L 401.605334 186.624389 
L 401.692733 186.624389 
L 401.808988 186.624389 
L 401.808988 186.820804 
L 401.895972 186.820804 
L 402.670967 186.820804 
L 402.670967 187.214439 
L 402.756217 187.214439 
L 402.926208 187.214439 
L 402.926208 187.411659 
L 403.01095 187.411659 
L 403.404211 187.411659 
L 403.404211 187.609148 
L 403.488012 187.609148 
L 403.627317 187.609148 
L 403.682912 188.00494 
L 403.710683 188.00494 
L 404.180043 188.00494 
L 404.180043 188.203243 
L 404.289735 188.203243 
L 404.426456 188.203243 
L 404.426456 188.600667 
L 404.53552 188.600667 
L 404.779899 188.600667 
L 404.806966 188.999188 
L 404.888065 188.999188 
L 404.915064 188.999188 
L 404.915064 189.198861 
L 405.022889 189.198861 
L 405.237728 189.198861 
L 405.264507 189.398811 
L 405.344743 189.398811 
L 405.902222 189.398811 
L 405.902222 189.599038 
L 406.007589 189.599038 
L 406.060175 189.599038 
L 406.165154 190.000327 
L 406.452525 190.000327 
L 406.504567 190.604357 
L 406.556546 190.604357 
L 407.201007 190.604357 
L 407.303225 191.008452 
L 407.48152 191.008452 
L 407.506931 191.210923 
L 407.583071 191.210923 
L 407.684381 191.210923 
L 407.709671 191.616721 
L 407.785451 191.616721 
L 407.861097 191.616721 
L 407.886283 192.023661 
L 407.961751 192.023661 
L 408.037086 192.023661 
L 408.137327 192.840997 
L 408.212354 192.840997 
L 408.212354 193.046055 
L 408.312185 193.046055 
L 408.709195 193.046055 
L 408.709195 193.251405 
L 408.807874 193.251405 
L 408.980016 193.251405 
L 408.980016 193.457048 
L 409.078073 193.457048 
L 409.127017 193.457048 
L 409.151468 193.662983 
L 409.224738 193.662983 
L 409.322235 193.662983 
L 409.322235 193.869213 
L 409.419511 193.869213 
L 409.443795 193.869213 
L 409.492323 194.282557 
L 409.540795 194.282557 
L 409.685884 194.282557 
L 409.734137 194.697087 
L 409.782337 194.697087 
L 410.046465 194.697087 
L 410.118218 195.321122 
L 410.142109 195.321122 
L 410.237539 195.321122 
L 410.237539 195.529733 
L 410.332757 195.529733 
L 410.451482 195.529733 
L 410.475187 195.738647 
L 410.546224 195.738647 
L 410.593517 195.738647 
L 410.593517 195.947863 
L 410.687946 195.947863 
L 410.80569 195.947863 
L 410.899652 196.367207 
L 411.389593 196.367207 
L 411.389593 196.787771 
L 411.482282 196.787771 
L 411.528551 196.787771 
L 411.528551 196.998513 
L 411.620939 196.998513 
L 411.713128 196.998513 
L 411.713128 197.209563 
L 411.805119 197.209563 
L 412.125537 197.209563 
L 412.148332 197.420922 
L 412.216646 197.420922 
L 412.466198 197.420922 
L 412.466198 197.63259 
L 412.556584 197.63259 
L 412.714302 197.63259 
L 412.714302 197.844569 
L 412.804166 197.844569 
L 413.050322 197.844569 
L 413.139483 198.482379 
L 413.361575 198.482379 
L 413.361575 198.69561 
L 413.47219 198.69561 
L 413.736504 198.69561 
L 413.758457 198.909156 
L 413.846155 198.909156 
L 413.868051 198.909156 
L 413.955525 199.337197 
L 413.977365 199.337197 
L 414.238584 199.337197 
L 414.260281 199.981646 
L 414.346956 199.981646 
L 414.841959 199.981646 
L 414.841959 200.197102 
L 414.948814 200.197102 
L 415.055403 200.197102 
L 415.055403 200.412881 
L 415.161727 200.412881 
L 415.225394 200.412881 
L 415.267786 200.845407 
L 415.331296 200.845407 
L 415.563362 200.845407 
L 415.563362 201.279233 
L 415.668431 201.279233 
L 415.940409 201.279233 
L 415.940409 201.496635 
L 416.044557 201.496635 
L 416.499818 201.496635 
L 416.561525 201.932423 
L 416.602613 201.932423 
L 416.746113 201.932423 
L 416.807466 202.58858 
L 416.848319 202.58858 
L 416.990998 202.58858 
L 417.031676 203.02768 
L 417.092621 203.02768 
L 417.274936 203.02768 
L 417.375887 203.688842 
L 417.4162 203.688842 
L 417.4162 203.909904 
L 417.516819 203.909904 
L 417.877096 203.909904 
L 417.877096 204.131304 
L 417.976637 204.131304 
L 418.016389 204.131304 
L 418.016389 204.353045 
L 418.115606 204.353045 
L 418.155228 204.353045 
L 418.155228 204.575126 
L 418.254124 204.575126 
L 418.293619 204.575126 
L 418.293619 204.797549 
L 418.392195 204.797549 
L 418.510188 204.797549 
L 418.569063 205.243425 
L 418.608267 205.243425 
L 418.627856 205.243425 
L 418.627856 205.46688 
L 418.725666 205.46688 
L 418.764728 205.46688 
L 418.764728 205.690681 
L 418.862225 205.690681 
L 419.307873 205.690681 
L 419.307873 205.91483 
L 419.404141 205.91483 
L 419.500193 205.91483 
L 419.500193 206.139327 
L 419.59603 206.139327 
L 419.748923 206.139327 
L 419.787061 206.58937 
L 419.844204 206.58937 
L 419.901271 206.58937 
L 419.977242 207.040819 
L 419.996214 207.040819 
L 420.317451 207.040819 
L 420.411475 207.493684 
L 420.561485 207.493684 
L 420.561485 207.72065 
L 420.654974 207.72065 
L 421.063916 207.72065 
L 421.063916 207.947973 
L 421.17477 207.947973 
L 421.924677 207.947973 
L 422.033324 208.403695 
L 422.285766 208.403695 
L 422.285766 208.632096 
L 422.3935 208.632096 
L 422.41143 208.632096 
L 422.483072 209.089984 
L 422.518849 209.089984 
L 422.679473 209.089984 
L 422.679473 209.319474 
L 422.786221 209.319474 
L 422.839496 209.319474 
L 422.839496 209.549329 
L 422.945846 209.549329 
L 423.016599 209.549329 
L 423.016599 209.77955 
L 423.12251 209.77955 
L 423.648165 209.77955 
L 423.648165 210.010138 
L 423.752524 210.010138 
L 423.787254 210.010138 
L 423.85663 210.472423 
L 423.891276 210.472423 
L 424.064084 210.472423 
L 424.11579 210.936191 
L 424.167435 210.936191 
L 424.236196 210.936191 
L 424.236196 211.168635 
L 424.339132 211.168635 
L 424.493073 211.168635 
L 424.493073 211.634647 
L 424.595393 211.634647 
L 424.629445 211.634647 
L 424.629445 211.868218 
L 424.73144 211.868218 
L 424.799301 211.868218 
L 424.799301 212.102168 
L 424.900892 212.102168 
L 425.271339 212.102168 
L 425.271339 212.336497 
L 425.371816 212.336497 
L 425.48874 212.336497 
L 425.48874 212.571206 
L 425.588708 212.571206 
L 426.002741 212.571206 
L 426.002741 212.806298 
L 426.101515 212.806298 
L 426.429123 212.806298 
L 426.429123 213.041772 
L 426.526918 213.041772 
L 427.157191 213.041772 
L 427.157191 213.277632 
L 427.253336 213.277632 
L 427.26934 213.277632 
L 427.26934 213.513876 
L 427.365234 213.513876 
L 427.508672 213.513876 
L 427.508672 213.750508 
L 427.604032 213.750508 
L 427.635771 213.750508 
L 427.635771 213.987528 
L 427.746673 213.987528 
L 427.762493 213.987528 
L 427.762493 214.224938 
L 427.873067 214.224938 
L 427.967618 214.224938 
L 427.967618 214.462738 
L 428.077663 214.462738 
L 428.312526 214.462738 
L 428.343744 214.939517 
L 428.421688 214.939517 
L 428.947977 214.939517 
L 428.947977 215.178497 
L 429.055531 215.178497 
L 429.162815 215.178497 
L 429.162815 215.417874 
L 429.269831 215.417874 
L 429.725459 215.417874 
L 429.740564 215.89782 
L 429.831077 215.89782 
L 429.861206 215.89782 
L 429.861206 216.138393 
L 429.96649 216.138393 
L 430.086498 216.138393 
L 430.086498 216.379366 
L 430.191229 216.379366 
L 430.755335 216.379366 
L 430.755335 216.620743 
L 430.858442 216.620743 
L 431.034621 216.620743 
L 431.078553 217.104709 
L 431.137058 217.104709 
L 431.297536 217.104709 
L 431.297536 217.347301 
L 431.399345 217.347301 
L 431.457414 217.347301 
L 431.529888 218.321765 
L 431.558844 218.321765 
L 431.660033 218.321765 
L 431.660033 218.566412 
L 431.760984 218.566412 
L 431.775387 218.566412 
L 431.775387 218.811473 
L 431.876066 218.811473 
L 432.276428 218.811473 
L 432.276428 219.056951 
L 432.375936 219.056951 
L 433.177705 219.056951 
L 433.261233 219.549162 
L 433.275139 219.549162 
L 433.427802 219.549162 
L 433.427802 219.795897 
L 433.538489 219.795897 
L 433.717746 219.795897 
L 433.717746 220.043055 
L 433.827685 220.043055 
L 433.896254 220.043055 
L 433.896254 220.290637 
L 434.005736 220.290637 
L 434.467932 220.290637 
L 434.467932 220.538643 
L 434.575962 220.538643 
L 434.656805 220.538643 
L 434.656805 220.787076 
L 434.764359 220.787076 
L 434.898423 220.787076 
L 434.898423 221.035937 
L 435.005371 221.035937 
L 435.058745 221.035937 
L 435.058745 221.285227 
L 435.165294 221.285227 
L 435.231753 221.285227 
L 435.231753 221.534949 
L 435.337872 221.534949 
L 435.377599 221.534949 
L 435.456942 222.538173 
L 435.483357 222.538173 
L 436.177473 222.538173 
L 436.216428 223.80208 
L 436.281273 223.80208 
L 436.578303 223.80208 
L 436.668295 224.310756 
L 436.681136 224.310756 
L 436.783722 224.310756 
L 436.783722 224.565767 
L 436.886062 224.565767 
L 437.318297 224.565767 
L 437.318297 224.821229 
L 437.419367 224.821229 
L 437.495013 224.821229 
L 437.495013 225.077144 
L 437.595667 225.077144 
L 437.671002 225.077144 
L 437.671002 225.333512 
L 437.771243 225.333512 
L 437.858761 225.333512 
L 437.933635 226.105359 
L 437.958563 226.105359 
L 437.995929 226.105359 
L 437.995929 226.363561 
L 438.095412 226.363561 
L 438.540242 226.363561 
L 438.65073 226.881353 
L 438.699744 226.881353 
L 438.760933 227.401007 
L 438.809821 227.401007 
L 438.943976 227.401007 
L 439.053427 228.18401 
L 439.186821 228.18401 
L 439.223129 228.70838 
L 439.295653 228.70838 
L 439.512488 228.70838 
L 439.512488 228.97128 
L 439.620495 228.97128 
L 439.72823 228.97128 
L 439.72823 229.23466 
L 439.835694 229.23466 
L 439.847618 229.23466 
L 439.847618 229.49852 
L 439.954782 229.49852 
L 440.639029 229.49852 
L 440.732554 230.027692 
L 440.74423 230.027692 
L 440.977089 230.027692 
L 440.977089 230.293007 
L 441.081463 230.293007 
L 441.5652 230.293007 
L 441.5652 230.558809 
L 441.66815 230.558809 
L 443.304495 230.558809 
L 443.304495 230.825102 
L 443.414314 230.825102 
L 443.578517 230.825102 
L 443.633111 231.359164 
L 443.687635 231.359164 
L 443.839935 231.359164 
L 443.839935 231.626938 
L 443.94839 231.626938 
L 444.164476 231.626938 
L 444.23985 232.163978 
L 444.272112 232.163978 
L 444.336563 232.163978 
L 444.336563 232.433249 
L 444.443766 232.433249 
L 444.689319 232.433249 
L 444.689319 232.703023 
L 444.795643 232.703023 
L 444.975788 232.703023 
L 444.975788 232.973301 
L 445.081402 232.973301 
L 445.228826 232.973301 
L 445.228826 233.244086 
L 445.333818 233.244086 
L 445.563896 233.244086 
L 445.563896 233.515379 
L 445.66807 233.515379 
L 445.875658 233.515379 
L 445.968745 234.33233 
L 445.979075 234.33233 
L 446.34932 234.33233 
L 446.34932 234.605677 
L 446.451599 234.605677 
L 447.040041 234.605677 
L 447.040041 234.879542 
L 447.150735 234.879542 
L 447.261142 234.879542 
L 447.291204 235.428834 
L 447.371265 235.428834 
L 447.381262 235.428834 
L 447.381262 235.704265 
L 447.491076 235.704265 
L 447.88804 235.704265 
L 447.897917 236.256709 
L 447.996562 236.256709 
L 448.045799 236.256709 
L 448.045799 236.533724 
L 448.153922 236.533724 
L 448.232386 236.533724 
L 448.232386 236.811272 
L 448.340038 236.811272 
L 448.437669 236.811272 
L 448.437669 236.811272 
" style="fill:none;stroke:#1919ff;stroke-linecap:square;stroke-width:2;"/>
   </g>
   <g id="patch_3">
    <path d="M 72 384.48 
L 72 51.84 
" style="fill:none;stroke:#000000;stroke-linecap:square;stroke-linejoin:miter;stroke-width:0.8;"/>
   </g>
   <g id="patch_4">
    <path d="M 518.4 384.48 
L 518.4 51.84 
" style="fill:none;stroke:#000000;stroke-linecap:square;stroke-linejoin:miter;stroke-width:0.8;"/>
   </g>
   <g id="patch_5">
    <path d="M 72 384.48 
L 518.4 384.48 
" style="fill:none;stroke:#000000;stroke-linecap:square;stroke-linejoin:miter;stroke-width:0.8;"/>
   </g>
   <g id="patch_6">
    <path d="M 72 51.84 
L 518.4 51.84 
" style="fill:none;stroke:#000000;stroke-linecap:square;stroke-linejoin:miter;stroke-width:0.8;"/>
   </g>
   <g id="legend_1">
    <g id="patch_7">
     <path d="M 79 379.48 
L 191.95 379.48 
Q 193.95 379.48 193.95 377.48 
L 193.95 363.801875 
Q 193.95 361.801875 191.95 361.801875 
L 79 361.801875 
Q 77 361.801875 77 363.801875 
L 77 377.48 
Q 77 379.48 79 379.48 
z
" style="fill:#ffffff;opacity:0.8;stroke:#cccccc;stroke-linejoin:miter;"/>
    </g>
    <g id="line2d_65">
     <path d="M 81 369.900312 
L 101 369.900312 
" style="fill:none;stroke:#1919ff;stroke-linecap:square;stroke-width:2;"/>
    </g>
    <g id="line2d_66"/>
    <g id="text_14">
     <!-- 56.38%  current -->
     <defs>
      <path d="M 72.703125 32.078125 
Q 68.453125 32.078125 66.03125 28.46875 
Q 63.625 24.859375 63.625 18.40625 
Q 63.625 12.0625 66.03125 8.421875 
Q 68.453125 4.78125 72.703125 4.78125 
Q 76.859375 4.78125 79.265625 8.421875 
Q 81.6875 12.0625 81.6875 18.40625 
Q 81.6875 24.8125 79.265625 28.4375 
Q 76.859375 32.078125 72.703125 32.078125 
z
M 72.703125 38.28125 
Q 80.421875 38.28125 84.953125 32.90625 
Q 89.5 27.546875 89.5 18.40625 
Q 89.5 9.28125 84.9375 3.921875 
Q 80.375 -1.421875 72.703125 -1.421875 
Q 64.890625 -1.421875 60.34375 3.921875 
Q 55.8125 9.28125 55.8125 18.40625 
Q 55.8125 27.59375 60.375 32.9375 
Q 64.9375 38.28125 72.703125 38.28125 
z
M 22.3125 68.015625 
Q 18.109375 68.015625 15.6875 64.375 
Q 13.28125 60.75 13.28125 54.390625 
Q 13.28125 47.953125 15.671875 44.328125 
Q 18.0625 40.71875 22.3125 40.71875 
Q 26.5625 40.71875 28.96875 44.328125 
Q 31.390625 47.953125 31.390625 54.390625 
Q 31.390625 60.6875 28.953125 64.34375 
Q 26.515625 68.015625 22.3125 68.015625 
z
M 66.40625 74.21875 
L 74.21875 74.21875 
L 28.609375 -1.421875 
L 20.796875 -1.421875 
z
M 22.3125 74.21875 
Q 30.03125 74.21875 34.609375 68.875 
Q 39.203125 63.53125 39.203125 54.390625 
Q 39.203125 45.171875 34.640625 39.84375 
Q 30.078125 34.515625 22.3125 34.515625 
Q 14.546875 34.515625 10.03125 39.859375 
Q 5.515625 45.21875 5.515625 54.390625 
Q 5.515625 63.484375 10.046875 68.84375 
Q 14.59375 74.21875 22.3125 74.21875 
z
" id="DejaVuSans-37"/>
      <path d="M 48.78125 52.59375 
L 48.78125 44.1875 
Q 44.96875 46.296875 41.140625 47.34375 
Q 37.3125 48.390625 33.40625 48.390625 
Q 24.65625 48.390625 19.8125 42.84375 
Q 14.984375 37.3125 14.984375 27.296875 
Q 14.984375 17.28125 19.8125 11.734375 
Q 24.65625 6.203125 33.40625 6.203125 
Q 37.3125 6.203125 41.140625 7.25 
Q 44.96875 8.296875 48.78125 10.40625 
L 48.78125 2.09375 
Q 45.015625 0.34375 40.984375 -0.53125 
Q 36.96875 -1.421875 32.421875 -1.421875 
Q 20.0625 -1.421875 12.78125 6.34375 
Q 5.515625 14.109375 5.515625 27.296875 
Q 5.515625 40.671875 12.859375 48.328125 
Q 20.21875 56 33.015625 56 
Q 37.15625 56 41.109375 55.140625 
Q 45.0625 54.296875 48.78125 52.59375 
z
" id="DejaVuSans-99"/>
      <path d="M 8.5 21.578125 
L 8.5 54.6875 
L 17.484375 54.6875 
L 17.484375 21.921875 
Q 17.484375 14.15625 20.5 10.265625 
Q 23.53125 6.390625 29.59375 6.390625 
Q 36.859375 6.390625 41.078125 11.03125 
Q 45.3125 15.671875 45.3125 23.6875 
L 45.3125 54.6875 
L 54.296875 54.6875 
L 54.296875 0 
L 45.3125 0 
L 45.3125 8.40625 
Q 42.046875 3.421875 37.71875 1 
Q 33.40625 -1.421875 27.6875 -1.421875 
Q 18.265625 -1.421875 13.375 4.4375 
Q 8.5 10.296875 8.5 21.578125 
z
M 31.109375 56 
z
" id="DejaVuSans-117"/>
      <path d="M 54.890625 33.015625 
L 54.890625 0 
L 45.90625 0 
L 45.90625 32.71875 
Q 45.90625 40.484375 42.875 44.328125 
Q 39.84375 48.1875 33.796875 48.1875 
Q 26.515625 48.1875 22.3125 43.546875 
Q 18.109375 38.921875 18.109375 30.90625 
L 18.109375 0 
L 9.078125 0 
L 9.078125 54.6875 
L 18.109375 54.6875 
L 18.109375 46.1875 
Q 21.34375 51.125 25.703125 53.5625 
Q 30.078125 56 35.796875 56 
Q 45.21875 56 50.046875 50.171875 
Q 54.890625 44.34375 54.890625 33.015625 
z
" id="DejaVuSans-110"/>
     </defs>
     <g transform="translate(109 373.400312)scale(0.1 -0.1)">
      <use xlink:href="#DejaVuSans-53"/>
      <use x="63.623047" xlink:href="#DejaVuSans-54"/>
      <use x="127.246094" xlink:href="#DejaVuSans-46"/>
      <use x="159.033203" xlink:href="#DejaVuSans-51"/>
      <use x="222.65625" xlink:href="#DejaVuSans-56"/>
      <use x="286.279297" xlink:href="#DejaVuSans-37"/>
      <use x="381.298828" xlink:href="#DejaVuSans-32"/>
      <use x="413.085938" xlink:href="#DejaVuSans-32"/>
      <use x="444.873047" xlink:href="#DejaVuSans-99"/>
      <use x="499.853516" xlink:href="#DejaVuSans-117"/>
      <use x="563.232422" xlink:href="#DejaVuSans-114"/>
      <use x="604.330078" xlink:href="#DejaVuSans-114"/>
      <use x="645.412109" xlink:href="#DejaVuSans-101"/>
      <use x="706.935547" xlink:href="#DejaVuSans-110"/>
      <use x="770.314453" xlink:href="#DejaVuSans-116"/>
     </g>
    </g>
   </g>
  </g>
  <g id="text_15">
   <!-- Day and night time -->
   <defs>
    <path d="M 27.984375 58.6875 
L 27.984375 14.203125 
L 34.71875 14.203125 
Q 46.234375 14.203125 52.3125 19.921875 
Q 58.40625 25.640625 58.40625 36.53125 
Q 58.40625 47.359375 52.34375 53.015625 
Q 46.296875 58.6875 34.71875 58.6875 
z
M 9.1875 72.90625 
L 29 72.90625 
Q 45.609375 72.90625 53.734375 70.53125 
Q 61.859375 68.171875 67.671875 62.5 
Q 72.796875 57.5625 75.28125 51.109375 
Q 77.78125 44.671875 77.78125 36.53125 
Q 77.78125 28.265625 75.28125 21.796875 
Q 72.796875 15.328125 67.671875 10.40625 
Q 61.8125 4.734375 53.609375 2.359375 
Q 45.40625 0 29 0 
L 9.1875 0 
z
" id="DejaVuSans-Bold-68"/>
    <path d="M 32.90625 24.609375 
Q 27.4375 24.609375 24.671875 22.75 
Q 21.921875 20.90625 21.921875 17.28125 
Q 21.921875 13.96875 24.140625 12.078125 
Q 26.375 10.203125 30.328125 10.203125 
Q 35.25 10.203125 38.625 13.734375 
Q 42 17.28125 42 22.609375 
L 42 24.609375 
z
M 59.625 31.203125 
L 59.625 0 
L 42 0 
L 42 8.109375 
Q 38.484375 3.125 34.078125 0.84375 
Q 29.6875 -1.421875 23.390625 -1.421875 
Q 14.890625 -1.421875 9.59375 3.53125 
Q 4.296875 8.5 4.296875 16.40625 
Q 4.296875 26.03125 10.90625 30.515625 
Q 17.53125 35.015625 31.6875 35.015625 
L 42 35.015625 
L 42 36.375 
Q 42 40.53125 38.71875 42.453125 
Q 35.453125 44.390625 28.515625 44.390625 
Q 22.90625 44.390625 18.0625 43.265625 
Q 13.234375 42.140625 9.078125 39.890625 
L 9.078125 53.21875 
Q 14.703125 54.59375 20.359375 55.296875 
Q 26.03125 56 31.6875 56 
Q 46.484375 56 53.046875 50.171875 
Q 59.625 44.34375 59.625 31.203125 
z
" id="DejaVuSans-Bold-97"/>
    <path d="M 1.21875 54.6875 
L 18.703125 54.6875 
L 33.40625 17.578125 
L 45.90625 54.6875 
L 63.375 54.6875 
L 40.375 -5.171875 
Q 36.921875 -14.3125 32.296875 -17.9375 
Q 27.6875 -21.578125 20.125 -21.578125 
L 10.015625 -21.578125 
L 10.015625 -10.109375 
L 15.484375 -10.109375 
Q 19.921875 -10.109375 21.9375 -8.6875 
Q 23.96875 -7.28125 25.09375 -3.609375 
L 25.59375 -2.09375 
z
" id="DejaVuSans-Bold-121"/>
    <path id="DejaVuSans-Bold-32"/>
    <path d="M 63.375 33.296875 
L 63.375 0 
L 45.796875 0 
L 45.796875 5.421875 
L 45.796875 25.484375 
Q 45.796875 32.5625 45.484375 35.25 
Q 45.171875 37.9375 44.390625 39.203125 
Q 43.359375 40.921875 41.59375 41.875 
Q 39.84375 42.828125 37.59375 42.828125 
Q 32.125 42.828125 29 38.59375 
Q 25.875 34.375 25.875 26.90625 
L 25.875 0 
L 8.40625 0 
L 8.40625 54.6875 
L 25.875 54.6875 
L 25.875 46.6875 
Q 29.828125 51.46875 34.265625 53.734375 
Q 38.71875 56 44.09375 56 
Q 53.5625 56 58.46875 50.1875 
Q 63.375 44.390625 63.375 33.296875 
z
" id="DejaVuSans-Bold-110"/>
    <path d="M 45.609375 46.6875 
L 45.609375 75.984375 
L 63.1875 75.984375 
L 63.1875 0 
L 45.609375 0 
L 45.609375 7.90625 
Q 42 3.078125 37.640625 0.828125 
Q 33.296875 -1.421875 27.59375 -1.421875 
Q 17.484375 -1.421875 10.984375 6.609375 
Q 4.5 14.65625 4.5 27.296875 
Q 4.5 39.9375 10.984375 47.96875 
Q 17.484375 56 27.59375 56 
Q 33.25 56 37.625 53.734375 
Q 42 51.46875 45.609375 46.6875 
z
M 34.078125 11.28125 
Q 39.703125 11.28125 42.65625 15.375 
Q 45.609375 19.484375 45.609375 27.296875 
Q 45.609375 35.109375 42.65625 39.203125 
Q 39.703125 43.3125 34.078125 43.3125 
Q 28.515625 43.3125 25.5625 39.203125 
Q 22.609375 35.109375 22.609375 27.296875 
Q 22.609375 19.484375 25.5625 15.375 
Q 28.515625 11.28125 34.078125 11.28125 
z
" id="DejaVuSans-Bold-100"/>
    <path d="M 8.40625 54.6875 
L 25.875 54.6875 
L 25.875 0 
L 8.40625 0 
z
M 8.40625 75.984375 
L 25.875 75.984375 
L 25.875 61.71875 
L 8.40625 61.71875 
z
" id="DejaVuSans-Bold-105"/>
    <path d="M 45.609375 9.28125 
Q 42 4.5 37.640625 2.25 
Q 33.296875 0 27.59375 0 
Q 17.578125 0 11.03125 7.875 
Q 4.5 15.765625 4.5 27.984375 
Q 4.5 40.234375 11.03125 48.0625 
Q 17.578125 55.90625 27.59375 55.90625 
Q 33.296875 55.90625 37.640625 53.65625 
Q 42 51.421875 45.609375 46.578125 
L 45.609375 54.6875 
L 63.1875 54.6875 
L 63.1875 5.515625 
Q 63.1875 -7.671875 54.859375 -14.625 
Q 46.53125 -21.578125 30.71875 -21.578125 
Q 25.59375 -21.578125 20.796875 -20.796875 
Q 16.015625 -20.015625 11.1875 -18.40625 
L 11.1875 -4.78125 
Q 15.765625 -7.421875 20.15625 -8.71875 
Q 24.5625 -10.015625 29 -10.015625 
Q 37.59375 -10.015625 41.59375 -6.25 
Q 45.609375 -2.484375 45.609375 5.515625 
z
M 34.078125 43.3125 
Q 28.65625 43.3125 25.625 39.296875 
Q 22.609375 35.296875 22.609375 27.984375 
Q 22.609375 20.453125 25.53125 16.578125 
Q 28.46875 12.703125 34.078125 12.703125 
Q 39.546875 12.703125 42.578125 16.703125 
Q 45.609375 20.703125 45.609375 27.984375 
Q 45.609375 35.296875 42.578125 39.296875 
Q 39.546875 43.3125 34.078125 43.3125 
z
" id="DejaVuSans-Bold-103"/>
    <path d="M 63.375 33.296875 
L 63.375 0 
L 45.796875 0 
L 45.796875 5.421875 
L 45.796875 25.390625 
Q 45.796875 32.5625 45.484375 35.25 
Q 45.171875 37.9375 44.390625 39.203125 
Q 43.359375 40.921875 41.59375 41.875 
Q 39.84375 42.828125 37.59375 42.828125 
Q 32.125 42.828125 29 38.59375 
Q 25.875 34.375 25.875 26.90625 
L 25.875 0 
L 8.40625 0 
L 8.40625 75.984375 
L 25.875 75.984375 
L 25.875 46.6875 
Q 29.828125 51.46875 34.265625 53.734375 
Q 38.71875 56 44.09375 56 
Q 53.5625 56 58.46875 50.1875 
Q 63.375 44.390625 63.375 33.296875 
z
" id="DejaVuSans-Bold-104"/>
    <path d="M 27.484375 70.21875 
L 27.484375 54.6875 
L 45.515625 54.6875 
L 45.515625 42.1875 
L 27.484375 42.1875 
L 27.484375 19 
Q 27.484375 15.1875 29 13.84375 
Q 30.515625 12.5 35.015625 12.5 
L 44 12.5 
L 44 0 
L 29 0 
Q 18.65625 0 14.328125 4.3125 
Q 10.015625 8.640625 10.015625 19 
L 10.015625 42.1875 
L 1.3125 42.1875 
L 1.3125 54.6875 
L 10.015625 54.6875 
L 10.015625 70.21875 
z
" id="DejaVuSans-Bold-116"/>
    <path d="M 59.078125 45.609375 
Q 62.40625 50.6875 66.96875 53.34375 
Q 71.53125 56 77 56 
Q 86.421875 56 91.359375 50.1875 
Q 96.296875 44.390625 96.296875 33.296875 
L 96.296875 0 
L 78.71875 0 
L 78.71875 28.515625 
Q 78.765625 29.15625 78.78125 29.828125 
Q 78.8125 30.515625 78.8125 31.78125 
Q 78.8125 37.59375 77.09375 40.203125 
Q 75.390625 42.828125 71.578125 42.828125 
Q 66.609375 42.828125 63.890625 38.71875 
Q 61.1875 34.625 61.078125 26.859375 
L 61.078125 0 
L 43.5 0 
L 43.5 28.515625 
Q 43.5 37.59375 41.9375 40.203125 
Q 40.375 42.828125 36.375 42.828125 
Q 31.34375 42.828125 28.609375 38.703125 
Q 25.875 34.578125 25.875 26.90625 
L 25.875 0 
L 8.296875 0 
L 8.296875 54.6875 
L 25.875 54.6875 
L 25.875 46.6875 
Q 29.109375 51.3125 33.28125 53.65625 
Q 37.453125 56 42.484375 56 
Q 48.140625 56 52.484375 53.265625 
Q 56.84375 50.53125 59.078125 45.609375 
z
" id="DejaVuSans-Bold-109"/>
    <path d="M 62.984375 27.484375 
L 62.984375 22.515625 
L 22.125 22.515625 
Q 22.75 16.359375 26.5625 13.28125 
Q 30.375 10.203125 37.203125 10.203125 
Q 42.71875 10.203125 48.5 11.84375 
Q 54.296875 13.484375 60.40625 16.796875 
L 60.40625 3.328125 
Q 54.203125 0.984375 48 -0.21875 
Q 41.796875 -1.421875 35.59375 -1.421875 
Q 20.75 -1.421875 12.515625 6.125 
Q 4.296875 13.671875 4.296875 27.296875 
Q 4.296875 40.671875 12.375 48.328125 
Q 20.453125 56 34.625 56 
Q 47.515625 56 55.25 48.234375 
Q 62.984375 40.484375 62.984375 27.484375 
z
M 45.015625 33.296875 
Q 45.015625 38.28125 42.109375 41.328125 
Q 39.203125 44.390625 34.515625 44.390625 
Q 29.4375 44.390625 26.265625 41.53125 
Q 23.09375 38.671875 22.3125 33.296875 
z
" id="DejaVuSans-Bold-101"/>
   </defs>
   <g transform="translate(223.171875 17.758125)scale(0.12 -0.12)">
    <use xlink:href="#DejaVuSans-Bold-68"/>
    <use x="83.007812" xlink:href="#DejaVuSans-Bold-97"/>
    <use x="150.441406" xlink:href="#DejaVuSans-Bold-121"/>
    <use x="215.626953" xlink:href="#DejaVuSans-Bold-32"/>
    <use x="250.441406" xlink:href="#DejaVuSans-Bold-97"/>
    <use x="317.921875" xlink:href="#DejaVuSans-Bold-110"/>
    <use x="389.113281" xlink:href="#DejaVuSans-Bold-100"/>
    <use x="460.695312" xlink:href="#DejaVuSans-Bold-32"/>
    <use x="495.509766" xlink:href="#DejaVuSans-Bold-110"/>
    <use x="566.701172" xlink:href="#DejaVuSans-Bold-105"/>
    <use x="600.978516" xlink:href="#DejaVuSans-Bold-103"/>
    <use x="672.560547" xlink:href="#DejaVuSans-Bold-104"/>
    <use x="743.751953" xlink:href="#DejaVuSans-Bold-116"/>
    <use x="791.554688" xlink:href="#DejaVuSans-Bold-32"/>
    <use x="826.369141" xlink:href="#DejaVuSans-Bold-116"/>
    <use x="874.171875" xlink:href="#DejaVuSans-Bold-105"/>
    <use x="908.449219" xlink:href="#DejaVuSans-Bold-109"/>
    <use x="1012.648438" xlink:href="#DejaVuSans-Bold-101"/>
   </g>
  </g>
 </g>
 <defs>
  <clipPath id="p058b553280">
   <rect height="332.64" width="446.4" x="72" y="51.84"/>
  </clipPath>
 </defs>
</svg>
