<?xml version="1.0" encoding="utf-8" standalone="no"?>
<!DOCTYPE svg PUBLIC "-//W3C//DTD SVG 1.1//EN"
  "http://www.w3.org/Graphics/SVG/1.1/DTD/svg11.dtd">
<!-- Created with matplotlib (https://matplotlib.org/) -->
<svg height="432pt" version="1.1" viewBox="0 0 576 432" width="576pt" xmlns="http://www.w3.org/2000/svg" xmlns:xlink="http://www.w3.org/1999/xlink">
 <defs>
  <style type="text/css">
*{stroke-linecap:butt;stroke-linejoin:round;}
  </style>
 </defs>
 <g id="figure_1">
  <g id="patch_1">
   <path d="M 0 432 
L 576 432 
L 576 0 
L 0 0 
z
" style="fill:none;"/>
  </g>
  <g id="axes_1">
   <g id="patch_2">
    <path d="M 72 384.48 
L 518.4 384.48 
L 518.4 51.84 
L 72 51.84 
z
" style="fill:none;"/>
   </g>
   <g id="matplotlib.axis_1">
    <g id="xtick_1">
     <g id="line2d_1">
      <path clip-path="url(#p2f9d488979)" d="M 72 384.48 
L 72 51.84 
" style="fill:none;stroke:#b0b0b0;stroke-linecap:square;stroke-width:0.8;"/>
     </g>
     <g id="line2d_2">
      <defs>
       <path d="M 0 0 
L 0 3.5 
" id="m7582d5872b" style="stroke:#000000;stroke-width:0.8;"/>
      </defs>
      <g>
       <use style="stroke:#000000;stroke-width:0.8;" x="72" xlink:href="#m7582d5872b" y="384.48"/>
      </g>
     </g>
     <g id="text_1">
      <!-- 0.0 -->
      <defs>
       <path d="M 31.78125 66.40625 
Q 24.171875 66.40625 20.328125 58.90625 
Q 16.5 51.421875 16.5 36.375 
Q 16.5 21.390625 20.328125 13.890625 
Q 24.171875 6.390625 31.78125 6.390625 
Q 39.453125 6.390625 43.28125 13.890625 
Q 47.125 21.390625 47.125 36.375 
Q 47.125 51.421875 43.28125 58.90625 
Q 39.453125 66.40625 31.78125 66.40625 
z
M 31.78125 74.21875 
Q 44.046875 74.21875 50.515625 64.515625 
Q 56.984375 54.828125 56.984375 36.375 
Q 56.984375 17.96875 50.515625 8.265625 
Q 44.046875 -1.421875 31.78125 -1.421875 
Q 19.53125 -1.421875 13.0625 8.265625 
Q 6.59375 17.96875 6.59375 36.375 
Q 6.59375 54.828125 13.0625 64.515625 
Q 19.53125 74.21875 31.78125 74.21875 
z
" id="DejaVuSans-48"/>
       <path d="M 10.6875 12.40625 
L 21 12.40625 
L 21 0 
L 10.6875 0 
z
" id="DejaVuSans-46"/>
      </defs>
      <g transform="translate(64.048438 399.078438)scale(0.1 -0.1)">
       <use xlink:href="#DejaVuSans-48"/>
       <use x="63.623047" xlink:href="#DejaVuSans-46"/>
       <use x="95.410156" xlink:href="#DejaVuSans-48"/>
      </g>
     </g>
    </g>
    <g id="xtick_2">
     <g id="line2d_3">
      <path clip-path="url(#p2f9d488979)" d="M 161.28 384.48 
L 161.28 51.84 
" style="fill:none;stroke:#b0b0b0;stroke-linecap:square;stroke-width:0.8;"/>
     </g>
     <g id="line2d_4">
      <g>
       <use style="stroke:#000000;stroke-width:0.8;" x="161.28" xlink:href="#m7582d5872b" y="384.48"/>
      </g>
     </g>
     <g id="text_2">
      <!-- 0.2 -->
      <defs>
       <path d="M 19.1875 8.296875 
L 53.609375 8.296875 
L 53.609375 0 
L 7.328125 0 
L 7.328125 8.296875 
Q 12.9375 14.109375 22.625 23.890625 
Q 32.328125 33.6875 34.8125 36.53125 
Q 39.546875 41.84375 41.421875 45.53125 
Q 43.3125 49.21875 43.3125 52.78125 
Q 43.3125 58.59375 39.234375 62.25 
Q 35.15625 65.921875 28.609375 65.921875 
Q 23.96875 65.921875 18.8125 64.3125 
Q 13.671875 62.703125 7.8125 59.421875 
L 7.8125 69.390625 
Q 13.765625 71.78125 18.9375 73 
Q 24.125 74.21875 28.421875 74.21875 
Q 39.75 74.21875 46.484375 68.546875 
Q 53.21875 62.890625 53.21875 53.421875 
Q 53.21875 48.921875 51.53125 44.890625 
Q 49.859375 40.875 45.40625 35.40625 
Q 44.1875 33.984375 37.640625 27.21875 
Q 31.109375 20.453125 19.1875 8.296875 
z
" id="DejaVuSans-50"/>
      </defs>
      <g transform="translate(153.328438 399.078438)scale(0.1 -0.1)">
       <use xlink:href="#DejaVuSans-48"/>
       <use x="63.623047" xlink:href="#DejaVuSans-46"/>
       <use x="95.410156" xlink:href="#DejaVuSans-50"/>
      </g>
     </g>
    </g>
    <g id="xtick_3">
     <g id="line2d_5">
      <path clip-path="url(#p2f9d488979)" d="M 250.56 384.48 
L 250.56 51.84 
" style="fill:none;stroke:#b0b0b0;stroke-linecap:square;stroke-width:0.8;"/>
     </g>
     <g id="line2d_6">
      <g>
       <use style="stroke:#000000;stroke-width:0.8;" x="250.56" xlink:href="#m7582d5872b" y="384.48"/>
      </g>
     </g>
     <g id="text_3">
      <!-- 0.4 -->
      <defs>
       <path d="M 37.796875 64.3125 
L 12.890625 25.390625 
L 37.796875 25.390625 
z
M 35.203125 72.90625 
L 47.609375 72.90625 
L 47.609375 25.390625 
L 58.015625 25.390625 
L 58.015625 17.1875 
L 47.609375 17.1875 
L 47.609375 0 
L 37.796875 0 
L 37.796875 17.1875 
L 4.890625 17.1875 
L 4.890625 26.703125 
z
" id="DejaVuSans-52"/>
      </defs>
      <g transform="translate(242.608438 399.078438)scale(0.1 -0.1)">
       <use xlink:href="#DejaVuSans-48"/>
       <use x="63.623047" xlink:href="#DejaVuSans-46"/>
       <use x="95.410156" xlink:href="#DejaVuSans-52"/>
      </g>
     </g>
    </g>
    <g id="xtick_4">
     <g id="line2d_7">
      <path clip-path="url(#p2f9d488979)" d="M 339.84 384.48 
L 339.84 51.84 
" style="fill:none;stroke:#b0b0b0;stroke-linecap:square;stroke-width:0.8;"/>
     </g>
     <g id="line2d_8">
      <g>
       <use style="stroke:#000000;stroke-width:0.8;" x="339.84" xlink:href="#m7582d5872b" y="384.48"/>
      </g>
     </g>
     <g id="text_4">
      <!-- 0.6 -->
      <defs>
       <path d="M 33.015625 40.375 
Q 26.375 40.375 22.484375 35.828125 
Q 18.609375 31.296875 18.609375 23.390625 
Q 18.609375 15.53125 22.484375 10.953125 
Q 26.375 6.390625 33.015625 6.390625 
Q 39.65625 6.390625 43.53125 10.953125 
Q 47.40625 15.53125 47.40625 23.390625 
Q 47.40625 31.296875 43.53125 35.828125 
Q 39.65625 40.375 33.015625 40.375 
z
M 52.59375 71.296875 
L 52.59375 62.3125 
Q 48.875 64.0625 45.09375 64.984375 
Q 41.3125 65.921875 37.59375 65.921875 
Q 27.828125 65.921875 22.671875 59.328125 
Q 17.53125 52.734375 16.796875 39.40625 
Q 19.671875 43.65625 24.015625 45.921875 
Q 28.375 48.1875 33.59375 48.1875 
Q 44.578125 48.1875 50.953125 41.515625 
Q 57.328125 34.859375 57.328125 23.390625 
Q 57.328125 12.15625 50.6875 5.359375 
Q 44.046875 -1.421875 33.015625 -1.421875 
Q 20.359375 -1.421875 13.671875 8.265625 
Q 6.984375 17.96875 6.984375 36.375 
Q 6.984375 53.65625 15.1875 63.9375 
Q 23.390625 74.21875 37.203125 74.21875 
Q 40.921875 74.21875 44.703125 73.484375 
Q 48.484375 72.75 52.59375 71.296875 
z
" id="DejaVuSans-54"/>
      </defs>
      <g transform="translate(331.888438 399.078438)scale(0.1 -0.1)">
       <use xlink:href="#DejaVuSans-48"/>
       <use x="63.623047" xlink:href="#DejaVuSans-46"/>
       <use x="95.410156" xlink:href="#DejaVuSans-54"/>
      </g>
     </g>
    </g>
    <g id="xtick_5">
     <g id="line2d_9">
      <path clip-path="url(#p2f9d488979)" d="M 429.12 384.48 
L 429.12 51.84 
" style="fill:none;stroke:#b0b0b0;stroke-linecap:square;stroke-width:0.8;"/>
     </g>
     <g id="line2d_10">
      <g>
       <use style="stroke:#000000;stroke-width:0.8;" x="429.12" xlink:href="#m7582d5872b" y="384.48"/>
      </g>
     </g>
     <g id="text_5">
      <!-- 0.8 -->
      <defs>
       <path d="M 31.78125 34.625 
Q 24.75 34.625 20.71875 30.859375 
Q 16.703125 27.09375 16.703125 20.515625 
Q 16.703125 13.921875 20.71875 10.15625 
Q 24.75 6.390625 31.78125 6.390625 
Q 38.8125 6.390625 42.859375 10.171875 
Q 46.921875 13.96875 46.921875 20.515625 
Q 46.921875 27.09375 42.890625 30.859375 
Q 38.875 34.625 31.78125 34.625 
z
M 21.921875 38.8125 
Q 15.578125 40.375 12.03125 44.71875 
Q 8.5 49.078125 8.5 55.328125 
Q 8.5 64.0625 14.71875 69.140625 
Q 20.953125 74.21875 31.78125 74.21875 
Q 42.671875 74.21875 48.875 69.140625 
Q 55.078125 64.0625 55.078125 55.328125 
Q 55.078125 49.078125 51.53125 44.71875 
Q 48 40.375 41.703125 38.8125 
Q 48.828125 37.15625 52.796875 32.3125 
Q 56.78125 27.484375 56.78125 20.515625 
Q 56.78125 9.90625 50.3125 4.234375 
Q 43.84375 -1.421875 31.78125 -1.421875 
Q 19.734375 -1.421875 13.25 4.234375 
Q 6.78125 9.90625 6.78125 20.515625 
Q 6.78125 27.484375 10.78125 32.3125 
Q 14.796875 37.15625 21.921875 38.8125 
z
M 18.3125 54.390625 
Q 18.3125 48.734375 21.84375 45.5625 
Q 25.390625 42.390625 31.78125 42.390625 
Q 38.140625 42.390625 41.71875 45.5625 
Q 45.3125 48.734375 45.3125 54.390625 
Q 45.3125 60.0625 41.71875 63.234375 
Q 38.140625 66.40625 31.78125 66.40625 
Q 25.390625 66.40625 21.84375 63.234375 
Q 18.3125 60.0625 18.3125 54.390625 
z
" id="DejaVuSans-56"/>
      </defs>
      <g transform="translate(421.168437 399.078438)scale(0.1 -0.1)">
       <use xlink:href="#DejaVuSans-48"/>
       <use x="63.623047" xlink:href="#DejaVuSans-46"/>
       <use x="95.410156" xlink:href="#DejaVuSans-56"/>
      </g>
     </g>
    </g>
    <g id="xtick_6">
     <g id="line2d_11">
      <path clip-path="url(#p2f9d488979)" d="M 518.4 384.48 
L 518.4 51.84 
" style="fill:none;stroke:#b0b0b0;stroke-linecap:square;stroke-width:0.8;"/>
     </g>
     <g id="line2d_12">
      <g>
       <use style="stroke:#000000;stroke-width:0.8;" x="518.4" xlink:href="#m7582d5872b" y="384.48"/>
      </g>
     </g>
     <g id="text_6">
      <!-- 1.0 -->
      <defs>
       <path d="M 12.40625 8.296875 
L 28.515625 8.296875 
L 28.515625 63.921875 
L 10.984375 60.40625 
L 10.984375 69.390625 
L 28.421875 72.90625 
L 38.28125 72.90625 
L 38.28125 8.296875 
L 54.390625 8.296875 
L 54.390625 0 
L 12.40625 0 
z
" id="DejaVuSans-49"/>
      </defs>
      <g transform="translate(510.448437 399.078438)scale(0.1 -0.1)">
       <use xlink:href="#DejaVuSans-49"/>
       <use x="63.623047" xlink:href="#DejaVuSans-46"/>
       <use x="95.410156" xlink:href="#DejaVuSans-48"/>
      </g>
     </g>
    </g>
    <g id="text_7">
     <!-- Recall -->
     <defs>
      <path d="M 44.390625 34.1875 
Q 47.5625 33.109375 50.5625 29.59375 
Q 53.5625 26.078125 56.59375 19.921875 
L 66.609375 0 
L 56 0 
L 46.6875 18.703125 
Q 43.0625 26.03125 39.671875 28.421875 
Q 36.28125 30.8125 30.421875 30.8125 
L 19.671875 30.8125 
L 19.671875 0 
L 9.8125 0 
L 9.8125 72.90625 
L 32.078125 72.90625 
Q 44.578125 72.90625 50.734375 67.671875 
Q 56.890625 62.453125 56.890625 51.90625 
Q 56.890625 45.015625 53.6875 40.46875 
Q 50.484375 35.9375 44.390625 34.1875 
z
M 19.671875 64.796875 
L 19.671875 38.921875 
L 32.078125 38.921875 
Q 39.203125 38.921875 42.84375 42.21875 
Q 46.484375 45.515625 46.484375 51.90625 
Q 46.484375 58.296875 42.84375 61.546875 
Q 39.203125 64.796875 32.078125 64.796875 
z
" id="DejaVuSans-82"/>
      <path d="M 56.203125 29.59375 
L 56.203125 25.203125 
L 14.890625 25.203125 
Q 15.484375 15.921875 20.484375 11.0625 
Q 25.484375 6.203125 34.421875 6.203125 
Q 39.59375 6.203125 44.453125 7.46875 
Q 49.3125 8.734375 54.109375 11.28125 
L 54.109375 2.78125 
Q 49.265625 0.734375 44.1875 -0.34375 
Q 39.109375 -1.421875 33.890625 -1.421875 
Q 20.796875 -1.421875 13.15625 6.1875 
Q 5.515625 13.8125 5.515625 26.8125 
Q 5.515625 40.234375 12.765625 48.109375 
Q 20.015625 56 32.328125 56 
Q 43.359375 56 49.78125 48.890625 
Q 56.203125 41.796875 56.203125 29.59375 
z
M 47.21875 32.234375 
Q 47.125 39.59375 43.09375 43.984375 
Q 39.0625 48.390625 32.421875 48.390625 
Q 24.90625 48.390625 20.390625 44.140625 
Q 15.875 39.890625 15.1875 32.171875 
z
" id="DejaVuSans-101"/>
      <path d="M 48.78125 52.59375 
L 48.78125 44.1875 
Q 44.96875 46.296875 41.140625 47.34375 
Q 37.3125 48.390625 33.40625 48.390625 
Q 24.65625 48.390625 19.8125 42.84375 
Q 14.984375 37.3125 14.984375 27.296875 
Q 14.984375 17.28125 19.8125 11.734375 
Q 24.65625 6.203125 33.40625 6.203125 
Q 37.3125 6.203125 41.140625 7.25 
Q 44.96875 8.296875 48.78125 10.40625 
L 48.78125 2.09375 
Q 45.015625 0.34375 40.984375 -0.53125 
Q 36.96875 -1.421875 32.421875 -1.421875 
Q 20.0625 -1.421875 12.78125 6.34375 
Q 5.515625 14.109375 5.515625 27.296875 
Q 5.515625 40.671875 12.859375 48.328125 
Q 20.21875 56 33.015625 56 
Q 37.15625 56 41.109375 55.140625 
Q 45.0625 54.296875 48.78125 52.59375 
z
" id="DejaVuSans-99"/>
      <path d="M 34.28125 27.484375 
Q 23.390625 27.484375 19.1875 25 
Q 14.984375 22.515625 14.984375 16.5 
Q 14.984375 11.71875 18.140625 8.90625 
Q 21.296875 6.109375 26.703125 6.109375 
Q 34.1875 6.109375 38.703125 11.40625 
Q 43.21875 16.703125 43.21875 25.484375 
L 43.21875 27.484375 
z
M 52.203125 31.203125 
L 52.203125 0 
L 43.21875 0 
L 43.21875 8.296875 
Q 40.140625 3.328125 35.546875 0.953125 
Q 30.953125 -1.421875 24.3125 -1.421875 
Q 15.921875 -1.421875 10.953125 3.296875 
Q 6 8.015625 6 15.921875 
Q 6 25.140625 12.171875 29.828125 
Q 18.359375 34.515625 30.609375 34.515625 
L 43.21875 34.515625 
L 43.21875 35.40625 
Q 43.21875 41.609375 39.140625 45 
Q 35.0625 48.390625 27.6875 48.390625 
Q 23 48.390625 18.546875 47.265625 
Q 14.109375 46.140625 10.015625 43.890625 
L 10.015625 52.203125 
Q 14.9375 54.109375 19.578125 55.046875 
Q 24.21875 56 28.609375 56 
Q 40.484375 56 46.34375 49.84375 
Q 52.203125 43.703125 52.203125 31.203125 
z
" id="DejaVuSans-97"/>
      <path d="M 9.421875 75.984375 
L 18.40625 75.984375 
L 18.40625 0 
L 9.421875 0 
z
" id="DejaVuSans-108"/>
     </defs>
     <g transform="translate(280.060937 412.756563)scale(0.1 -0.1)">
      <use xlink:href="#DejaVuSans-82"/>
      <use x="69.419922" xlink:href="#DejaVuSans-101"/>
      <use x="130.943359" xlink:href="#DejaVuSans-99"/>
      <use x="185.923828" xlink:href="#DejaVuSans-97"/>
      <use x="247.203125" xlink:href="#DejaVuSans-108"/>
      <use x="274.986328" xlink:href="#DejaVuSans-108"/>
     </g>
    </g>
   </g>
   <g id="matplotlib.axis_2">
    <g id="ytick_1">
     <g id="line2d_13">
      <path clip-path="url(#p2f9d488979)" d="M 72 384.48 
L 518.4 384.48 
" style="fill:none;stroke:#b0b0b0;stroke-linecap:square;stroke-width:0.8;"/>
     </g>
     <g id="line2d_14">
      <defs>
       <path d="M 0 0 
L -3.5 0 
" id="m57d9e28bfd" style="stroke:#000000;stroke-width:0.8;"/>
      </defs>
      <g>
       <use style="stroke:#000000;stroke-width:0.8;" x="72" xlink:href="#m57d9e28bfd" y="384.48"/>
      </g>
     </g>
     <g id="text_8">
      <!-- 0.0 -->
      <g transform="translate(49.096875 388.279219)scale(0.1 -0.1)">
       <use xlink:href="#DejaVuSans-48"/>
       <use x="63.623047" xlink:href="#DejaVuSans-46"/>
       <use x="95.410156" xlink:href="#DejaVuSans-48"/>
      </g>
     </g>
    </g>
    <g id="ytick_2">
     <g id="line2d_15">
      <path clip-path="url(#p2f9d488979)" d="M 72 317.952 
L 518.4 317.952 
" style="fill:none;stroke:#b0b0b0;stroke-linecap:square;stroke-width:0.8;"/>
     </g>
     <g id="line2d_16">
      <g>
       <use style="stroke:#000000;stroke-width:0.8;" x="72" xlink:href="#m57d9e28bfd" y="317.952"/>
      </g>
     </g>
     <g id="text_9">
      <!-- 0.2 -->
      <g transform="translate(49.096875 321.751219)scale(0.1 -0.1)">
       <use xlink:href="#DejaVuSans-48"/>
       <use x="63.623047" xlink:href="#DejaVuSans-46"/>
       <use x="95.410156" xlink:href="#DejaVuSans-50"/>
      </g>
     </g>
    </g>
    <g id="ytick_3">
     <g id="line2d_17">
      <path clip-path="url(#p2f9d488979)" d="M 72 251.424 
L 518.4 251.424 
" style="fill:none;stroke:#b0b0b0;stroke-linecap:square;stroke-width:0.8;"/>
     </g>
     <g id="line2d_18">
      <g>
       <use style="stroke:#000000;stroke-width:0.8;" x="72" xlink:href="#m57d9e28bfd" y="251.424"/>
      </g>
     </g>
     <g id="text_10">
      <!-- 0.4 -->
      <g transform="translate(49.096875 255.223219)scale(0.1 -0.1)">
       <use xlink:href="#DejaVuSans-48"/>
       <use x="63.623047" xlink:href="#DejaVuSans-46"/>
       <use x="95.410156" xlink:href="#DejaVuSans-52"/>
      </g>
     </g>
    </g>
    <g id="ytick_4">
     <g id="line2d_19">
      <path clip-path="url(#p2f9d488979)" d="M 72 184.896 
L 518.4 184.896 
" style="fill:none;stroke:#b0b0b0;stroke-linecap:square;stroke-width:0.8;"/>
     </g>
     <g id="line2d_20">
      <g>
       <use style="stroke:#000000;stroke-width:0.8;" x="72" xlink:href="#m57d9e28bfd" y="184.896"/>
      </g>
     </g>
     <g id="text_11">
      <!-- 0.6 -->
      <g transform="translate(49.096875 188.695219)scale(0.1 -0.1)">
       <use xlink:href="#DejaVuSans-48"/>
       <use x="63.623047" xlink:href="#DejaVuSans-46"/>
       <use x="95.410156" xlink:href="#DejaVuSans-54"/>
      </g>
     </g>
    </g>
    <g id="ytick_5">
     <g id="line2d_21">
      <path clip-path="url(#p2f9d488979)" d="M 72 118.368 
L 518.4 118.368 
" style="fill:none;stroke:#b0b0b0;stroke-linecap:square;stroke-width:0.8;"/>
     </g>
     <g id="line2d_22">
      <g>
       <use style="stroke:#000000;stroke-width:0.8;" x="72" xlink:href="#m57d9e28bfd" y="118.368"/>
      </g>
     </g>
     <g id="text_12">
      <!-- 0.8 -->
      <g transform="translate(49.096875 122.167219)scale(0.1 -0.1)">
       <use xlink:href="#DejaVuSans-48"/>
       <use x="63.623047" xlink:href="#DejaVuSans-46"/>
       <use x="95.410156" xlink:href="#DejaVuSans-56"/>
      </g>
     </g>
    </g>
    <g id="ytick_6">
     <g id="line2d_23">
      <path clip-path="url(#p2f9d488979)" d="M 72 51.84 
L 518.4 51.84 
" style="fill:none;stroke:#b0b0b0;stroke-linecap:square;stroke-width:0.8;"/>
     </g>
     <g id="line2d_24">
      <g>
       <use style="stroke:#000000;stroke-width:0.8;" x="72" xlink:href="#m57d9e28bfd" y="51.84"/>
      </g>
     </g>
     <g id="text_13">
      <!-- 1.0 -->
      <g transform="translate(49.096875 55.639219)scale(0.1 -0.1)">
       <use xlink:href="#DejaVuSans-49"/>
       <use x="63.623047" xlink:href="#DejaVuSans-46"/>
       <use x="95.410156" xlink:href="#DejaVuSans-48"/>
      </g>
     </g>
    </g>
    <g id="text_14">
     <!-- Precision -->
     <defs>
      <path d="M 19.671875 64.796875 
L 19.671875 37.40625 
L 32.078125 37.40625 
Q 38.96875 37.40625 42.71875 40.96875 
Q 46.484375 44.53125 46.484375 51.125 
Q 46.484375 57.671875 42.71875 61.234375 
Q 38.96875 64.796875 32.078125 64.796875 
z
M 9.8125 72.90625 
L 32.078125 72.90625 
Q 44.34375 72.90625 50.609375 67.359375 
Q 56.890625 61.8125 56.890625 51.125 
Q 56.890625 40.328125 50.609375 34.8125 
Q 44.34375 29.296875 32.078125 29.296875 
L 19.671875 29.296875 
L 19.671875 0 
L 9.8125 0 
z
" id="DejaVuSans-80"/>
      <path d="M 41.109375 46.296875 
Q 39.59375 47.171875 37.8125 47.578125 
Q 36.03125 48 33.890625 48 
Q 26.265625 48 22.1875 43.046875 
Q 18.109375 38.09375 18.109375 28.8125 
L 18.109375 0 
L 9.078125 0 
L 9.078125 54.6875 
L 18.109375 54.6875 
L 18.109375 46.1875 
Q 20.953125 51.171875 25.484375 53.578125 
Q 30.03125 56 36.53125 56 
Q 37.453125 56 38.578125 55.875 
Q 39.703125 55.765625 41.0625 55.515625 
z
" id="DejaVuSans-114"/>
      <path d="M 9.421875 54.6875 
L 18.40625 54.6875 
L 18.40625 0 
L 9.421875 0 
z
M 9.421875 75.984375 
L 18.40625 75.984375 
L 18.40625 64.59375 
L 9.421875 64.59375 
z
" id="DejaVuSans-105"/>
      <path d="M 44.28125 53.078125 
L 44.28125 44.578125 
Q 40.484375 46.53125 36.375 47.5 
Q 32.28125 48.484375 27.875 48.484375 
Q 21.1875 48.484375 17.84375 46.4375 
Q 14.5 44.390625 14.5 40.28125 
Q 14.5 37.15625 16.890625 35.375 
Q 19.28125 33.59375 26.515625 31.984375 
L 29.59375 31.296875 
Q 39.15625 29.25 43.1875 25.515625 
Q 47.21875 21.78125 47.21875 15.09375 
Q 47.21875 7.46875 41.1875 3.015625 
Q 35.15625 -1.421875 24.609375 -1.421875 
Q 20.21875 -1.421875 15.453125 -0.5625 
Q 10.6875 0.296875 5.421875 2 
L 5.421875 11.28125 
Q 10.40625 8.6875 15.234375 7.390625 
Q 20.0625 6.109375 24.8125 6.109375 
Q 31.15625 6.109375 34.5625 8.28125 
Q 37.984375 10.453125 37.984375 14.40625 
Q 37.984375 18.0625 35.515625 20.015625 
Q 33.0625 21.96875 24.703125 23.78125 
L 21.578125 24.515625 
Q 13.234375 26.265625 9.515625 29.90625 
Q 5.8125 33.546875 5.8125 39.890625 
Q 5.8125 47.609375 11.28125 51.796875 
Q 16.75 56 26.8125 56 
Q 31.78125 56 36.171875 55.265625 
Q 40.578125 54.546875 44.28125 53.078125 
z
" id="DejaVuSans-115"/>
      <path d="M 30.609375 48.390625 
Q 23.390625 48.390625 19.1875 42.75 
Q 14.984375 37.109375 14.984375 27.296875 
Q 14.984375 17.484375 19.15625 11.84375 
Q 23.34375 6.203125 30.609375 6.203125 
Q 37.796875 6.203125 41.984375 11.859375 
Q 46.1875 17.53125 46.1875 27.296875 
Q 46.1875 37.015625 41.984375 42.703125 
Q 37.796875 48.390625 30.609375 48.390625 
z
M 30.609375 56 
Q 42.328125 56 49.015625 48.375 
Q 55.71875 40.765625 55.71875 27.296875 
Q 55.71875 13.875 49.015625 6.21875 
Q 42.328125 -1.421875 30.609375 -1.421875 
Q 18.84375 -1.421875 12.171875 6.21875 
Q 5.515625 13.875 5.515625 27.296875 
Q 5.515625 40.765625 12.171875 48.375 
Q 18.84375 56 30.609375 56 
z
" id="DejaVuSans-111"/>
      <path d="M 54.890625 33.015625 
L 54.890625 0 
L 45.90625 0 
L 45.90625 32.71875 
Q 45.90625 40.484375 42.875 44.328125 
Q 39.84375 48.1875 33.796875 48.1875 
Q 26.515625 48.1875 22.3125 43.546875 
Q 18.109375 38.921875 18.109375 30.90625 
L 18.109375 0 
L 9.078125 0 
L 9.078125 54.6875 
L 18.109375 54.6875 
L 18.109375 46.1875 
Q 21.34375 51.125 25.703125 53.5625 
Q 30.078125 56 35.796875 56 
Q 45.21875 56 50.046875 50.171875 
Q 54.890625 44.34375 54.890625 33.015625 
z
" id="DejaVuSans-110"/>
     </defs>
     <g transform="translate(43.017187 240.664687)rotate(-90)scale(0.1 -0.1)">
      <use xlink:href="#DejaVuSans-80"/>
      <use x="60.287109" xlink:href="#DejaVuSans-114"/>
      <use x="101.369141" xlink:href="#DejaVuSans-101"/>
      <use x="162.892578" xlink:href="#DejaVuSans-99"/>
      <use x="217.873047" xlink:href="#DejaVuSans-105"/>
      <use x="245.65625" xlink:href="#DejaVuSans-115"/>
      <use x="297.755859" xlink:href="#DejaVuSans-105"/>
      <use x="325.539062" xlink:href="#DejaVuSans-111"/>
      <use x="386.720703" xlink:href="#DejaVuSans-110"/>
     </g>
    </g>
   </g>
   <g id="line2d_25">
    <path clip-path="url(#p2f9d488979)" d="M 72.386159 51.84 
L 95.16955 51.84 
L 95.16955 57.293115 
L 99.031142 56.52507 
L 103.665052 55.847711 
L 107.912803 55.378723 
L 107.912803 58.842947 
L 112.932872 58 
L 118.3391 57.293115 
L 118.3391 59.953171 
L 118.72526 59.887742 
L 118.72526 62.48448 
L 119.497578 62.31685 
L 119.497578 64.83375 
L 124.517647 63.635745 
L 130.310035 62.501538 
L 136.87474 61.453873 
L 144.597924 60.457617 
L 144.597924 62.127835 
L 145.370242 62.022857 
L 145.370242 63.659695 
L 153.093426 62.570323 
L 160.816609 61.66481 
L 160.816609 63.021176 
L 170.470588 61.958327 
L 177.035294 61.344 
L 177.035294 62.49395 
L 178.96609 62.307692 
L 178.96609 63.430244 
L 186.303114 62.710588 
L 186.303114 63.758697 
L 192.86782 63.133333 
L 192.86782 64.122092 
L 199.046367 63.545806 
L 199.046367 64.484211 
L 201.363322 64.266207 
L 201.363322 65.183725 
L 202.907958 65.032521 
L 202.907958 65.934915 
L 215.651211 64.733023 
L 216.03737 64.699794 
L 216.03737 65.521851 
L 216.423529 65.486769 
L 216.423529 66.302609 
L 217.582007 66.192487 
L 217.582007 66.998278 
L 218.740484 66.88402 
L 218.740484 68.472 
L 219.126644 68.430524 
L 219.126644 69.216716 
L 221.443599 68.961176 
L 221.443599 69.732616 
L 225.691349 69.264 
L 225.691349 70.757915 
L 226.463668 70.668679 
L 226.463668 71.407059 
L 230.711419 70.913394 
L 230.711419 71.630938 
L 231.483737 71.540774 
L 231.483737 72.96 
L 232.256055 72.86465 
L 232.256055 73.566486 
L 237.276125 72.948446 
L 237.276125 74.305882 
L 240.365398 73.921028 
L 240.365398 74.584615 
L 240.751557 74.536119 
L 240.751557 75.195574 
L 243.84083 74.804686 
L 243.84083 75.45119 
L 245.771626 75.207273 
L 245.771626 76.48 
L 246.543945 76.379016 
L 246.543945 77.00908 
L 248.088581 76.804868 
L 248.088581 78.048 
L 249.633218 77.837916 
L 249.633218 78.4512 
L 251.177855 78.24 
L 251.177855 79.450435 
L 251.564014 79.395976 
L 251.564014 81.190588 
L 252.722491 81.018947 
L 252.722491 81.609339 
L 254.267128 81.379459 
L 254.267128 81.963468 
L 256.584083 81.6192 
L 256.584083 82.194981 
L 258.12872 81.965887 
L 258.12872 82.535593 
L 261.604152 82.024 
L 261.604152 82.583068 
L 261.990311 82.526347 
L 261.990311 83.636471 
L 262.376471 83.578128 
L 262.376471 84.129231 
L 263.534948 83.952787 
L 263.534948 84.4992 
L 263.921107 84.439927 
L 263.921107 85.525063 
L 264.307266 85.46426 
L 264.307266 86.003027 
L 265.465744 85.819355 
L 265.465744 86.353631 
L 266.238062 86.230588 
L 266.238062 86.761281 
L 267.010381 86.637447 
L 267.010381 87.164602 
L 267.39654 87.102191 
L 267.39654 88.149296 
L 268.168858 88.021895 
L 268.168858 88.541086 
L 268.555017 88.476923 
L 268.555017 88.993508 
L 270.485813 88.672111 
L 270.485813 89.692138 
L 271.644291 89.497358 
L 271.644291 91.007509 
L 273.961246 90.610541 
L 273.961246 91.106105 
L 278.595156 90.327273 
L 278.595156 90.812673 
L 279.367474 90.684474 
L 279.367474 91.166897 
L 279.753633 91.102426 
L 279.753633 91.582586 
L 280.912111 91.388404 
L 280.912111 92.813485 
L 281.29827 92.747184 
L 281.29827 94.62328 
L 281.684429 94.554607 
L 281.684429 95.482368 
L 282.070588 95.412652 
L 282.070588 95.873684 
L 284.001384 95.525316 
L 284.001384 95.981801 
L 287.862976 95.295303 
L 287.862976 96.638266 
L 288.249135 96.569026 
L 288.249135 97.013333 
L 289.021453 96.874338 
L 289.021453 97.316129 
L 289.793772 97.176845 
L 289.793772 98.490732 
L 292.883045 97.928675 
L 292.883045 98.359579 
L 293.269204 98.28973 
L 293.269204 99.146587 
L 293.655363 99.075874 
L 293.655363 99.501851 
L 294.427682 99.36 
L 294.427682 99.783655 
L 295.2 99.6416 
L 295.2 100.062959 
L 295.586159 99.991728 
L 295.586159 100.829691 
L 295.972318 100.757647 
L 295.972318 101.174273 
L 298.289273 100.743406 
L 298.289273 102.793526 
L 299.447751 102.573583 
L 299.447751 103.382496 
L 302.537024 102.797617 
L 302.537024 103.196601 
L 302.923183 103.12396 
L 302.923183 104.312789 
L 303.695502 104.165393 
L 303.695502 106.120167 
L 304.081661 106.044568 
L 304.081661 106.431822 
L 305.240138 106.204986 
L 305.240138 106.589876 
L 305.626298 106.514254 
L 305.626298 106.897655 
L 306.784775 106.670769 
L 306.784775 107.43189 
L 307.170934 107.355841 
L 307.170934 107.734426 
L 308.715571 107.430652 
L 308.715571 108.555345 
L 309.10173 108.478703 
L 309.10173 108.851174 
L 309.874048 108.697712 
L 309.874048 109.806756 
L 311.032526 109.574579 
L 311.032526 110.671277 
L 311.804844 110.515225 
L 311.804844 111.24 
L 312.577163 111.083272 
L 312.577163 111.443478 
L 312.963322 111.365053 
L 312.963322 112.08189 
L 313.349481 112.002936 
L 313.349481 113.776875 
L 313.73564 113.696333 
L 313.73564 114.048 
L 314.121799 113.967315 
L 314.121799 114.31772 
L 314.507958 114.236895 
L 314.507958 114.586047 
L 314.894118 114.505084 
L 314.894118 114.85299 
L 315.280277 114.771892 
L 315.280277 115.11856 
L 315.666436 115.03733 
L 315.666436 115.382769 
L 316.052595 115.301408 
L 316.052595 115.988966 
L 316.438754 115.907143 
L 316.438754 117.609125 
L 316.824913 117.525873 
L 316.824913 118.2 
L 317.211073 118.116318 
L 317.211073 119.785263 
L 318.36955 119.530787 
L 318.36955 120.847304 
L 319.141869 120.676283 
L 319.141869 121.328455 
L 319.528028 121.242667 
L 319.528028 122.85762 
L 319.914187 122.770588 
L 319.914187 123.090918 
L 320.300346 123.003814 
L 320.300346 123.323077 
L 321.458824 123.06219 
L 321.458824 123.37983 
L 321.844983 123.29301 
L 321.844983 123.925424 
L 322.231142 123.838259 
L 322.231142 125.092852 
L 322.617301 125.004808 
L 322.617301 125.316303 
L 323.00346 125.228201 
L 323.00346 127.386064 
L 323.389619 127.296342 
L 323.389619 128.20942 
L 324.161938 128.029091 
L 324.161938 128.331509 
L 324.934256 128.151529 
L 324.934256 131.426341 
L 325.706574 131.2419 
L 325.706574 133.279448 
L 326.478893 133.092661 
L 326.478893 135.094608 
L 327.251211 134.905607 
L 327.251211 136.314041 
L 328.409689 136.028976 
L 328.409689 137.69457 
L 328.795848 137.59875 
L 328.795848 137.87398 
L 329.182007 137.778174 
L 329.182007 138.052592 
L 329.568166 137.9568 
L 329.568166 138.775814 
L 329.954325 138.679646 
L 329.954325 139.222252 
L 330.340484 139.12591 
L 330.340484 139.665743 
L 330.726644 139.569231 
L 330.726644 140.907541 
L 331.112803 140.810306 
L 331.112803 142.92 
L 331.498962 142.821535 
L 331.498962 143.862045 
L 332.27128 143.664361 
L 332.27128 144.694588 
L 332.657439 144.595385 
L 332.657439 144.851398 
L 333.043599 144.752239 
L 333.043599 145.00754 
L 334.974394 144.514068 
L 334.974394 144.768 
L 335.360554 144.669767 
L 335.360554 145.175696 
L 336.132872 144.9792 
L 336.132872 145.231041 
L 336.519031 145.132941 
L 336.519031 146.134393 
L 336.90519 146.035862 
L 336.90519 147.028345 
L 337.291349 146.929397 
L 337.291349 147.176075 
L 337.677509 147.077178 
L 337.677509 147.568696 
L 338.063668 147.4697 
L 338.063668 147.958885 
L 338.449827 147.859794 
L 338.449827 148.346667 
L 339.608304 148.049723 
L 339.608304 148.774969 
L 341.5391 148.281913 
L 341.5391 151.364819 
L 342.311419 151.165371 
L 342.311419 152.096766 
L 342.697578 151.99681 
L 342.697578 152.690099 
L 343.469896 152.49 
L 343.469896 154.316693 
L 344.242215 154.115363 
L 344.242215 154.341433 
L 344.628374 154.240941 
L 344.628374 155.140312 
L 345.014533 155.039532 
L 345.014533 155.263158 
L 345.400692 155.162454 
L 345.400692 155.385525 
L 346.17301 155.184466 
L 346.17301 155.406867 
L 346.945329 155.20635 
L 346.945329 155.87027 
L 347.717647 155.669827 
L 347.717647 156.766711 
L 348.103806 156.666207 
L 348.103806 156.884211 
L 348.489965 156.783786 
L 348.489965 157.218321 
L 348.876125 157.117865 
L 348.876125 159.264816 
L 349.648443 159.062319 
L 349.648443 160.539775 
L 350.420761 160.336598 
L 350.420761 161.379126 
L 351.19308 161.17571 
L 351.19308 162.001998 
L 351.579239 161.900185 
L 351.579239 162.105706 
L 351.965398 162.003985 
L 351.965398 163.025455 
L 352.351557 162.92345 
L 352.351557 163.733528 
L 352.737716 163.631342 
L 352.737716 165.233146 
L 353.123875 165.130435 
L 353.123875 165.328941 
L 353.510035 165.226329 
L 353.510035 165.42439 
L 353.896194 165.321877 
L 353.896194 165.519495 
L 354.282353 165.417081 
L 354.282353 166.203662 
L 355.054671 165.99871 
L 355.054671 166.389553 
L 355.82699 166.185 
L 355.82699 166.379732 
L 356.213149 166.277647 
L 356.213149 166.85952 
L 356.599308 166.757371 
L 356.599308 167.528071 
L 356.985467 167.425782 
L 356.985467 167.808932 
L 357.371626 167.706667 
L 357.371626 169.036564 
L 357.757785 168.93394 
L 357.757785 169.12252 
L 358.530104 168.917659 
L 358.530104 169.105759 
L 358.916263 169.003522 
L 358.916263 169.19122 
L 359.302422 169.089086 
L 359.302422 169.276383 
L 359.688581 169.174353 
L 359.688581 169.92 
L 360.07474 169.817855 
L 360.07474 170.003388 
L 360.4609 169.901347 
L 360.4609 170.64 
L 360.847059 170.53785 
L 360.847059 171.271157 
L 361.233218 171.168904 
L 361.233218 171.351377 
L 362.005536 171.147259 
L 362.005536 172.234766 
L 362.391696 172.132564 
L 362.391696 173.030059 
L 363.164014 172.825519 
L 363.164014 173.714824 
L 363.550173 173.612494 
L 363.550173 174.318326 
L 363.936332 174.21592 
L 363.936332 175.959403 
L 364.322491 175.85657 
L 364.322491 176.029272 
L 364.708651 175.926551 
L 364.708651 176.442772 
L 365.480969 176.237496 
L 365.480969 176.58 
L 367.025606 176.171016 
L 367.025606 177.190473 
L 367.411765 177.088313 
L 367.411765 177.257199 
L 367.797924 177.155151 
L 367.797924 177.49199 
L 368.184083 177.39 
L 368.184083 178.393667 
L 368.570242 178.291525 
L 368.570242 178.457806 
L 368.956401 178.355778 
L 368.956401 178.521739 
L 369.342561 178.419823 
L 369.342561 178.585466 
L 369.72872 178.483663 
L 369.72872 179.307648 
L 370.114879 179.205755 
L 370.114879 179.533408 
L 370.501038 179.431579 
L 370.501038 179.758089 
L 370.887197 179.656325 
L 370.887197 179.9817 
L 371.273356 179.88 
L 371.273356 180.365986 
L 371.659516 180.264304 
L 371.659516 180.425739 
L 372.045675 180.324171 
L 372.045675 182.714754 
L 372.431834 182.612668 
L 372.431834 183.553043 
L 372.817993 183.450861 
L 372.817993 183.917647 
L 373.204152 183.815499 
L 373.204152 183.970572 
L 373.976471 183.766667 
L 373.976471 184.075932 
L 374.36263 183.974134 
L 374.36263 185.505882 
L 374.748789 185.403847 
L 374.748789 186.311489 
L 375.134948 186.209385 
L 375.134948 186.510023 
L 375.907266 186.306132 
L 375.907266 187.795041 
L 376.293426 187.692973 
L 376.293426 188.575426 
L 376.679585 188.473308 
L 376.679585 190.644727 
L 377.065744 190.542288 
L 377.065744 190.828121 
L 377.451903 190.725773 
L 377.451903 191.152858 
L 377.838062 191.050573 
L 377.838062 191.192487 
L 378.224221 191.090323 
L 378.224221 192.916078 
L 378.610381 192.813701 
L 378.610381 192.95269 
L 378.99654 192.850435 
L 378.99654 193.542238 
L 379.382699 193.44 
L 379.382699 193.852613 
L 379.768858 193.750446 
L 379.768858 195.247966 
L 380.155017 195.145678 
L 380.155017 195.415385 
L 380.541176 195.313196 
L 380.541176 195.447738 
L 380.927336 195.345672 
L 380.927336 196.414982 
L 381.313495 196.312881 
L 381.313495 197.37 
L 381.699654 197.267874 
L 381.699654 198.05283 
L 382.085813 197.950726 
L 382.085813 198.340683 
L 382.471972 198.238663 
L 382.471972 199.013592 
L 382.858131 198.911601 
L 382.858131 200.694688 
L 383.244291 200.592593 
L 383.244291 202.093714 
L 383.63045 201.99157 
L 383.63045 202.732891 
L 384.016609 202.630798 
L 384.016609 204.337158 
L 384.402768 204.235017 
L 384.402768 205.434251 
L 385.175087 205.23014 
L 385.175087 205.349163 
L 385.561246 205.247299 
L 385.561246 206.193743 
L 385.947405 206.091926 
L 385.947405 207.954987 
L 386.333564 207.853151 
L 386.333564 208.312817 
L 386.719723 208.211079 
L 386.719723 208.325614 
L 386.719723 210.25018 
L 387.492042 210.046829 
L 387.492042 210.158717 
L 387.492042 210.827042 
L 388.26436 210.735 
L 388.26436 211.177099 
L 388.650519 211.075804 
L 388.650519 211.185972 
L 388.650519 211.953245 
L 389.036678 211.852035 
L 389.036678 211.961087 
L 389.036678 213.580476 
L 389.422837 213.479325 
L 389.422837 213.5862 
L 389.422837 213.799551 
L 389.808997 213.698515 
L 389.808997 213.804988 
L 389.808997 215.28178 
L 390.195156 215.180828 
L 390.195156 215.285333 
L 390.195156 218.562712 
L 390.581315 218.461851 
L 390.581315 218.562225 
L 390.581315 219.161928 
L 390.967474 219.061192 
L 390.967474 219.160722 
L 390.967474 219.557647 
L 391.353633 219.457037 
L 391.353633 219.555971 
L 391.353633 219.753485 
L 391.739792 219.652998 
L 391.739792 219.751579 
L 391.739792 221.216266 
L 392.125952 221.115924 
L 392.125952 221.212647 
L 392.125952 221.405748 
L 392.512111 221.305532 
L 392.512111 221.401914 
L 392.512111 222.264254 
L 392.89827 222.164181 
L 392.89827 222.259437 
L 392.89827 224.60502 
L 393.670588 224.405407 
L 393.670588 224.497829 
L 393.670588 225.324848 
L 394.056747 225.225258 
L 394.056747 225.316627 
L 394.056747 225.590103 
L 394.442907 225.490647 
L 394.442907 225.581602 
L 394.442907 226.305513 
L 394.442907 226.305513 
" style="fill:none;stroke:#1919ff;stroke-linecap:square;stroke-width:2;"/>
   </g>
   <g id="patch_3">
    <path d="M 72 384.48 
L 72 51.84 
" style="fill:none;stroke:#000000;stroke-linecap:square;stroke-linejoin:miter;stroke-width:0.8;"/>
   </g>
   <g id="patch_4">
    <path d="M 518.4 384.48 
L 518.4 51.84 
" style="fill:none;stroke:#000000;stroke-linecap:square;stroke-linejoin:miter;stroke-width:0.8;"/>
   </g>
   <g id="patch_5">
    <path d="M 72 384.48 
L 518.4 384.48 
" style="fill:none;stroke:#000000;stroke-linecap:square;stroke-linejoin:miter;stroke-width:0.8;"/>
   </g>
   <g id="patch_6">
    <path d="M 72 51.84 
L 518.4 51.84 
" style="fill:none;stroke:#000000;stroke-linecap:square;stroke-linejoin:miter;stroke-width:0.8;"/>
   </g>
   <g id="legend_1">
    <g id="patch_7">
     <path d="M 79 379.48 
L 191.95 379.48 
Q 193.95 379.48 193.95 377.48 
L 193.95 363.801875 
Q 193.95 361.801875 191.95 361.801875 
L 79 361.801875 
Q 77 361.801875 77 363.801875 
L 77 377.48 
Q 77 379.48 79 379.48 
z
" style="fill:#ffffff;opacity:0.8;stroke:#cccccc;stroke-linejoin:miter;"/>
    </g>
    <g id="line2d_26">
     <path d="M 81 369.900312 
L 101 369.900312 
" style="fill:none;stroke:#1919ff;stroke-linecap:square;stroke-width:2;"/>
    </g>
    <g id="line2d_27"/>
    <g id="text_15">
     <!-- 63.56%  current -->
     <defs>
      <path d="M 40.578125 39.3125 
Q 47.65625 37.796875 51.625 33 
Q 55.609375 28.21875 55.609375 21.1875 
Q 55.609375 10.40625 48.1875 4.484375 
Q 40.765625 -1.421875 27.09375 -1.421875 
Q 22.515625 -1.421875 17.65625 -0.515625 
Q 12.796875 0.390625 7.625 2.203125 
L 7.625 11.71875 
Q 11.71875 9.328125 16.59375 8.109375 
Q 21.484375 6.890625 26.8125 6.890625 
Q 36.078125 6.890625 40.9375 10.546875 
Q 45.796875 14.203125 45.796875 21.1875 
Q 45.796875 27.640625 41.28125 31.265625 
Q 36.765625 34.90625 28.71875 34.90625 
L 20.21875 34.90625 
L 20.21875 43.015625 
L 29.109375 43.015625 
Q 36.375 43.015625 40.234375 45.921875 
Q 44.09375 48.828125 44.09375 54.296875 
Q 44.09375 59.90625 40.109375 62.90625 
Q 36.140625 65.921875 28.71875 65.921875 
Q 24.65625 65.921875 20.015625 65.03125 
Q 15.375 64.15625 9.8125 62.3125 
L 9.8125 71.09375 
Q 15.4375 72.65625 20.34375 73.4375 
Q 25.25 74.21875 29.59375 74.21875 
Q 40.828125 74.21875 47.359375 69.109375 
Q 53.90625 64.015625 53.90625 55.328125 
Q 53.90625 49.265625 50.4375 45.09375 
Q 46.96875 40.921875 40.578125 39.3125 
z
" id="DejaVuSans-51"/>
      <path d="M 10.796875 72.90625 
L 49.515625 72.90625 
L 49.515625 64.59375 
L 19.828125 64.59375 
L 19.828125 46.734375 
Q 21.96875 47.46875 24.109375 47.828125 
Q 26.265625 48.1875 28.421875 48.1875 
Q 40.625 48.1875 47.75 41.5 
Q 54.890625 34.8125 54.890625 23.390625 
Q 54.890625 11.625 47.5625 5.09375 
Q 40.234375 -1.421875 26.90625 -1.421875 
Q 22.3125 -1.421875 17.546875 -0.640625 
Q 12.796875 0.140625 7.71875 1.703125 
L 7.71875 11.625 
Q 12.109375 9.234375 16.796875 8.0625 
Q 21.484375 6.890625 26.703125 6.890625 
Q 35.15625 6.890625 40.078125 11.328125 
Q 45.015625 15.765625 45.015625 23.390625 
Q 45.015625 31 40.078125 35.4375 
Q 35.15625 39.890625 26.703125 39.890625 
Q 22.75 39.890625 18.8125 39.015625 
Q 14.890625 38.140625 10.796875 36.28125 
z
" id="DejaVuSans-53"/>
      <path d="M 72.703125 32.078125 
Q 68.453125 32.078125 66.03125 28.46875 
Q 63.625 24.859375 63.625 18.40625 
Q 63.625 12.0625 66.03125 8.421875 
Q 68.453125 4.78125 72.703125 4.78125 
Q 76.859375 4.78125 79.265625 8.421875 
Q 81.6875 12.0625 81.6875 18.40625 
Q 81.6875 24.8125 79.265625 28.4375 
Q 76.859375 32.078125 72.703125 32.078125 
z
M 72.703125 38.28125 
Q 80.421875 38.28125 84.953125 32.90625 
Q 89.5 27.546875 89.5 18.40625 
Q 89.5 9.28125 84.9375 3.921875 
Q 80.375 -1.421875 72.703125 -1.421875 
Q 64.890625 -1.421875 60.34375 3.921875 
Q 55.8125 9.28125 55.8125 18.40625 
Q 55.8125 27.59375 60.375 32.9375 
Q 64.9375 38.28125 72.703125 38.28125 
z
M 22.3125 68.015625 
Q 18.109375 68.015625 15.6875 64.375 
Q 13.28125 60.75 13.28125 54.390625 
Q 13.28125 47.953125 15.671875 44.328125 
Q 18.0625 40.71875 22.3125 40.71875 
Q 26.5625 40.71875 28.96875 44.328125 
Q 31.390625 47.953125 31.390625 54.390625 
Q 31.390625 60.6875 28.953125 64.34375 
Q 26.515625 68.015625 22.3125 68.015625 
z
M 66.40625 74.21875 
L 74.21875 74.21875 
L 28.609375 -1.421875 
L 20.796875 -1.421875 
z
M 22.3125 74.21875 
Q 30.03125 74.21875 34.609375 68.875 
Q 39.203125 63.53125 39.203125 54.390625 
Q 39.203125 45.171875 34.640625 39.84375 
Q 30.078125 34.515625 22.3125 34.515625 
Q 14.546875 34.515625 10.03125 39.859375 
Q 5.515625 45.21875 5.515625 54.390625 
Q 5.515625 63.484375 10.046875 68.84375 
Q 14.59375 74.21875 22.3125 74.21875 
z
" id="DejaVuSans-37"/>
      <path id="DejaVuSans-32"/>
      <path d="M 8.5 21.578125 
L 8.5 54.6875 
L 17.484375 54.6875 
L 17.484375 21.921875 
Q 17.484375 14.15625 20.5 10.265625 
Q 23.53125 6.390625 29.59375 6.390625 
Q 36.859375 6.390625 41.078125 11.03125 
Q 45.3125 15.671875 45.3125 23.6875 
L 45.3125 54.6875 
L 54.296875 54.6875 
L 54.296875 0 
L 45.3125 0 
L 45.3125 8.40625 
Q 42.046875 3.421875 37.71875 1 
Q 33.40625 -1.421875 27.6875 -1.421875 
Q 18.265625 -1.421875 13.375 4.4375 
Q 8.5 10.296875 8.5 21.578125 
z
M 31.109375 56 
z
" id="DejaVuSans-117"/>
      <path d="M 18.3125 70.21875 
L 18.3125 54.6875 
L 36.8125 54.6875 
L 36.8125 47.703125 
L 18.3125 47.703125 
L 18.3125 18.015625 
Q 18.3125 11.328125 20.140625 9.421875 
Q 21.96875 7.515625 27.59375 7.515625 
L 36.8125 7.515625 
L 36.8125 0 
L 27.59375 0 
Q 17.1875 0 13.234375 3.875 
Q 9.28125 7.765625 9.28125 18.015625 
L 9.28125 47.703125 
L 2.6875 47.703125 
L 2.6875 54.6875 
L 9.28125 54.6875 
L 9.28125 70.21875 
z
" id="DejaVuSans-116"/>
     </defs>
     <g transform="translate(109 373.400312)scale(0.1 -0.1)">
      <use xlink:href="#DejaVuSans-54"/>
      <use x="63.623047" xlink:href="#DejaVuSans-51"/>
      <use x="127.246094" xlink:href="#DejaVuSans-46"/>
      <use x="159.033203" xlink:href="#DejaVuSans-53"/>
      <use x="222.65625" xlink:href="#DejaVuSans-54"/>
      <use x="286.279297" xlink:href="#DejaVuSans-37"/>
      <use x="381.298828" xlink:href="#DejaVuSans-32"/>
      <use x="413.085938" xlink:href="#DejaVuSans-32"/>
      <use x="444.873047" xlink:href="#DejaVuSans-99"/>
      <use x="499.853516" xlink:href="#DejaVuSans-117"/>
      <use x="563.232422" xlink:href="#DejaVuSans-114"/>
      <use x="604.330078" xlink:href="#DejaVuSans-114"/>
      <use x="645.412109" xlink:href="#DejaVuSans-101"/>
      <use x="706.935547" xlink:href="#DejaVuSans-110"/>
      <use x="770.314453" xlink:href="#DejaVuSans-116"/>
     </g>
    </g>
   </g>
  </g>
  <g id="text_16">
   <!-- Downtown -->
   <defs>
    <path d="M 27.984375 58.6875 
L 27.984375 14.203125 
L 34.71875 14.203125 
Q 46.234375 14.203125 52.3125 19.921875 
Q 58.40625 25.640625 58.40625 36.53125 
Q 58.40625 47.359375 52.34375 53.015625 
Q 46.296875 58.6875 34.71875 58.6875 
z
M 9.1875 72.90625 
L 29 72.90625 
Q 45.609375 72.90625 53.734375 70.53125 
Q 61.859375 68.171875 67.671875 62.5 
Q 72.796875 57.5625 75.28125 51.109375 
Q 77.78125 44.671875 77.78125 36.53125 
Q 77.78125 28.265625 75.28125 21.796875 
Q 72.796875 15.328125 67.671875 10.40625 
Q 61.8125 4.734375 53.609375 2.359375 
Q 45.40625 0 29 0 
L 9.1875 0 
z
" id="DejaVuSans-Bold-68"/>
    <path d="M 34.421875 43.5 
Q 28.609375 43.5 25.5625 39.328125 
Q 22.515625 35.15625 22.515625 27.296875 
Q 22.515625 19.4375 25.5625 15.25 
Q 28.609375 11.078125 34.421875 11.078125 
Q 40.140625 11.078125 43.15625 15.25 
Q 46.1875 19.4375 46.1875 27.296875 
Q 46.1875 35.15625 43.15625 39.328125 
Q 40.140625 43.5 34.421875 43.5 
z
M 34.421875 56 
Q 48.53125 56 56.46875 48.375 
Q 64.40625 40.765625 64.40625 27.296875 
Q 64.40625 13.8125 56.46875 6.1875 
Q 48.53125 -1.421875 34.421875 -1.421875 
Q 20.265625 -1.421875 12.28125 6.1875 
Q 4.296875 13.8125 4.296875 27.296875 
Q 4.296875 40.765625 12.28125 48.375 
Q 20.265625 56 34.421875 56 
z
" id="DejaVuSans-Bold-111"/>
    <path d="M 3.515625 54.6875 
L 20.515625 54.6875 
L 29.6875 17 
L 38.921875 54.6875 
L 53.515625 54.6875 
L 62.703125 17.390625 
L 71.921875 54.6875 
L 88.921875 54.6875 
L 74.515625 0 
L 55.421875 0 
L 46.1875 37.59375 
L 37.015625 0 
L 17.921875 0 
z
" id="DejaVuSans-Bold-119"/>
    <path d="M 63.375 33.296875 
L 63.375 0 
L 45.796875 0 
L 45.796875 5.421875 
L 45.796875 25.484375 
Q 45.796875 32.5625 45.484375 35.25 
Q 45.171875 37.9375 44.390625 39.203125 
Q 43.359375 40.921875 41.59375 41.875 
Q 39.84375 42.828125 37.59375 42.828125 
Q 32.125 42.828125 29 38.59375 
Q 25.875 34.375 25.875 26.90625 
L 25.875 0 
L 8.40625 0 
L 8.40625 54.6875 
L 25.875 54.6875 
L 25.875 46.6875 
Q 29.828125 51.46875 34.265625 53.734375 
Q 38.71875 56 44.09375 56 
Q 53.5625 56 58.46875 50.1875 
Q 63.375 44.390625 63.375 33.296875 
z
" id="DejaVuSans-Bold-110"/>
    <path d="M 27.484375 70.21875 
L 27.484375 54.6875 
L 45.515625 54.6875 
L 45.515625 42.1875 
L 27.484375 42.1875 
L 27.484375 19 
Q 27.484375 15.1875 29 13.84375 
Q 30.515625 12.5 35.015625 12.5 
L 44 12.5 
L 44 0 
L 29 0 
Q 18.65625 0 14.328125 4.3125 
Q 10.015625 8.640625 10.015625 19 
L 10.015625 42.1875 
L 1.3125 42.1875 
L 1.3125 54.6875 
L 10.015625 54.6875 
L 10.015625 70.21875 
z
" id="DejaVuSans-Bold-116"/>
   </defs>
   <g transform="translate(252.2775 17.758125)scale(0.12 -0.12)">
    <use xlink:href="#DejaVuSans-Bold-68"/>
    <use x="83.007812" xlink:href="#DejaVuSans-Bold-111"/>
    <use x="151.708984" xlink:href="#DejaVuSans-Bold-119"/>
    <use x="244.091797" xlink:href="#DejaVuSans-Bold-110"/>
    <use x="315.283203" xlink:href="#DejaVuSans-Bold-116"/>
    <use x="363.085938" xlink:href="#DejaVuSans-Bold-111"/>
    <use x="431.787109" xlink:href="#DejaVuSans-Bold-119"/>
    <use x="524.169922" xlink:href="#DejaVuSans-Bold-110"/>
   </g>
  </g>
 </g>
 <defs>
  <clipPath id="p2f9d488979">
   <rect height="332.64" width="446.4" x="72" y="51.84"/>
  </clipPath>
 </defs>
</svg>
