<?xml version="1.0" encoding="utf-8" standalone="no"?>
<!DOCTYPE svg PUBLIC "-//W3C//DTD SVG 1.1//EN"
  "http://www.w3.org/Graphics/SVG/1.1/DTD/svg11.dtd">
<!-- Created with matplotlib (https://matplotlib.org/) -->
<svg height="432pt" version="1.1" viewBox="0 0 576 432" width="576pt" xmlns="http://www.w3.org/2000/svg" xmlns:xlink="http://www.w3.org/1999/xlink">
 <defs>
  <style type="text/css">
*{stroke-linecap:butt;stroke-linejoin:round;}
  </style>
 </defs>
 <g id="figure_1">
  <g id="patch_1">
   <path d="M 0 432 
L 576 432 
L 576 0 
L 0 0 
z
" style="fill:none;"/>
  </g>
  <g id="axes_1">
   <g id="patch_2">
    <path d="M 72 384.48 
L 518.4 384.48 
L 518.4 51.84 
L 72 51.84 
z
" style="fill:none;"/>
   </g>
   <g id="matplotlib.axis_1">
    <g id="xtick_1">
     <g id="line2d_1">
      <path clip-path="url(#p3449026f84)" d="M 175.971686 384.48 
L 175.971686 51.84 
" style="fill:none;stroke:#b0b0b0;stroke-linecap:square;stroke-width:0.8;"/>
     </g>
     <g id="line2d_2">
      <defs>
       <path d="M 0 0 
L 0 3.5 
" id="m4a10e25ad7" style="stroke:#000000;stroke-width:0.8;"/>
      </defs>
      <g>
       <use style="stroke:#000000;stroke-width:0.8;" x="175.971686" xlink:href="#m4a10e25ad7" y="384.48"/>
      </g>
     </g>
     <g id="text_1">
      <!-- $\mathdefault{10^{-2}}$ -->
      <defs>
       <path d="M 12.40625 8.296875 
L 28.515625 8.296875 
L 28.515625 63.921875 
L 10.984375 60.40625 
L 10.984375 69.390625 
L 28.421875 72.90625 
L 38.28125 72.90625 
L 38.28125 8.296875 
L 54.390625 8.296875 
L 54.390625 0 
L 12.40625 0 
z
" id="DejaVuSans-49"/>
       <path d="M 31.78125 66.40625 
Q 24.171875 66.40625 20.328125 58.90625 
Q 16.5 51.421875 16.5 36.375 
Q 16.5 21.390625 20.328125 13.890625 
Q 24.171875 6.390625 31.78125 6.390625 
Q 39.453125 6.390625 43.28125 13.890625 
Q 47.125 21.390625 47.125 36.375 
Q 47.125 51.421875 43.28125 58.90625 
Q 39.453125 66.40625 31.78125 66.40625 
z
M 31.78125 74.21875 
Q 44.046875 74.21875 50.515625 64.515625 
Q 56.984375 54.828125 56.984375 36.375 
Q 56.984375 17.96875 50.515625 8.265625 
Q 44.046875 -1.421875 31.78125 -1.421875 
Q 19.53125 -1.421875 13.0625 8.265625 
Q 6.59375 17.96875 6.59375 36.375 
Q 6.59375 54.828125 13.0625 64.515625 
Q 19.53125 74.21875 31.78125 74.21875 
z
" id="DejaVuSans-48"/>
       <path d="M 10.59375 35.5 
L 73.1875 35.5 
L 73.1875 27.203125 
L 10.59375 27.203125 
z
" id="DejaVuSans-8722"/>
       <path d="M 19.1875 8.296875 
L 53.609375 8.296875 
L 53.609375 0 
L 7.328125 0 
L 7.328125 8.296875 
Q 12.9375 14.109375 22.625 23.890625 
Q 32.328125 33.6875 34.8125 36.53125 
Q 39.546875 41.84375 41.421875 45.53125 
Q 43.3125 49.21875 43.3125 52.78125 
Q 43.3125 58.59375 39.234375 62.25 
Q 35.15625 65.921875 28.609375 65.921875 
Q 23.96875 65.921875 18.8125 64.3125 
Q 13.671875 62.703125 7.8125 59.421875 
L 7.8125 69.390625 
Q 13.765625 71.78125 18.9375 73 
Q 24.125 74.21875 28.421875 74.21875 
Q 39.75 74.21875 46.484375 68.546875 
Q 53.21875 62.890625 53.21875 53.421875 
Q 53.21875 48.921875 51.53125 44.890625 
Q 49.859375 40.875 45.40625 35.40625 
Q 44.1875 33.984375 37.640625 27.21875 
Q 31.109375 20.453125 19.1875 8.296875 
z
" id="DejaVuSans-50"/>
      </defs>
      <g transform="translate(164.221686 399.078438)scale(0.1 -0.1)">
       <use transform="translate(0 0.765625)" xlink:href="#DejaVuSans-49"/>
       <use transform="translate(63.623047 0.765625)" xlink:href="#DejaVuSans-48"/>
       <use transform="translate(128.203125 39.046875)scale(0.7)" xlink:href="#DejaVuSans-8722"/>
       <use transform="translate(186.855469 39.046875)scale(0.7)" xlink:href="#DejaVuSans-50"/>
      </g>
     </g>
    </g>
    <g id="xtick_2">
     <g id="line2d_3">
      <path clip-path="url(#p3449026f84)" d="M 290.114457 384.48 
L 290.114457 51.84 
" style="fill:none;stroke:#b0b0b0;stroke-linecap:square;stroke-width:0.8;"/>
     </g>
     <g id="line2d_4">
      <g>
       <use style="stroke:#000000;stroke-width:0.8;" x="290.114457" xlink:href="#m4a10e25ad7" y="384.48"/>
      </g>
     </g>
     <g id="text_2">
      <!-- $\mathdefault{10^{-1}}$ -->
      <g transform="translate(278.364457 399.078438)scale(0.1 -0.1)">
       <use transform="translate(0 0.684375)" xlink:href="#DejaVuSans-49"/>
       <use transform="translate(63.623047 0.684375)" xlink:href="#DejaVuSans-48"/>
       <use transform="translate(128.203125 38.965625)scale(0.7)" xlink:href="#DejaVuSans-8722"/>
       <use transform="translate(186.855469 38.965625)scale(0.7)" xlink:href="#DejaVuSans-49"/>
      </g>
     </g>
    </g>
    <g id="xtick_3">
     <g id="line2d_5">
      <path clip-path="url(#p3449026f84)" d="M 404.257229 384.48 
L 404.257229 51.84 
" style="fill:none;stroke:#b0b0b0;stroke-linecap:square;stroke-width:0.8;"/>
     </g>
     <g id="line2d_6">
      <g>
       <use style="stroke:#000000;stroke-width:0.8;" x="404.257229" xlink:href="#m4a10e25ad7" y="384.48"/>
      </g>
     </g>
     <g id="text_3">
      <!-- $\mathdefault{10^{0}}$ -->
      <g transform="translate(395.457229 399.078438)scale(0.1 -0.1)">
       <use transform="translate(0 0.765625)" xlink:href="#DejaVuSans-49"/>
       <use transform="translate(63.623047 0.765625)" xlink:href="#DejaVuSans-48"/>
       <use transform="translate(128.203125 39.046875)scale(0.7)" xlink:href="#DejaVuSans-48"/>
      </g>
     </g>
    </g>
    <g id="xtick_4">
     <g id="line2d_7">
      <path clip-path="url(#p3449026f84)" d="M 518.4 384.48 
L 518.4 51.84 
" style="fill:none;stroke:#b0b0b0;stroke-linecap:square;stroke-width:0.8;"/>
     </g>
     <g id="line2d_8">
      <g>
       <use style="stroke:#000000;stroke-width:0.8;" x="518.4" xlink:href="#m4a10e25ad7" y="384.48"/>
      </g>
     </g>
     <g id="text_4">
      <!-- $\mathdefault{10^{1}}$ -->
      <g transform="translate(509.6 399.078438)scale(0.1 -0.1)">
       <use transform="translate(0 0.684375)" xlink:href="#DejaVuSans-49"/>
       <use transform="translate(63.623047 0.684375)" xlink:href="#DejaVuSans-48"/>
       <use transform="translate(128.203125 38.965625)scale(0.7)" xlink:href="#DejaVuSans-49"/>
      </g>
     </g>
    </g>
    <g id="xtick_5">
     <g id="line2d_9">
      <defs>
       <path d="M 0 0 
L 0 2 
" id="m0e6506ca38" style="stroke:#000000;stroke-width:0.6;"/>
      </defs>
      <g>
       <use style="stroke:#000000;stroke-width:0.6;" x="96.189312" xlink:href="#m0e6506ca38" y="384.48"/>
      </g>
     </g>
    </g>
    <g id="xtick_6">
     <g id="line2d_10">
      <g>
       <use style="stroke:#000000;stroke-width:0.6;" x="116.288856" xlink:href="#m0e6506ca38" y="384.48"/>
      </g>
     </g>
    </g>
    <g id="xtick_7">
     <g id="line2d_11">
      <g>
       <use style="stroke:#000000;stroke-width:0.6;" x="130.54971" xlink:href="#m0e6506ca38" y="384.48"/>
      </g>
     </g>
    </g>
    <g id="xtick_8">
     <g id="line2d_12">
      <g>
       <use style="stroke:#000000;stroke-width:0.6;" x="141.611287" xlink:href="#m0e6506ca38" y="384.48"/>
      </g>
     </g>
    </g>
    <g id="xtick_9">
     <g id="line2d_13">
      <g>
       <use style="stroke:#000000;stroke-width:0.6;" x="150.649254" xlink:href="#m0e6506ca38" y="384.48"/>
      </g>
     </g>
    </g>
    <g id="xtick_10">
     <g id="line2d_14">
      <g>
       <use style="stroke:#000000;stroke-width:0.6;" x="158.290746" xlink:href="#m0e6506ca38" y="384.48"/>
      </g>
     </g>
    </g>
    <g id="xtick_11">
     <g id="line2d_15">
      <g>
       <use style="stroke:#000000;stroke-width:0.6;" x="164.910108" xlink:href="#m0e6506ca38" y="384.48"/>
      </g>
     </g>
    </g>
    <g id="xtick_12">
     <g id="line2d_16">
      <g>
       <use style="stroke:#000000;stroke-width:0.6;" x="170.748799" xlink:href="#m0e6506ca38" y="384.48"/>
      </g>
     </g>
    </g>
    <g id="xtick_13">
     <g id="line2d_17">
      <g>
       <use style="stroke:#000000;stroke-width:0.6;" x="210.332084" xlink:href="#m0e6506ca38" y="384.48"/>
      </g>
     </g>
    </g>
    <g id="xtick_14">
     <g id="line2d_18">
      <g>
       <use style="stroke:#000000;stroke-width:0.6;" x="230.431628" xlink:href="#m0e6506ca38" y="384.48"/>
      </g>
     </g>
    </g>
    <g id="xtick_15">
     <g id="line2d_19">
      <g>
       <use style="stroke:#000000;stroke-width:0.6;" x="244.692482" xlink:href="#m0e6506ca38" y="384.48"/>
      </g>
     </g>
    </g>
    <g id="xtick_16">
     <g id="line2d_20">
      <g>
       <use style="stroke:#000000;stroke-width:0.6;" x="255.754059" xlink:href="#m0e6506ca38" y="384.48"/>
      </g>
     </g>
    </g>
    <g id="xtick_17">
     <g id="line2d_21">
      <g>
       <use style="stroke:#000000;stroke-width:0.6;" x="264.792026" xlink:href="#m0e6506ca38" y="384.48"/>
      </g>
     </g>
    </g>
    <g id="xtick_18">
     <g id="line2d_22">
      <g>
       <use style="stroke:#000000;stroke-width:0.6;" x="272.433518" xlink:href="#m0e6506ca38" y="384.48"/>
      </g>
     </g>
    </g>
    <g id="xtick_19">
     <g id="line2d_23">
      <g>
       <use style="stroke:#000000;stroke-width:0.6;" x="279.05288" xlink:href="#m0e6506ca38" y="384.48"/>
      </g>
     </g>
    </g>
    <g id="xtick_20">
     <g id="line2d_24">
      <g>
       <use style="stroke:#000000;stroke-width:0.6;" x="284.89157" xlink:href="#m0e6506ca38" y="384.48"/>
      </g>
     </g>
    </g>
    <g id="xtick_21">
     <g id="line2d_25">
      <g>
       <use style="stroke:#000000;stroke-width:0.6;" x="324.474855" xlink:href="#m0e6506ca38" y="384.48"/>
      </g>
     </g>
    </g>
    <g id="xtick_22">
     <g id="line2d_26">
      <g>
       <use style="stroke:#000000;stroke-width:0.6;" x="344.574399" xlink:href="#m0e6506ca38" y="384.48"/>
      </g>
     </g>
    </g>
    <g id="xtick_23">
     <g id="line2d_27">
      <g>
       <use style="stroke:#000000;stroke-width:0.6;" x="358.835253" xlink:href="#m0e6506ca38" y="384.48"/>
      </g>
     </g>
    </g>
    <g id="xtick_24">
     <g id="line2d_28">
      <g>
       <use style="stroke:#000000;stroke-width:0.6;" x="369.89683" xlink:href="#m0e6506ca38" y="384.48"/>
      </g>
     </g>
    </g>
    <g id="xtick_25">
     <g id="line2d_29">
      <g>
       <use style="stroke:#000000;stroke-width:0.6;" x="378.934797" xlink:href="#m0e6506ca38" y="384.48"/>
      </g>
     </g>
    </g>
    <g id="xtick_26">
     <g id="line2d_30">
      <g>
       <use style="stroke:#000000;stroke-width:0.6;" x="386.576289" xlink:href="#m0e6506ca38" y="384.48"/>
      </g>
     </g>
    </g>
    <g id="xtick_27">
     <g id="line2d_31">
      <g>
       <use style="stroke:#000000;stroke-width:0.6;" x="393.195651" xlink:href="#m0e6506ca38" y="384.48"/>
      </g>
     </g>
    </g>
    <g id="xtick_28">
     <g id="line2d_32">
      <g>
       <use style="stroke:#000000;stroke-width:0.6;" x="399.034342" xlink:href="#m0e6506ca38" y="384.48"/>
      </g>
     </g>
    </g>
    <g id="xtick_29">
     <g id="line2d_33">
      <g>
       <use style="stroke:#000000;stroke-width:0.6;" x="438.617627" xlink:href="#m0e6506ca38" y="384.48"/>
      </g>
     </g>
    </g>
    <g id="xtick_30">
     <g id="line2d_34">
      <g>
       <use style="stroke:#000000;stroke-width:0.6;" x="458.717171" xlink:href="#m0e6506ca38" y="384.48"/>
      </g>
     </g>
    </g>
    <g id="xtick_31">
     <g id="line2d_35">
      <g>
       <use style="stroke:#000000;stroke-width:0.6;" x="472.978025" xlink:href="#m0e6506ca38" y="384.48"/>
      </g>
     </g>
    </g>
    <g id="xtick_32">
     <g id="line2d_36">
      <g>
       <use style="stroke:#000000;stroke-width:0.6;" x="484.039602" xlink:href="#m0e6506ca38" y="384.48"/>
      </g>
     </g>
    </g>
    <g id="xtick_33">
     <g id="line2d_37">
      <g>
       <use style="stroke:#000000;stroke-width:0.6;" x="493.077569" xlink:href="#m0e6506ca38" y="384.48"/>
      </g>
     </g>
    </g>
    <g id="xtick_34">
     <g id="line2d_38">
      <g>
       <use style="stroke:#000000;stroke-width:0.6;" x="500.719061" xlink:href="#m0e6506ca38" y="384.48"/>
      </g>
     </g>
    </g>
    <g id="xtick_35">
     <g id="line2d_39">
      <g>
       <use style="stroke:#000000;stroke-width:0.6;" x="507.338423" xlink:href="#m0e6506ca38" y="384.48"/>
      </g>
     </g>
    </g>
    <g id="xtick_36">
     <g id="line2d_40">
      <g>
       <use style="stroke:#000000;stroke-width:0.6;" x="513.177113" xlink:href="#m0e6506ca38" y="384.48"/>
      </g>
     </g>
    </g>
    <g id="text_5">
     <!-- FPPI -->
     <defs>
      <path d="M 9.8125 72.90625 
L 51.703125 72.90625 
L 51.703125 64.59375 
L 19.671875 64.59375 
L 19.671875 43.109375 
L 48.578125 43.109375 
L 48.578125 34.8125 
L 19.671875 34.8125 
L 19.671875 0 
L 9.8125 0 
z
" id="DejaVuSans-70"/>
      <path d="M 19.671875 64.796875 
L 19.671875 37.40625 
L 32.078125 37.40625 
Q 38.96875 37.40625 42.71875 40.96875 
Q 46.484375 44.53125 46.484375 51.125 
Q 46.484375 57.671875 42.71875 61.234375 
Q 38.96875 64.796875 32.078125 64.796875 
z
M 9.8125 72.90625 
L 32.078125 72.90625 
Q 44.34375 72.90625 50.609375 67.359375 
Q 56.890625 61.8125 56.890625 51.125 
Q 56.890625 40.328125 50.609375 34.8125 
Q 44.34375 29.296875 32.078125 29.296875 
L 19.671875 29.296875 
L 19.671875 0 
L 9.8125 0 
z
" id="DejaVuSans-80"/>
      <path d="M 9.8125 72.90625 
L 19.671875 72.90625 
L 19.671875 0 
L 9.8125 0 
z
" id="DejaVuSans-73"/>
     </defs>
     <g transform="translate(284.819531 412.756563)scale(0.1 -0.1)">
      <use xlink:href="#DejaVuSans-70"/>
      <use x="57.519531" xlink:href="#DejaVuSans-80"/>
      <use x="117.822266" xlink:href="#DejaVuSans-80"/>
      <use x="178.125" xlink:href="#DejaVuSans-73"/>
     </g>
    </g>
   </g>
   <g id="matplotlib.axis_2">
    <g id="ytick_1">
     <g id="line2d_41">
      <defs>
       <path d="M 0 0 
L -3.5 0 
" id="mbf65158798" style="stroke:#000000;stroke-width:0.8;"/>
      </defs>
      <g>
       <use style="stroke:#000000;stroke-width:0.8;" x="72" xlink:href="#mbf65158798" y="384.48"/>
      </g>
     </g>
    </g>
    <g id="ytick_2">
     <g id="line2d_42">
      <g>
       <use style="stroke:#000000;stroke-width:0.8;" x="72" xlink:href="#mbf65158798" y="51.84"/>
      </g>
     </g>
    </g>
    <g id="ytick_3">
     <g id="line2d_43">
      <path clip-path="url(#p3449026f84)" d="M 72 284.345382 
L 518.4 284.345382 
" style="fill:none;stroke:#b0b0b0;stroke-linecap:square;stroke-width:0.8;"/>
     </g>
     <g id="line2d_44">
      <defs>
       <path d="M 0 0 
L -2 0 
" id="m8c5e633777" style="stroke:#000000;stroke-width:0.6;"/>
      </defs>
      <g>
       <use style="stroke:#000000;stroke-width:0.6;" x="72" xlink:href="#m8c5e633777" y="284.345382"/>
      </g>
     </g>
     <g id="text_6">
      <!-- 0.20 -->
      <defs>
       <path d="M 10.6875 12.40625 
L 21 12.40625 
L 21 0 
L 10.6875 0 
z
" id="DejaVuSans-46"/>
      </defs>
      <g transform="translate(44.334375 288.144601)scale(0.1 -0.1)">
       <use xlink:href="#DejaVuSans-48"/>
       <use x="63.623047" xlink:href="#DejaVuSans-46"/>
       <use x="95.410156" xlink:href="#DejaVuSans-50"/>
       <use x="159.033203" xlink:href="#DejaVuSans-48"/>
      </g>
     </g>
    </g>
    <g id="ytick_4">
     <g id="line2d_45">
      <path clip-path="url(#p3449026f84)" d="M 72 225.770386 
L 518.4 225.770386 
" style="fill:none;stroke:#b0b0b0;stroke-linecap:square;stroke-width:0.8;"/>
     </g>
     <g id="line2d_46">
      <g>
       <use style="stroke:#000000;stroke-width:0.6;" x="72" xlink:href="#m8c5e633777" y="225.770386"/>
      </g>
     </g>
     <g id="text_7">
      <!-- 0.30 -->
      <defs>
       <path d="M 40.578125 39.3125 
Q 47.65625 37.796875 51.625 33 
Q 55.609375 28.21875 55.609375 21.1875 
Q 55.609375 10.40625 48.1875 4.484375 
Q 40.765625 -1.421875 27.09375 -1.421875 
Q 22.515625 -1.421875 17.65625 -0.515625 
Q 12.796875 0.390625 7.625 2.203125 
L 7.625 11.71875 
Q 11.71875 9.328125 16.59375 8.109375 
Q 21.484375 6.890625 26.8125 6.890625 
Q 36.078125 6.890625 40.9375 10.546875 
Q 45.796875 14.203125 45.796875 21.1875 
Q 45.796875 27.640625 41.28125 31.265625 
Q 36.765625 34.90625 28.71875 34.90625 
L 20.21875 34.90625 
L 20.21875 43.015625 
L 29.109375 43.015625 
Q 36.375 43.015625 40.234375 45.921875 
Q 44.09375 48.828125 44.09375 54.296875 
Q 44.09375 59.90625 40.109375 62.90625 
Q 36.140625 65.921875 28.71875 65.921875 
Q 24.65625 65.921875 20.015625 65.03125 
Q 15.375 64.15625 9.8125 62.3125 
L 9.8125 71.09375 
Q 15.4375 72.65625 20.34375 73.4375 
Q 25.25 74.21875 29.59375 74.21875 
Q 40.828125 74.21875 47.359375 69.109375 
Q 53.90625 64.015625 53.90625 55.328125 
Q 53.90625 49.265625 50.4375 45.09375 
Q 46.96875 40.921875 40.578125 39.3125 
z
" id="DejaVuSans-51"/>
      </defs>
      <g transform="translate(44.334375 229.569605)scale(0.1 -0.1)">
       <use xlink:href="#DejaVuSans-48"/>
       <use x="63.623047" xlink:href="#DejaVuSans-46"/>
       <use x="95.410156" xlink:href="#DejaVuSans-51"/>
       <use x="159.033203" xlink:href="#DejaVuSans-48"/>
      </g>
     </g>
    </g>
    <g id="ytick_5">
     <g id="line2d_47">
      <path clip-path="url(#p3449026f84)" d="M 72 184.210764 
L 518.4 184.210764 
" style="fill:none;stroke:#b0b0b0;stroke-linecap:square;stroke-width:0.8;"/>
     </g>
     <g id="line2d_48">
      <g>
       <use style="stroke:#000000;stroke-width:0.6;" x="72" xlink:href="#m8c5e633777" y="184.210764"/>
      </g>
     </g>
     <g id="text_8">
      <!-- 0.40 -->
      <defs>
       <path d="M 37.796875 64.3125 
L 12.890625 25.390625 
L 37.796875 25.390625 
z
M 35.203125 72.90625 
L 47.609375 72.90625 
L 47.609375 25.390625 
L 58.015625 25.390625 
L 58.015625 17.1875 
L 47.609375 17.1875 
L 47.609375 0 
L 37.796875 0 
L 37.796875 17.1875 
L 4.890625 17.1875 
L 4.890625 26.703125 
z
" id="DejaVuSans-52"/>
      </defs>
      <g transform="translate(44.334375 188.009983)scale(0.1 -0.1)">
       <use xlink:href="#DejaVuSans-48"/>
       <use x="63.623047" xlink:href="#DejaVuSans-46"/>
       <use x="95.410156" xlink:href="#DejaVuSans-52"/>
       <use x="159.033203" xlink:href="#DejaVuSans-48"/>
      </g>
     </g>
    </g>
    <g id="ytick_6">
     <g id="line2d_49">
      <path clip-path="url(#p3449026f84)" d="M 72 151.974618 
L 518.4 151.974618 
" style="fill:none;stroke:#b0b0b0;stroke-linecap:square;stroke-width:0.8;"/>
     </g>
     <g id="line2d_50">
      <g>
       <use style="stroke:#000000;stroke-width:0.6;" x="72" xlink:href="#m8c5e633777" y="151.974618"/>
      </g>
     </g>
     <g id="text_9">
      <!-- 0.50 -->
      <defs>
       <path d="M 10.796875 72.90625 
L 49.515625 72.90625 
L 49.515625 64.59375 
L 19.828125 64.59375 
L 19.828125 46.734375 
Q 21.96875 47.46875 24.109375 47.828125 
Q 26.265625 48.1875 28.421875 48.1875 
Q 40.625 48.1875 47.75 41.5 
Q 54.890625 34.8125 54.890625 23.390625 
Q 54.890625 11.625 47.5625 5.09375 
Q 40.234375 -1.421875 26.90625 -1.421875 
Q 22.3125 -1.421875 17.546875 -0.640625 
Q 12.796875 0.140625 7.71875 1.703125 
L 7.71875 11.625 
Q 12.109375 9.234375 16.796875 8.0625 
Q 21.484375 6.890625 26.703125 6.890625 
Q 35.15625 6.890625 40.078125 11.328125 
Q 45.015625 15.765625 45.015625 23.390625 
Q 45.015625 31 40.078125 35.4375 
Q 35.15625 39.890625 26.703125 39.890625 
Q 22.75 39.890625 18.8125 39.015625 
Q 14.890625 38.140625 10.796875 36.28125 
z
" id="DejaVuSans-53"/>
      </defs>
      <g transform="translate(44.334375 155.773837)scale(0.1 -0.1)">
       <use xlink:href="#DejaVuSans-48"/>
       <use x="63.623047" xlink:href="#DejaVuSans-46"/>
       <use x="95.410156" xlink:href="#DejaVuSans-53"/>
       <use x="159.033203" xlink:href="#DejaVuSans-48"/>
      </g>
     </g>
    </g>
    <g id="ytick_7">
     <g id="line2d_51">
      <path clip-path="url(#p3449026f84)" d="M 72 116.312293 
L 518.4 116.312293 
" style="fill:none;stroke:#b0b0b0;stroke-linecap:square;stroke-width:0.8;"/>
     </g>
     <g id="line2d_52">
      <g>
       <use style="stroke:#000000;stroke-width:0.6;" x="72" xlink:href="#m8c5e633777" y="116.312293"/>
      </g>
     </g>
     <g id="text_10">
      <!-- 0.64 -->
      <defs>
       <path d="M 33.015625 40.375 
Q 26.375 40.375 22.484375 35.828125 
Q 18.609375 31.296875 18.609375 23.390625 
Q 18.609375 15.53125 22.484375 10.953125 
Q 26.375 6.390625 33.015625 6.390625 
Q 39.65625 6.390625 43.53125 10.953125 
Q 47.40625 15.53125 47.40625 23.390625 
Q 47.40625 31.296875 43.53125 35.828125 
Q 39.65625 40.375 33.015625 40.375 
z
M 52.59375 71.296875 
L 52.59375 62.3125 
Q 48.875 64.0625 45.09375 64.984375 
Q 41.3125 65.921875 37.59375 65.921875 
Q 27.828125 65.921875 22.671875 59.328125 
Q 17.53125 52.734375 16.796875 39.40625 
Q 19.671875 43.65625 24.015625 45.921875 
Q 28.375 48.1875 33.59375 48.1875 
Q 44.578125 48.1875 50.953125 41.515625 
Q 57.328125 34.859375 57.328125 23.390625 
Q 57.328125 12.15625 50.6875 5.359375 
Q 44.046875 -1.421875 33.015625 -1.421875 
Q 20.359375 -1.421875 13.671875 8.265625 
Q 6.984375 17.96875 6.984375 36.375 
Q 6.984375 53.65625 15.1875 63.9375 
Q 23.390625 74.21875 37.203125 74.21875 
Q 40.921875 74.21875 44.703125 73.484375 
Q 48.484375 72.75 52.59375 71.296875 
z
" id="DejaVuSans-54"/>
      </defs>
      <g transform="translate(44.334375 120.111512)scale(0.1 -0.1)">
       <use xlink:href="#DejaVuSans-48"/>
       <use x="63.623047" xlink:href="#DejaVuSans-46"/>
       <use x="95.410156" xlink:href="#DejaVuSans-54"/>
       <use x="159.033203" xlink:href="#DejaVuSans-52"/>
      </g>
     </g>
    </g>
    <g id="ytick_8">
     <g id="line2d_53">
      <path clip-path="url(#p3449026f84)" d="M 72 84.076147 
L 518.4 84.076147 
" style="fill:none;stroke:#b0b0b0;stroke-linecap:square;stroke-width:0.8;"/>
     </g>
     <g id="line2d_54">
      <g>
       <use style="stroke:#000000;stroke-width:0.6;" x="72" xlink:href="#m8c5e633777" y="84.076147"/>
      </g>
     </g>
     <g id="text_11">
      <!-- 0.80 -->
      <defs>
       <path d="M 31.78125 34.625 
Q 24.75 34.625 20.71875 30.859375 
Q 16.703125 27.09375 16.703125 20.515625 
Q 16.703125 13.921875 20.71875 10.15625 
Q 24.75 6.390625 31.78125 6.390625 
Q 38.8125 6.390625 42.859375 10.171875 
Q 46.921875 13.96875 46.921875 20.515625 
Q 46.921875 27.09375 42.890625 30.859375 
Q 38.875 34.625 31.78125 34.625 
z
M 21.921875 38.8125 
Q 15.578125 40.375 12.03125 44.71875 
Q 8.5 49.078125 8.5 55.328125 
Q 8.5 64.0625 14.71875 69.140625 
Q 20.953125 74.21875 31.78125 74.21875 
Q 42.671875 74.21875 48.875 69.140625 
Q 55.078125 64.0625 55.078125 55.328125 
Q 55.078125 49.078125 51.53125 44.71875 
Q 48 40.375 41.703125 38.8125 
Q 48.828125 37.15625 52.796875 32.3125 
Q 56.78125 27.484375 56.78125 20.515625 
Q 56.78125 9.90625 50.3125 4.234375 
Q 43.84375 -1.421875 31.78125 -1.421875 
Q 19.734375 -1.421875 13.25 4.234375 
Q 6.78125 9.90625 6.78125 20.515625 
Q 6.78125 27.484375 10.78125 32.3125 
Q 14.796875 37.15625 21.921875 38.8125 
z
M 18.3125 54.390625 
Q 18.3125 48.734375 21.84375 45.5625 
Q 25.390625 42.390625 31.78125 42.390625 
Q 38.140625 42.390625 41.71875 45.5625 
Q 45.3125 48.734375 45.3125 54.390625 
Q 45.3125 60.0625 41.71875 63.234375 
Q 38.140625 66.40625 31.78125 66.40625 
Q 25.390625 66.40625 21.84375 63.234375 
Q 18.3125 60.0625 18.3125 54.390625 
z
" id="DejaVuSans-56"/>
      </defs>
      <g transform="translate(44.334375 87.875365)scale(0.1 -0.1)">
       <use xlink:href="#DejaVuSans-48"/>
       <use x="63.623047" xlink:href="#DejaVuSans-46"/>
       <use x="95.410156" xlink:href="#DejaVuSans-56"/>
       <use x="159.033203" xlink:href="#DejaVuSans-48"/>
      </g>
     </g>
    </g>
    <g id="text_12">
     <!-- Miss rate -->
     <defs>
      <path d="M 9.8125 72.90625 
L 24.515625 72.90625 
L 43.109375 23.296875 
L 61.8125 72.90625 
L 76.515625 72.90625 
L 76.515625 0 
L 66.890625 0 
L 66.890625 64.015625 
L 48.09375 14.015625 
L 38.1875 14.015625 
L 19.390625 64.015625 
L 19.390625 0 
L 9.8125 0 
z
" id="DejaVuSans-77"/>
      <path d="M 9.421875 54.6875 
L 18.40625 54.6875 
L 18.40625 0 
L 9.421875 0 
z
M 9.421875 75.984375 
L 18.40625 75.984375 
L 18.40625 64.59375 
L 9.421875 64.59375 
z
" id="DejaVuSans-105"/>
      <path d="M 44.28125 53.078125 
L 44.28125 44.578125 
Q 40.484375 46.53125 36.375 47.5 
Q 32.28125 48.484375 27.875 48.484375 
Q 21.1875 48.484375 17.84375 46.4375 
Q 14.5 44.390625 14.5 40.28125 
Q 14.5 37.15625 16.890625 35.375 
Q 19.28125 33.59375 26.515625 31.984375 
L 29.59375 31.296875 
Q 39.15625 29.25 43.1875 25.515625 
Q 47.21875 21.78125 47.21875 15.09375 
Q 47.21875 7.46875 41.1875 3.015625 
Q 35.15625 -1.421875 24.609375 -1.421875 
Q 20.21875 -1.421875 15.453125 -0.5625 
Q 10.6875 0.296875 5.421875 2 
L 5.421875 11.28125 
Q 10.40625 8.6875 15.234375 7.390625 
Q 20.0625 6.109375 24.8125 6.109375 
Q 31.15625 6.109375 34.5625 8.28125 
Q 37.984375 10.453125 37.984375 14.40625 
Q 37.984375 18.0625 35.515625 20.015625 
Q 33.0625 21.96875 24.703125 23.78125 
L 21.578125 24.515625 
Q 13.234375 26.265625 9.515625 29.90625 
Q 5.8125 33.546875 5.8125 39.890625 
Q 5.8125 47.609375 11.28125 51.796875 
Q 16.75 56 26.8125 56 
Q 31.78125 56 36.171875 55.265625 
Q 40.578125 54.546875 44.28125 53.078125 
z
" id="DejaVuSans-115"/>
      <path id="DejaVuSans-32"/>
      <path d="M 41.109375 46.296875 
Q 39.59375 47.171875 37.8125 47.578125 
Q 36.03125 48 33.890625 48 
Q 26.265625 48 22.1875 43.046875 
Q 18.109375 38.09375 18.109375 28.8125 
L 18.109375 0 
L 9.078125 0 
L 9.078125 54.6875 
L 18.109375 54.6875 
L 18.109375 46.1875 
Q 20.953125 51.171875 25.484375 53.578125 
Q 30.03125 56 36.53125 56 
Q 37.453125 56 38.578125 55.875 
Q 39.703125 55.765625 41.0625 55.515625 
z
" id="DejaVuSans-114"/>
      <path d="M 34.28125 27.484375 
Q 23.390625 27.484375 19.1875 25 
Q 14.984375 22.515625 14.984375 16.5 
Q 14.984375 11.71875 18.140625 8.90625 
Q 21.296875 6.109375 26.703125 6.109375 
Q 34.1875 6.109375 38.703125 11.40625 
Q 43.21875 16.703125 43.21875 25.484375 
L 43.21875 27.484375 
z
M 52.203125 31.203125 
L 52.203125 0 
L 43.21875 0 
L 43.21875 8.296875 
Q 40.140625 3.328125 35.546875 0.953125 
Q 30.953125 -1.421875 24.3125 -1.421875 
Q 15.921875 -1.421875 10.953125 3.296875 
Q 6 8.015625 6 15.921875 
Q 6 25.140625 12.171875 29.828125 
Q 18.359375 34.515625 30.609375 34.515625 
L 43.21875 34.515625 
L 43.21875 35.40625 
Q 43.21875 41.609375 39.140625 45 
Q 35.0625 48.390625 27.6875 48.390625 
Q 23 48.390625 18.546875 47.265625 
Q 14.109375 46.140625 10.015625 43.890625 
L 10.015625 52.203125 
Q 14.9375 54.109375 19.578125 55.046875 
Q 24.21875 56 28.609375 56 
Q 40.484375 56 46.34375 49.84375 
Q 52.203125 43.703125 52.203125 31.203125 
z
" id="DejaVuSans-97"/>
      <path d="M 18.3125 70.21875 
L 18.3125 54.6875 
L 36.8125 54.6875 
L 36.8125 47.703125 
L 18.3125 47.703125 
L 18.3125 18.015625 
Q 18.3125 11.328125 20.140625 9.421875 
Q 21.96875 7.515625 27.59375 7.515625 
L 36.8125 7.515625 
L 36.8125 0 
L 27.59375 0 
Q 17.1875 0 13.234375 3.875 
Q 9.28125 7.765625 9.28125 18.015625 
L 9.28125 47.703125 
L 2.6875 47.703125 
L 2.6875 54.6875 
L 9.28125 54.6875 
L 9.28125 70.21875 
z
" id="DejaVuSans-116"/>
      <path d="M 56.203125 29.59375 
L 56.203125 25.203125 
L 14.890625 25.203125 
Q 15.484375 15.921875 20.484375 11.0625 
Q 25.484375 6.203125 34.421875 6.203125 
Q 39.59375 6.203125 44.453125 7.46875 
Q 49.3125 8.734375 54.109375 11.28125 
L 54.109375 2.78125 
Q 49.265625 0.734375 44.1875 -0.34375 
Q 39.109375 -1.421875 33.890625 -1.421875 
Q 20.796875 -1.421875 13.15625 6.1875 
Q 5.515625 13.8125 5.515625 26.8125 
Q 5.515625 40.234375 12.765625 48.109375 
Q 20.015625 56 32.328125 56 
Q 43.359375 56 49.78125 48.890625 
Q 56.203125 41.796875 56.203125 29.59375 
z
M 47.21875 32.234375 
Q 47.125 39.59375 43.09375 43.984375 
Q 39.0625 48.390625 32.421875 48.390625 
Q 24.90625 48.390625 20.390625 44.140625 
Q 15.875 39.890625 15.1875 32.171875 
z
" id="DejaVuSans-101"/>
     </defs>
     <g transform="translate(38.254687 240.817812)rotate(-90)scale(0.1 -0.1)">
      <use xlink:href="#DejaVuSans-77"/>
      <use x="86.279297" xlink:href="#DejaVuSans-105"/>
      <use x="114.0625" xlink:href="#DejaVuSans-115"/>
      <use x="166.162109" xlink:href="#DejaVuSans-115"/>
      <use x="218.261719" xlink:href="#DejaVuSans-32"/>
      <use x="250.048828" xlink:href="#DejaVuSans-114"/>
      <use x="291.162109" xlink:href="#DejaVuSans-97"/>
      <use x="352.441406" xlink:href="#DejaVuSans-116"/>
      <use x="391.650391" xlink:href="#DejaVuSans-101"/>
     </g>
    </g>
   </g>
   <g id="line2d_55">
    <path clip-path="url(#p3449026f84)" d="M -1 59.539711 
L 88.91744 59.539711 
L 88.91744 63.956269 
L 123.277838 63.956269 
L 123.277838 67.673025 
L 143.377383 67.673025 
L 143.377383 67.812536 
L 157.638236 67.812536 
L 157.638236 68.091963 
L 168.699814 68.091963 
L 168.699814 77.480715 
L 177.737781 77.480715 
L 177.737781 77.779503 
L 185.379273 77.779503 
L 185.379273 83.888815 
L 191.998635 83.888815 
L 191.998635 90.594412 
L 197.837325 90.594412 
L 197.837325 91.413835 
L 203.060212 91.413835 
L 203.060212 94.570729 
L 207.784888 94.570729 
L 207.784888 97.45501 
L 212.098179 97.45501 
L 212.098179 100.223261 
L 216.066022 100.223261 
L 216.066022 101.275186 
L 219.739671 101.275186 
L 219.739671 101.980749 
L 223.159756 101.980749 
L 223.159756 108.121381 
L 226.359033 108.121381 
L 226.359033 108.306 
L 229.364291 108.306 
L 229.364291 108.861274 
L 232.197723 108.861274 
L 232.197723 109.418691 
L 237.42061 109.418691 
L 237.42061 109.604976 
L 239.839215 109.604976 
L 239.839215 110.727756 
L 242.145286 110.727756 
L 242.145286 112.809129 
L 246.458577 112.809129 
L 246.458577 113.190804 
L 248.482187 113.190804 
L 248.482187 115.308231 
L 250.42642 115.308231 
L 250.42642 115.696575 
L 254.100069 115.696575 
L 254.100069 116.085965 
L 255.839601 116.085965 
L 255.839601 118.642912 
L 259.145598 118.642912 
L 259.145598 120.239212 
L 260.719431 120.239212 
L 260.719431 120.439996 
L 262.24483 120.439996 
L 262.24483 122.05639 
L 263.724689 122.05639 
L 263.724689 123.075898 
L 266.558121 123.075898 
L 266.558121 123.485725 
L 267.916332 123.485725 
L 267.916332 124.308882 
L 270.525964 124.308882 
L 270.525964 125.136756 
L 271.781008 125.136756 
L 271.781008 125.969403 
L 274.199613 125.969403 
L 274.199613 126.178316 
L 277.619699 126.178316 
L 277.619699 126.806876 
L 278.709228 126.806876 
L 278.709228 127.649232 
L 279.775324 127.649232 
L 279.775324 128.922049 
L 280.818975 128.922049 
L 280.818975 129.776866 
L 281.841105 129.776866 
L 281.841105 131.718902 
L 282.842585 131.718902 
L 282.842585 131.936304 
L 284.786818 131.936304 
L 284.786818 132.154034 
L 285.731067 132.154034 
L 285.731067 132.809199 
L 286.657666 132.809199 
L 286.657666 133.02825 
L 288.460467 133.02825 
L 288.460467 133.247633 
L 289.337863 133.247633 
L 289.337863 133.907788 
L 290.199999 133.907788 
L 290.199999 134.349573 
L 291.047397 134.349573 
L 291.047397 134.792714 
L 291.880552 134.792714 
L 291.880552 135.014795 
L 293.505996 135.014795 
L 293.505996 135.459984 
L 294.299158 135.459984 
L 294.299158 135.683094 
L 295.079829 135.683094 
L 295.079829 136.803842 
L 296.605228 136.803842 
L 296.605228 137.480488 
L 298.808772 137.480488 
L 298.808772 138.843364 
L 299.522044 138.843364 
L 299.522044 141.608304 
L 300.225199 141.608304 
L 300.225199 142.074316 
L 300.918519 142.074316 
L 300.918519 142.307888 
L 301.602276 142.307888 
L 301.602276 143.010875 
L 303.598717 143.010875 
L 303.598717 143.245967 
L 306.141406 143.245967 
L 306.141406 143.481442 
L 307.365458 143.481442 
L 307.365458 143.717301 
L 307.966333 143.717301 
L 307.966333 144.902408 
L 308.560011 144.902408 
L 308.560011 147.302192 
L 310.299543 147.302192 
L 310.299543 147.544378 
L 310.866082 147.544378 
L 310.866082 148.029971 
L 311.426219 148.029971 
L 311.426219 148.517201 
L 313.069626 148.517201 
L 313.069626 150.482724 
L 313.60554 150.482724 
L 313.60554 150.730306 
L 314.660294 150.730306 
L 314.660294 150.978312 
L 315.179373 150.978312 
L 315.179373 151.475606 
L 315.693073 151.475606 
L 315.693073 151.974618 
L 316.201503 151.974618 
L 316.201503 152.224771 
L 317.202983 152.224771 
L 317.202983 152.475359 
L 317.696237 152.475359 
L 317.696237 153.988082 
L 320.091465 153.988082 
L 320.091465 154.750425 
L 321.018064 154.750425 
L 321.018064 156.80323 
L 321.474948 156.80323 
L 321.474948 157.061894 
L 322.820865 157.061894 
L 322.820865 157.580615 
L 324.985907 157.580615 
L 324.985907 157.840676 
L 325.407795 157.840676 
L 325.407795 158.623679 
L 325.826123 158.623679 
L 325.826123 158.885626 
L 326.24095 158.885626 
L 326.24095 159.674329 
L 327.060334 159.674329 
L 327.060334 159.93819 
L 327.465002 159.93819 
L 327.465002 160.998479 
L 328.659556 160.998479 
L 328.659556 161.264771 
L 329.051428 161.264771 
L 329.051428 161.798834 
L 330.208794 161.798834 
L 330.208794 162.603648 
L 331.339753 162.603648 
L 331.339753 163.142692 
L 332.079641 163.142692 
L 332.079641 163.683755 
L 332.445485 163.683755 
L 332.445485 163.955049 
L 333.16917 163.955049 
L 333.16917 164.226852 
L 334.933469 164.226852 
L 334.933469 164.499169 
L 335.278917 164.499169 
L 335.278917 164.771999 
L 335.621974 164.771999 
L 335.621974 165.045346 
L 335.962674 165.045346 
L 335.962674 165.319211 
L 336.301048 165.319211 
L 336.301048 165.593596 
L 336.637128 165.593596 
L 336.637128 165.868503 
L 336.970944 165.868503 
L 336.970944 166.143935 
L 337.631908 166.143935 
L 337.631908 166.419892 
L 339.24676 166.419892 
L 339.24676 166.696378 
L 339.878254 166.696378 
L 339.878254 166.973394 
L 341.422665 166.973394 
L 341.422665 167.807643 
L 342.624459 167.807643 
L 342.624459 168.366497 
L 343.214604 168.366497 
L 343.214604 168.646737 
L 344.659941 168.646737 
L 344.659941 168.927522 
L 344.94402 168.927522 
L 344.94402 169.208854 
L 345.22648 169.208854 
L 345.22648 170.056151 
L 345.507339 170.056151 
L 345.507339 170.339691 
L 346.064329 170.339691 
L 346.064329 170.623789 
L 347.159878 170.623789 
L 347.159878 170.908446 
L 347.430024 170.908446 
L 347.430024 171.193666 
L 349.280911 171.193666 
L 349.280911 171.47945 
L 350.053471 171.47945 
L 350.053471 172.052719 
L 350.308338 172.052719 
L 350.308338 172.628273 
L 353.028658 172.628273 
L 353.028658 173.206128 
L 354.685142 173.206128 
L 354.685142 173.786305 
L 356.288057 173.786305 
L 356.288057 174.368821 
L 357.402072 174.368821 
L 357.402072 175.247022 
L 358.706663 175.247022 
L 358.706663 175.540946 
L 358.920795 175.540946 
L 358.920795 175.83547 
L 359.134006 175.83547 
L 359.134006 176.130595 
L 359.768193 176.130595 
L 359.768193 176.426324 
L 360.186521 176.426324 
L 360.186521 176.72266 
L 360.601348 176.72266 
L 360.601348 177.019605 
L 361.623479 177.019605 
L 361.623479 177.317162 
L 363.216277 177.317162 
L 363.216277 177.615333 
L 363.993886 177.615333 
L 363.993886 178.213527 
L 364.759486 178.213527 
L 364.759486 178.513556 
L 364.949052 178.513556 
L 364.949052 178.814209 
L 365.137897 178.814209 
L 365.137897 180.326932 
L 365.326024 180.326932 
L 365.326024 180.631386 
L 365.700151 180.631386 
L 365.700151 181.242228 
L 365.886161 181.242228 
L 365.886161 181.548619 
L 366.623298 181.548619 
L 366.623298 181.855662 
L 367.349635 181.855662 
L 367.349635 182.16336 
L 367.529568 182.16336 
L 367.529568 182.471713 
L 367.887487 182.471713 
L 367.887487 182.780727 
L 368.24284 182.780727 
L 368.24284 183.090403 
L 368.595665 183.090403 
L 368.595665 184.023433 
L 369.120236 184.023433 
L 369.120236 185.592001 
L 371.331342 185.592001 
L 371.331342 186.224229 
L 371.992306 186.224229 
L 371.992306 186.541383 
L 372.482309 186.541383 
L 372.482309 187.177788 
L 373.765788 187.177788 
L 373.765788 187.817009 
L 373.923911 187.817009 
L 373.923911 188.137683 
L 374.551407 188.137683 
L 374.551407 188.459071 
L 374.707048 188.459071 
L 374.707048 188.781175 
L 374.862202 188.781175 
L 374.862202 189.427547 
L 375.016872 189.427547 
L 375.016872 190.076823 
L 375.478006 190.076823 
L 375.478006 190.72903 
L 376.237157 190.72903 
L 376.237157 191.056242 
L 376.387602 191.056242 
L 376.387602 191.384196 
L 376.687129 191.384196 
L 376.687129 191.712896 
L 378.158203 191.712896 
L 378.158203 192.372549 
L 379.162582 192.372549 
L 379.162582 193.035227 
L 379.867737 193.035227 
L 379.867737 193.70096 
L 380.424727 193.70096 
L 380.424727 194.03498 
L 380.563002 194.03498 
L 380.563002 194.369775 
L 381.24865 194.369775 
L 381.24865 194.705347 
L 381.790422 194.705347 
L 381.790422 195.0417 
L 382.856518 195.0417 
L 382.856518 195.378839 
L 382.988183 195.378839 
L 382.988183 195.716766 
L 383.119498 195.716766 
L 383.119498 196.055485 
L 383.250467 196.055485 
L 383.250467 196.395 
L 383.770908 196.395 
L 383.770908 197.076434 
L 384.029094 197.076434 
L 384.029094 197.761098 
L 384.157684 197.761098 
L 384.157684 198.10465 
L 384.541466 198.10465 
L 384.541466 198.449021 
L 385.048597 198.449021 
L 385.048597 198.794216 
L 385.300229 198.794216 
L 385.300229 199.140237 
L 386.17102 199.140237 
L 386.17102 199.487088 
L 386.294179 199.487088 
L 386.294179 200.1833 
L 386.417033 200.1833 
L 386.417033 200.532669 
L 386.539583 200.532669 
L 386.539583 200.882884 
L 386.661831 200.882884 
L 386.661831 201.23395 
L 387.147831 201.23395 
L 387.147831 201.585872 
L 387.26859 201.585872 
L 387.26859 201.938653 
L 387.748706 201.938653 
L 387.748706 202.292297 
L 388.224217 202.292297 
L 388.224217 202.64681 
L 388.342385 202.64681 
L 388.342385 203.358455 
L 389.04554 203.358455 
L 389.04554 203.715597 
L 389.623978 203.715597 
L 389.623978 204.43254 
L 390.195744 204.43254 
L 390.195744 204.79235 
L 390.648455 204.79235 
L 390.648455 205.153058 
L 391.76247 205.153058 
L 391.872507 205.877189 
L 392.20116 205.877189 
L 392.20116 206.604967 
L 392.310228 206.604967 
L 392.419057 206.604967 
L 392.419057 208.071617 
L 392.527648 208.071617 
L 393.067061 208.071617 
L 393.174242 208.810563 
L 393.387913 208.810563 
L 393.387913 209.181459 
L 393.494404 209.181459 
L 394.023455 209.181459 
L 394.128591 209.926119 
L 394.233504 209.926119 
L 394.338196 210.674637 
L 394.858365 210.674637 
L 394.858365 211.050355 
L 394.961746 211.050355 
L 395.064913 211.050355 
L 395.064913 211.427054 
L 395.167865 211.427054 
L 395.270605 211.427054 
L 395.270605 211.804737 
L 395.373131 211.804737 
L 395.475446 211.804737 
L 395.475446 212.18341 
L 395.57755 212.18341 
L 395.78113 212.18341 
L 395.882607 212.943747 
L 397.380352 212.943747 
L 397.380352 213.325422 
L 397.478611 213.325422 
L 397.967004 213.325422 
L 397.967004 213.708107 
L 398.064108 213.708107 
L 398.257748 213.708107 
L 398.354284 214.862284 
L 398.546796 214.862284 
L 398.546796 215.249068 
L 398.642772 215.249068 
L 399.498295 215.249068 
L 399.498295 215.63689 
L 399.592448 215.63689 
L 400.060549 215.63689 
L 400.060549 216.025757 
L 400.153641 216.025757 
L 400.246559 216.025757 
L 400.246559 216.806643 
L 400.339303 216.806643 
L 401.166281 216.806643 
L 401.166281 217.198676 
L 401.257321 217.198676 
L 401.710033 217.198676 
L 401.710033 217.591774 
L 401.800081 217.591774 
L 403.043878 217.591774 
L 403.043878 217.985946 
L 403.131537 217.985946 
L 403.219042 217.985946 
L 403.219042 218.381195 
L 403.306393 218.381195 
L 403.480634 218.381195 
L 403.567526 219.174954 
L 404.68347 219.174954 
L 404.76828 219.973098 
L 405.190169 219.973098 
L 405.190169 220.37383 
L 405.274117 220.37383 
L 405.441589 220.37383 
L 405.441589 220.775677 
L 405.525113 220.775677 
L 406.352704 220.775677 
L 406.352704 221.178644 
L 406.434709 221.178644 
L 406.516577 221.178644 
L 406.598311 221.987967 
L 407.247376 221.987967 
L 407.247376 222.394335 
L 407.327914 222.394335 
L 407.888051 222.394335 
L 407.888051 222.801849 
L 407.967556 222.801849 
L 408.363182 222.801849 
L 408.441929 223.210516 
L 408.59905 223.210516 
L 408.59905 223.620342 
L 408.677424 223.620342 
L 409.067446 223.620342 
L 409.067446 224.031335 
L 409.145084 224.031335 
L 410.143461 224.031335 
L 410.143461 224.4435 
L 410.219433 224.4435 
L 411.047527 224.4435 
L 411.122127 224.856844 
L 411.493451 224.856844 
L 411.493451 225.271374 
L 411.567383 225.271374 
L 412.518601 225.271374 
L 412.518601 225.687097 
L 412.591021 225.687097 
L 413.238085 225.687097 
L 413.309463 226.941494 
L 413.876812 226.941494 
L 413.876812 227.362058 
L 413.947276 227.362058 
L 414.992393 227.362058 
L 414.992393 227.78385 
L 415.061291 227.78385 
L 415.26741 227.78385 
L 415.26741 228.206877 
L 415.335926 228.206877 
L 416.486444 228.206877 
L 416.486444 229.056666 
L 416.553298 229.056666 
L 416.952534 229.056666 
L 417.018762 229.911484 
L 417.282792 229.911484 
L 417.282792 230.340797 
L 417.348581 230.340797 
L 417.806671 230.340797 
L 417.806671 230.771389 
L 417.871768 230.771389 
L 418.838106 230.771389 
L 418.838106 231.203269 
L 418.901864 231.203269 
L 419.029134 231.203269 
L 419.029134 231.636444 
L 419.092646 231.636444 
L 419.973383 231.636444 
L 419.973383 232.070922 
L 420.035698 232.070922 
L 421.98951 232.070922 
L 421.98951 232.50671 
L 422.049343 232.50671 
L 422.406832 232.50671 
L 422.406832 232.943817 
L 422.466164 232.943817 
L 422.702783 232.943817 
L 422.702783 233.38225 
L 422.761762 233.38225 
L 422.879509 233.38225 
L 422.879509 233.822019 
L 422.938278 233.822019 
L 423.811552 233.822019 
L 423.869227 234.263129 
L 423.984376 234.263129 
L 423.984376 234.705591 
L 424.04185 234.705591 
L 424.556142 234.705591 
L 424.556142 235.149413 
L 424.612957 235.149413 
L 426.012587 235.149413 
L 426.012587 236.041167 
L 426.122868 236.041167 
L 426.561558 236.041167 
L 426.561558 236.489117 
L 426.670626 236.489117 
L 426.779455 236.489117 
L 426.779455 236.93846 
L 426.888046 236.93846 
L 427.26625 236.93846 
L 427.26625 236.93846 
" style="fill:none;stroke:#1919ff;stroke-linecap:square;stroke-width:2;"/>
   </g>
   <g id="patch_3">
    <path d="M 72 384.48 
L 72 51.84 
" style="fill:none;stroke:#000000;stroke-linecap:square;stroke-linejoin:miter;stroke-width:0.8;"/>
   </g>
   <g id="patch_4">
    <path d="M 518.4 384.48 
L 518.4 51.84 
" style="fill:none;stroke:#000000;stroke-linecap:square;stroke-linejoin:miter;stroke-width:0.8;"/>
   </g>
   <g id="patch_5">
    <path d="M 72 384.48 
L 518.4 384.48 
" style="fill:none;stroke:#000000;stroke-linecap:square;stroke-linejoin:miter;stroke-width:0.8;"/>
   </g>
   <g id="patch_6">
    <path d="M 72 51.84 
L 518.4 51.84 
" style="fill:none;stroke:#000000;stroke-linecap:square;stroke-linejoin:miter;stroke-width:0.8;"/>
   </g>
   <g id="legend_1">
    <g id="patch_7">
     <path d="M 79 379.48 
L 191.95 379.48 
Q 193.95 379.48 193.95 377.48 
L 193.95 363.801875 
Q 193.95 361.801875 191.95 361.801875 
L 79 361.801875 
Q 77 361.801875 77 363.801875 
L 77 377.48 
Q 77 379.48 79 379.48 
z
" style="fill:#ffffff;opacity:0.8;stroke:#cccccc;stroke-linejoin:miter;"/>
    </g>
    <g id="line2d_56">
     <path d="M 81 369.900312 
L 101 369.900312 
" style="fill:none;stroke:#1919ff;stroke-linecap:square;stroke-width:2;"/>
    </g>
    <g id="line2d_57"/>
    <g id="text_13">
     <!-- 53.95%  current -->
     <defs>
      <path d="M 10.984375 1.515625 
L 10.984375 10.5 
Q 14.703125 8.734375 18.5 7.8125 
Q 22.3125 6.890625 25.984375 6.890625 
Q 35.75 6.890625 40.890625 13.453125 
Q 46.046875 20.015625 46.78125 33.40625 
Q 43.953125 29.203125 39.59375 26.953125 
Q 35.25 24.703125 29.984375 24.703125 
Q 19.046875 24.703125 12.671875 31.3125 
Q 6.296875 37.9375 6.296875 49.421875 
Q 6.296875 60.640625 12.9375 67.421875 
Q 19.578125 74.21875 30.609375 74.21875 
Q 43.265625 74.21875 49.921875 64.515625 
Q 56.59375 54.828125 56.59375 36.375 
Q 56.59375 19.140625 48.40625 8.859375 
Q 40.234375 -1.421875 26.421875 -1.421875 
Q 22.703125 -1.421875 18.890625 -0.6875 
Q 15.09375 0.046875 10.984375 1.515625 
z
M 30.609375 32.421875 
Q 37.25 32.421875 41.125 36.953125 
Q 45.015625 41.5 45.015625 49.421875 
Q 45.015625 57.28125 41.125 61.84375 
Q 37.25 66.40625 30.609375 66.40625 
Q 23.96875 66.40625 20.09375 61.84375 
Q 16.21875 57.28125 16.21875 49.421875 
Q 16.21875 41.5 20.09375 36.953125 
Q 23.96875 32.421875 30.609375 32.421875 
z
" id="DejaVuSans-57"/>
      <path d="M 72.703125 32.078125 
Q 68.453125 32.078125 66.03125 28.46875 
Q 63.625 24.859375 63.625 18.40625 
Q 63.625 12.0625 66.03125 8.421875 
Q 68.453125 4.78125 72.703125 4.78125 
Q 76.859375 4.78125 79.265625 8.421875 
Q 81.6875 12.0625 81.6875 18.40625 
Q 81.6875 24.8125 79.265625 28.4375 
Q 76.859375 32.078125 72.703125 32.078125 
z
M 72.703125 38.28125 
Q 80.421875 38.28125 84.953125 32.90625 
Q 89.5 27.546875 89.5 18.40625 
Q 89.5 9.28125 84.9375 3.921875 
Q 80.375 -1.421875 72.703125 -1.421875 
Q 64.890625 -1.421875 60.34375 3.921875 
Q 55.8125 9.28125 55.8125 18.40625 
Q 55.8125 27.59375 60.375 32.9375 
Q 64.9375 38.28125 72.703125 38.28125 
z
M 22.3125 68.015625 
Q 18.109375 68.015625 15.6875 64.375 
Q 13.28125 60.75 13.28125 54.390625 
Q 13.28125 47.953125 15.671875 44.328125 
Q 18.0625 40.71875 22.3125 40.71875 
Q 26.5625 40.71875 28.96875 44.328125 
Q 31.390625 47.953125 31.390625 54.390625 
Q 31.390625 60.6875 28.953125 64.34375 
Q 26.515625 68.015625 22.3125 68.015625 
z
M 66.40625 74.21875 
L 74.21875 74.21875 
L 28.609375 -1.421875 
L 20.796875 -1.421875 
z
M 22.3125 74.21875 
Q 30.03125 74.21875 34.609375 68.875 
Q 39.203125 63.53125 39.203125 54.390625 
Q 39.203125 45.171875 34.640625 39.84375 
Q 30.078125 34.515625 22.3125 34.515625 
Q 14.546875 34.515625 10.03125 39.859375 
Q 5.515625 45.21875 5.515625 54.390625 
Q 5.515625 63.484375 10.046875 68.84375 
Q 14.59375 74.21875 22.3125 74.21875 
z
" id="DejaVuSans-37"/>
      <path d="M 48.78125 52.59375 
L 48.78125 44.1875 
Q 44.96875 46.296875 41.140625 47.34375 
Q 37.3125 48.390625 33.40625 48.390625 
Q 24.65625 48.390625 19.8125 42.84375 
Q 14.984375 37.3125 14.984375 27.296875 
Q 14.984375 17.28125 19.8125 11.734375 
Q 24.65625 6.203125 33.40625 6.203125 
Q 37.3125 6.203125 41.140625 7.25 
Q 44.96875 8.296875 48.78125 10.40625 
L 48.78125 2.09375 
Q 45.015625 0.34375 40.984375 -0.53125 
Q 36.96875 -1.421875 32.421875 -1.421875 
Q 20.0625 -1.421875 12.78125 6.34375 
Q 5.515625 14.109375 5.515625 27.296875 
Q 5.515625 40.671875 12.859375 48.328125 
Q 20.21875 56 33.015625 56 
Q 37.15625 56 41.109375 55.140625 
Q 45.0625 54.296875 48.78125 52.59375 
z
" id="DejaVuSans-99"/>
      <path d="M 8.5 21.578125 
L 8.5 54.6875 
L 17.484375 54.6875 
L 17.484375 21.921875 
Q 17.484375 14.15625 20.5 10.265625 
Q 23.53125 6.390625 29.59375 6.390625 
Q 36.859375 6.390625 41.078125 11.03125 
Q 45.3125 15.671875 45.3125 23.6875 
L 45.3125 54.6875 
L 54.296875 54.6875 
L 54.296875 0 
L 45.3125 0 
L 45.3125 8.40625 
Q 42.046875 3.421875 37.71875 1 
Q 33.40625 -1.421875 27.6875 -1.421875 
Q 18.265625 -1.421875 13.375 4.4375 
Q 8.5 10.296875 8.5 21.578125 
z
M 31.109375 56 
z
" id="DejaVuSans-117"/>
      <path d="M 54.890625 33.015625 
L 54.890625 0 
L 45.90625 0 
L 45.90625 32.71875 
Q 45.90625 40.484375 42.875 44.328125 
Q 39.84375 48.1875 33.796875 48.1875 
Q 26.515625 48.1875 22.3125 43.546875 
Q 18.109375 38.921875 18.109375 30.90625 
L 18.109375 0 
L 9.078125 0 
L 9.078125 54.6875 
L 18.109375 54.6875 
L 18.109375 46.1875 
Q 21.34375 51.125 25.703125 53.5625 
Q 30.078125 56 35.796875 56 
Q 45.21875 56 50.046875 50.171875 
Q 54.890625 44.34375 54.890625 33.015625 
z
" id="DejaVuSans-110"/>
     </defs>
     <g transform="translate(109 373.400312)scale(0.1 -0.1)">
      <use xlink:href="#DejaVuSans-53"/>
      <use x="63.623047" xlink:href="#DejaVuSans-51"/>
      <use x="127.246094" xlink:href="#DejaVuSans-46"/>
      <use x="159.033203" xlink:href="#DejaVuSans-57"/>
      <use x="222.65625" xlink:href="#DejaVuSans-53"/>
      <use x="286.279297" xlink:href="#DejaVuSans-37"/>
      <use x="381.298828" xlink:href="#DejaVuSans-32"/>
      <use x="413.085938" xlink:href="#DejaVuSans-32"/>
      <use x="444.873047" xlink:href="#DejaVuSans-99"/>
      <use x="499.853516" xlink:href="#DejaVuSans-117"/>
      <use x="563.232422" xlink:href="#DejaVuSans-114"/>
      <use x="604.330078" xlink:href="#DejaVuSans-114"/>
      <use x="645.412109" xlink:href="#DejaVuSans-101"/>
      <use x="706.935547" xlink:href="#DejaVuSans-110"/>
      <use x="770.314453" xlink:href="#DejaVuSans-116"/>
     </g>
    </g>
   </g>
  </g>
  <g id="text_14">
   <!-- Downtown -->
   <defs>
    <path d="M 27.984375 58.6875 
L 27.984375 14.203125 
L 34.71875 14.203125 
Q 46.234375 14.203125 52.3125 19.921875 
Q 58.40625 25.640625 58.40625 36.53125 
Q 58.40625 47.359375 52.34375 53.015625 
Q 46.296875 58.6875 34.71875 58.6875 
z
M 9.1875 72.90625 
L 29 72.90625 
Q 45.609375 72.90625 53.734375 70.53125 
Q 61.859375 68.171875 67.671875 62.5 
Q 72.796875 57.5625 75.28125 51.109375 
Q 77.78125 44.671875 77.78125 36.53125 
Q 77.78125 28.265625 75.28125 21.796875 
Q 72.796875 15.328125 67.671875 10.40625 
Q 61.8125 4.734375 53.609375 2.359375 
Q 45.40625 0 29 0 
L 9.1875 0 
z
" id="DejaVuSans-Bold-68"/>
    <path d="M 34.421875 43.5 
Q 28.609375 43.5 25.5625 39.328125 
Q 22.515625 35.15625 22.515625 27.296875 
Q 22.515625 19.4375 25.5625 15.25 
Q 28.609375 11.078125 34.421875 11.078125 
Q 40.140625 11.078125 43.15625 15.25 
Q 46.1875 19.4375 46.1875 27.296875 
Q 46.1875 35.15625 43.15625 39.328125 
Q 40.140625 43.5 34.421875 43.5 
z
M 34.421875 56 
Q 48.53125 56 56.46875 48.375 
Q 64.40625 40.765625 64.40625 27.296875 
Q 64.40625 13.8125 56.46875 6.1875 
Q 48.53125 -1.421875 34.421875 -1.421875 
Q 20.265625 -1.421875 12.28125 6.1875 
Q 4.296875 13.8125 4.296875 27.296875 
Q 4.296875 40.765625 12.28125 48.375 
Q 20.265625 56 34.421875 56 
z
" id="DejaVuSans-Bold-111"/>
    <path d="M 3.515625 54.6875 
L 20.515625 54.6875 
L 29.6875 17 
L 38.921875 54.6875 
L 53.515625 54.6875 
L 62.703125 17.390625 
L 71.921875 54.6875 
L 88.921875 54.6875 
L 74.515625 0 
L 55.421875 0 
L 46.1875 37.59375 
L 37.015625 0 
L 17.921875 0 
z
" id="DejaVuSans-Bold-119"/>
    <path d="M 63.375 33.296875 
L 63.375 0 
L 45.796875 0 
L 45.796875 5.421875 
L 45.796875 25.484375 
Q 45.796875 32.5625 45.484375 35.25 
Q 45.171875 37.9375 44.390625 39.203125 
Q 43.359375 40.921875 41.59375 41.875 
Q 39.84375 42.828125 37.59375 42.828125 
Q 32.125 42.828125 29 38.59375 
Q 25.875 34.375 25.875 26.90625 
L 25.875 0 
L 8.40625 0 
L 8.40625 54.6875 
L 25.875 54.6875 
L 25.875 46.6875 
Q 29.828125 51.46875 34.265625 53.734375 
Q 38.71875 56 44.09375 56 
Q 53.5625 56 58.46875 50.1875 
Q 63.375 44.390625 63.375 33.296875 
z
" id="DejaVuSans-Bold-110"/>
    <path d="M 27.484375 70.21875 
L 27.484375 54.6875 
L 45.515625 54.6875 
L 45.515625 42.1875 
L 27.484375 42.1875 
L 27.484375 19 
Q 27.484375 15.1875 29 13.84375 
Q 30.515625 12.5 35.015625 12.5 
L 44 12.5 
L 44 0 
L 29 0 
Q 18.65625 0 14.328125 4.3125 
Q 10.015625 8.640625 10.015625 19 
L 10.015625 42.1875 
L 1.3125 42.1875 
L 1.3125 54.6875 
L 10.015625 54.6875 
L 10.015625 70.21875 
z
" id="DejaVuSans-Bold-116"/>
   </defs>
   <g transform="translate(252.2775 17.758125)scale(0.12 -0.12)">
    <use xlink:href="#DejaVuSans-Bold-68"/>
    <use x="83.007812" xlink:href="#DejaVuSans-Bold-111"/>
    <use x="151.708984" xlink:href="#DejaVuSans-Bold-119"/>
    <use x="244.091797" xlink:href="#DejaVuSans-Bold-110"/>
    <use x="315.283203" xlink:href="#DejaVuSans-Bold-116"/>
    <use x="363.085938" xlink:href="#DejaVuSans-Bold-111"/>
    <use x="431.787109" xlink:href="#DejaVuSans-Bold-119"/>
    <use x="524.169922" xlink:href="#DejaVuSans-Bold-110"/>
   </g>
  </g>
 </g>
 <defs>
  <clipPath id="p3449026f84">
   <rect height="332.64" width="446.4" x="72" y="51.84"/>
  </clipPath>
 </defs>
</svg>
